<?xml version="1.0" encoding="utf-8"?>
<!-- Generator: Adobe Illustrator 15.0.0, SVG Export Plug-In . SVG Version: 6.00 Build 0)  -->
<!DOCTYPE svg PUBLIC "-//W3C//DTD SVG 1.1//EN" "http://www.w3.org/Graphics/SVG/1.1/DTD/svg11.dtd">
<svg version="1.1" id="Layer_1" xmlns="http://www.w3.org/2000/svg" xmlns:xlink="http://www.w3.org/1999/xlink" x="0px" y="0px"
	 width="18.749px" height="58.347px" viewBox="0 0 18.749 58.347" enable-background="new 0 0 18.749 58.347" xml:space="preserve">
<rect x="2.325" y="22.347" fill-rule="evenodd" clip-rule="evenodd" fill="#B3B3B3" width="4.32" height="36"/>
<path fill-rule="evenodd" clip-rule="evenodd" fill="#FFFFFF" d="M9,22.406L9,22.406c-0.295,0-0.588-0.057-0.861-0.17
	c-0.273-0.113-0.521-0.281-0.73-0.489c-0.208-0.209-0.375-0.456-0.487-0.729c-0.113-0.271-0.171-0.564-0.171-0.862h-4.5
	c0,0.298-0.058,0.591-0.171,0.862c-0.113,0.273-0.279,0.521-0.488,0.729c-0.209,0.208-0.457,0.376-0.73,0.489S0.295,22.406,0,22.406
	H9"/>
<path fill-rule="evenodd" clip-rule="evenodd" fill="#B3B3B3" d="M6.75,24.658L6.75,24.658c0-0.298,0.058-0.591,0.171-0.861
	c0.113-0.274,0.279-0.521,0.487-0.73c0.209-0.209,0.457-0.376,0.73-0.489C8.412,22.465,8.705,22.406,9,22.406H0
	c0.295,0,0.588,0.059,0.861,0.171c0.273,0.113,0.521,0.28,0.73,0.489s0.375,0.456,0.488,0.73c0.113,0.271,0.171,0.563,0.171,0.861
	H6.75"/>
<path fill-rule="evenodd" clip-rule="evenodd" fill="#FFFFFF" d="M2.25,11.155L2.25,11.155c-0.014-0.235-0.06-0.468-0.135-0.69
	c-0.075-0.227-0.18-0.439-0.311-0.637c-0.131-0.196-0.288-0.374-0.465-0.53S0.963,9.01,0.75,8.906h6v11.249h-4.5V11.155"/>
<path fill-rule="evenodd" clip-rule="evenodd" fill="#FFFFFF" d="M3.75,8.906L3.75,8.906C3.272,8.269,2.845,7.594,2.474,6.889
	C2.103,6.183,1.789,5.451,1.535,4.695C1.28,3.938,1.086,3.166,0.955,2.379C0.824,1.594,0.755,0.797,0.75,0v8.906H3.75"/>
<path fill-rule="evenodd" clip-rule="evenodd" d="M6.75,8.906L6.75,8.906c0.478-0.638,0.905-1.312,1.276-2.018
	c0.371-0.706,0.685-1.438,0.939-2.193C9.22,3.938,9.414,3.166,9.544,2.379C9.677,1.594,9.745,0.797,9.749,0v8.906H6.75"/>
<rect x="11.204" y="22.347" fill-rule="evenodd" clip-rule="evenodd" fill="#B3B3B3" width="4.561" height="36"/>
<path fill-rule="evenodd" clip-rule="evenodd" fill="#FFFFFF" d="M17.999,22.409L17.999,22.409c-0.295,0-0.588-0.058-0.861-0.173
	c-0.272-0.113-0.521-0.278-0.729-0.487s-0.374-0.456-0.487-0.729s-0.172-0.566-0.172-0.861h-4.5c0,0.295-0.059,0.588-0.172,0.861
	c-0.112,0.273-0.277,0.521-0.487,0.729c-0.208,0.209-0.456,0.374-0.729,0.487c-0.273,0.115-0.566,0.173-0.861,0.173H17.999"/>
<path fill-rule="evenodd" clip-rule="evenodd" fill="#B3B3B3" d="M15.749,24.658L15.749,24.658c0-0.295,0.059-0.588,0.172-0.859
	c0.113-0.273,0.278-0.523,0.487-0.732s0.457-0.374,0.729-0.486c0.273-0.113,0.566-0.171,0.861-0.171h-9
	c0.295,0,0.588,0.058,0.861,0.171c0.273,0.112,0.521,0.277,0.729,0.486c0.21,0.209,0.375,0.459,0.487,0.732
	c0.113,0.271,0.172,0.564,0.172,0.859H15.749"/>
<path fill-rule="evenodd" clip-rule="evenodd" fill="#FFFFFF" d="M11.249,11.158L11.249,11.158c-0.014-0.235-0.06-0.468-0.135-0.693
	c-0.075-0.224-0.18-0.438-0.311-0.634c-0.132-0.197-0.288-0.375-0.467-0.53c-0.178-0.156-0.375-0.288-0.588-0.392h6v11.249h-4.5
	V11.158"/>
<path fill-rule="evenodd" clip-rule="evenodd" fill="#FFFFFF" d="M12.749,8.909L12.749,8.909c-0.479-0.639-0.904-1.312-1.275-2.019
	c-0.371-0.705-0.686-1.439-0.939-2.193c-0.255-0.756-0.449-1.531-0.58-2.316C9.823,1.594,9.755,0.8,9.749,0.003v8.906H12.749"/>
<path fill-rule="evenodd" clip-rule="evenodd" d="M15.749,8.909L15.749,8.909c0.479-0.639,0.904-1.312,1.275-2.019
	c0.371-0.705,0.686-1.439,0.939-2.193c0.255-0.756,0.449-1.531,0.58-2.316c0.131-0.787,0.199-1.581,0.205-2.378v8.906H15.749"/>
</svg>
