<?xml version="1.0" encoding="utf-8"?>
<!-- Generator: Adobe Illustrator 15.0.0, SVG Export Plug-In . SVG Version: 6.00 Build 0)  -->
<!DOCTYPE svg PUBLIC "-//W3C//DTD SVG 1.1//EN" "http://www.w3.org/Graphics/SVG/1.1/DTD/svg11.dtd">
<svg version="1.1" id="Layer_1" xmlns="http://www.w3.org/2000/svg" xmlns:xlink="http://www.w3.org/1999/xlink" x="0px" y="0px"
	 width="206.16px" height="206.16px" viewBox="0 0 206.16 206.16" enable-background="new 0 0 206.16 206.16" xml:space="preserve">
<g>
	<defs>
		<path id="SVGID_1_" d="M206.16,103.08C206.16,46.532,159.629,0,103.08,0S0,46.532,0,103.08c0,56.549,46.531,103.08,103.08,103.08
			S206.16,159.629,206.16,103.08"/>
	</defs>
	<clipPath id="SVGID_2_">
		<use xlink:href="#SVGID_1_"  overflow="visible"/>
	</clipPath>
	<path clip-path="url(#SVGID_2_)" fill-rule="evenodd" clip-rule="evenodd" fill="#FFFFFF" d="M249.12,103.2
		c0-80.181-65.978-146.16-146.159-146.16S-43.199,23.019-43.199,103.2c0,80.182,65.979,146.16,146.16,146.16
		S249.12,183.382,249.12,103.2"/>
	<path clip-path="url(#SVGID_2_)" fill-rule="evenodd" clip-rule="evenodd" fill="#FFFAFA" d="M207.601,103.2
		c0-57.404-47.237-104.64-104.64-104.64C45.558-1.44-1.68,45.796-1.68,103.2c0,57.403,47.237,104.64,104.641,104.64
		C160.363,207.84,207.601,160.604,207.601,103.2"/>
	<path clip-path="url(#SVGID_2_)" fill-rule="evenodd" clip-rule="evenodd" fill="#FFF4F4" d="M207.12,103.2
		c0-57.141-46.965-104.16-104.04-104.16C46.006-0.96-0.959,46.06-0.959,103.2c0,57.142,46.965,104.16,104.039,104.16
		C160.155,207.36,207.12,160.342,207.12,103.2"/>
	<path clip-path="url(#SVGID_2_)" fill-rule="evenodd" clip-rule="evenodd" fill="#FFEFEF" d="M206.641,103.08
		c0-56.812-46.75-103.56-103.561-103.56c-56.81,0-103.56,46.749-103.56,103.56c0,56.811,46.75,103.56,103.56,103.56
		C159.891,206.64,206.641,159.891,206.641,103.08"/>
	<path clip-path="url(#SVGID_2_)" fill-rule="evenodd" clip-rule="evenodd" fill="#FFEAEA" d="M206.16,103.08
		C206.16,46.532,159.629,0,103.08,0S0,46.532,0,103.08c0,56.549,46.531,103.08,103.08,103.08S206.16,159.629,206.16,103.08"/>
	<path clip-path="url(#SVGID_2_)" fill-rule="evenodd" clip-rule="evenodd" fill="#FFE5E5" d="M205.681,103.08
		c0-56.285-46.315-102.6-102.601-102.6c-56.284,0-102.6,46.315-102.6,102.6c0,56.284,46.315,102.601,102.6,102.601
		C159.365,205.681,205.681,159.364,205.681,103.08"/>
	<path clip-path="url(#SVGID_2_)" fill-rule="evenodd" clip-rule="evenodd" fill="#FFDFDF" d="M205.2,103.2
		c0-56.087-46.151-102.24-102.239-102.24C46.872,0.96,0.721,47.113,0.721,103.2c0,56.088,46.151,102.24,102.24,102.24
		C159.049,205.44,205.2,159.288,205.2,103.2"/>
	<path clip-path="url(#SVGID_2_)" fill-rule="evenodd" clip-rule="evenodd" fill="#FFDADA" d="M204.721,103.08
		c0-55.758-45.881-101.64-101.641-101.64C47.321,1.44,1.44,47.322,1.44,103.08c0,55.759,45.881,101.64,101.64,101.64
		C158.84,204.72,204.721,158.839,204.721,103.08"/>
	<path clip-path="url(#SVGID_2_)" fill-rule="evenodd" clip-rule="evenodd" fill="#FFD5D5" d="M204.24,103.08
		c0-55.495-45.664-101.16-101.16-101.16C47.585,1.92,1.921,47.585,1.921,103.08c0,55.495,45.664,101.16,101.159,101.16
		C158.576,204.24,204.24,158.575,204.24,103.08"/>
	<path clip-path="url(#SVGID_2_)" fill-rule="evenodd" clip-rule="evenodd" fill="#FFCFCF" d="M203.761,103.08
		c0-55.231-45.449-100.68-100.681-100.68C47.85,2.4,2.4,47.849,2.4,103.08S47.85,203.761,103.08,203.761
		C158.312,203.761,203.761,158.312,203.761,103.08"/>
	<path clip-path="url(#SVGID_2_)" fill-rule="evenodd" clip-rule="evenodd" fill="#FFCACA" d="M203.28,103.08
		c0-54.968-45.232-100.2-100.2-100.2C48.113,2.88,2.881,48.112,2.881,103.08c0,54.968,45.232,100.2,100.199,100.2
		C158.048,203.28,203.28,158.048,203.28,103.08"/>
	<path clip-path="url(#SVGID_2_)" fill-rule="evenodd" clip-rule="evenodd" fill="#FFC5C5" d="M202.801,103.08
		c0-54.705-45.015-99.72-99.721-99.72c-54.705,0-99.72,45.015-99.72,99.72c0,54.706,45.015,99.72,99.72,99.72
		C157.786,202.8,202.801,157.786,202.801,103.08"/>
	<path clip-path="url(#SVGID_2_)" fill-rule="evenodd" clip-rule="evenodd" fill="#FFC0C0" d="M202.32,103.08
		c0-54.441-44.798-99.24-99.24-99.24c-54.441,0-99.239,44.799-99.239,99.24s44.798,99.24,99.239,99.24
		C157.522,202.32,202.32,157.521,202.32,103.08"/>
	<path clip-path="url(#SVGID_2_)" fill-rule="evenodd" clip-rule="evenodd" fill="#FFBABA" d="M201.841,103.2
		c0-54.244-44.636-98.88-98.88-98.88C48.716,4.32,4.08,48.956,4.08,103.2s44.636,98.88,98.881,98.88
		C157.205,202.08,201.841,157.444,201.841,103.2"/>
	<path clip-path="url(#SVGID_2_)" fill-rule="evenodd" clip-rule="evenodd" fill="#FFB5B5" d="M201.36,103.08
		c0-53.915-44.364-98.28-98.28-98.28S4.801,49.165,4.801,103.08c0,53.916,44.363,98.28,98.279,98.28S201.36,156.996,201.36,103.08"
		/>
	<path clip-path="url(#SVGID_2_)" fill-rule="evenodd" clip-rule="evenodd" fill="#FFB0B0" d="M200.881,103.08
		c0-53.651-44.148-97.8-97.801-97.8c-53.651,0-97.8,44.148-97.8,97.8c0,53.652,44.148,97.8,97.8,97.8
		C156.732,200.88,200.881,156.732,200.881,103.08"/>
	<path clip-path="url(#SVGID_2_)" fill-rule="evenodd" clip-rule="evenodd" fill="#FFAAAA" d="M200.4,103.08
		c0-53.388-43.932-97.32-97.32-97.32c-53.388,0-97.319,43.932-97.319,97.32c0,53.388,43.932,97.32,97.319,97.32
		C156.469,200.4,200.4,156.468,200.4,103.08"/>
	<path clip-path="url(#SVGID_2_)" fill-rule="evenodd" clip-rule="evenodd" fill="#FFA5A5" d="M199.921,103.08
		c0-53.125-43.716-96.84-96.841-96.84c-53.123,0-96.84,43.715-96.84,96.84c0,53.124,43.717,96.84,96.84,96.84
		C156.205,199.92,199.921,156.204,199.921,103.08"/>
	<path clip-path="url(#SVGID_2_)" fill-rule="evenodd" clip-rule="evenodd" fill="#FFA0A0" d="M199.44,103.08
		c0-52.861-43.497-96.36-96.36-96.36c-52.862,0-96.359,43.499-96.359,96.36c0,52.862,43.497,96.36,96.359,96.36
		C155.943,199.44,199.44,155.942,199.44,103.08"/>
	<path clip-path="url(#SVGID_2_)" fill-rule="evenodd" clip-rule="evenodd" fill="#FF9B9B" d="M198.961,103.08
		c0-52.598-43.282-95.88-95.881-95.88C50.482,7.2,7.2,50.482,7.2,103.08c0,52.599,43.282,95.88,95.88,95.88
		C155.679,198.96,198.961,155.679,198.961,103.08"/>
	<path clip-path="url(#SVGID_2_)" fill-rule="evenodd" clip-rule="evenodd" fill="#FF9595" d="M198.48,103.2
		c0-52.401-43.065-95.52-95.4-95.52c-52.334,0-95.399,43.119-95.399,95.52c0,52.401,43.065,95.52,95.399,95.52
		C155.415,198.72,198.48,155.602,198.48,103.2"/>
	<path clip-path="url(#SVGID_2_)" fill-rule="evenodd" clip-rule="evenodd" fill="#FF9090" d="M198,103.08
		c0-52.071-42.85-94.92-94.92-94.92S8.16,51.009,8.16,103.08c0,52.07,42.85,94.92,94.92,94.92S198,155.15,198,103.08"/>
	<path clip-path="url(#SVGID_2_)" fill-rule="evenodd" clip-rule="evenodd" fill="#FF8B8B" d="M197.521,103.08
		c0-51.808-42.631-94.44-94.44-94.44c-51.809,0-94.439,42.632-94.439,94.44c0,51.809,42.631,94.44,94.439,94.44
		C154.89,197.521,197.521,154.889,197.521,103.08"/>
	<path clip-path="url(#SVGID_2_)" fill-rule="evenodd" clip-rule="evenodd" fill="#FF8585" d="M197.041,103.08
		c0-51.545-42.416-93.96-93.961-93.96c-51.544,0-93.96,42.415-93.96,93.96s42.416,93.96,93.96,93.96
		C154.625,197.04,197.041,154.625,197.041,103.08"/>
	<path clip-path="url(#SVGID_2_)" fill-rule="evenodd" clip-rule="evenodd" fill="#FF8080" d="M196.561,103.08
		c0-51.281-42.199-93.48-93.48-93.48C51.8,9.6,9.601,51.799,9.601,103.08c0,51.28,42.199,93.479,93.479,93.479
		C154.361,196.56,196.561,154.36,196.561,103.08"/>
	<path clip-path="url(#SVGID_2_)" fill-rule="evenodd" clip-rule="evenodd" fill="#FF7B7B" d="M196.08,103.08
		c0-51.018-41.98-93-93-93c-51.019,0-93,41.982-93,93c0,51.02,41.981,93,93,93C154.1,196.08,196.08,154.1,196.08,103.08"/>
	<path clip-path="url(#SVGID_2_)" fill-rule="evenodd" clip-rule="evenodd" fill="#FF7676" d="M195.601,103.08
		c0-50.755-41.765-92.52-92.521-92.52c-50.755,0-92.52,41.765-92.52,92.52s41.765,92.521,92.52,92.521
		C153.836,195.601,195.601,153.835,195.601,103.08"/>
	<path clip-path="url(#SVGID_2_)" fill-rule="evenodd" clip-rule="evenodd" fill="#FF7070" d="M195.12,103.08
		c0-50.492-41.549-92.04-92.04-92.04c-50.49,0-92.039,41.548-92.039,92.04c0,50.491,41.549,92.04,92.039,92.04
		C153.571,195.12,195.12,153.571,195.12,103.08"/>
	<path clip-path="url(#SVGID_2_)" fill-rule="evenodd" clip-rule="evenodd" fill="#FF6B6B" d="M194.641,103.08
		c0-50.229-41.333-91.56-91.561-91.56c-50.227,0-91.56,41.332-91.56,91.56c0,50.228,41.333,91.56,91.56,91.56
		C153.308,194.64,194.641,153.308,194.641,103.08"/>
	<path clip-path="url(#SVGID_2_)" fill-rule="evenodd" clip-rule="evenodd" fill="#FF6666" d="M194.16,103.08
		c0-49.965-41.114-91.08-91.08-91.08C53.115,12,12,53.115,12,103.08c0,49.966,41.115,91.08,91.08,91.08
		C153.046,194.16,194.16,153.046,194.16,103.08"/>
	<path clip-path="url(#SVGID_2_)" fill-rule="evenodd" clip-rule="evenodd" fill="#FF6161" d="M193.681,103.08
		c0-49.702-40.898-90.6-90.601-90.6c-49.701,0-90.6,40.898-90.6,90.6c0,49.702,40.898,90.601,90.6,90.601
		C152.782,193.681,193.681,152.782,193.681,103.08"/>
	<path clip-path="url(#SVGID_2_)" fill-rule="evenodd" clip-rule="evenodd" fill="#FF5B5B" d="M193.2,103.08
		c0-49.438-40.682-90.12-90.12-90.12c-49.438,0-90.119,40.682-90.119,90.12c0,49.438,40.682,90.12,90.119,90.12
		C152.519,193.2,193.2,152.518,193.2,103.08"/>
	<path clip-path="url(#SVGID_2_)" fill-rule="evenodd" clip-rule="evenodd" fill="#FF5656" d="M192.721,103.08
		c0-49.175-40.464-89.64-89.641-89.64c-49.176,0-89.64,40.465-89.64,89.64c0,49.176,40.464,89.64,89.64,89.64
		C152.257,192.72,192.721,152.256,192.721,103.08"/>
	<path clip-path="url(#SVGID_2_)" fill-rule="evenodd" clip-rule="evenodd" fill="#FF5151" d="M192.24,103.08
		c0-48.912-40.248-89.16-89.16-89.16c-48.911,0-89.159,40.249-89.159,89.16c0,48.912,40.248,89.16,89.159,89.16
		C151.992,192.24,192.24,151.992,192.24,103.08"/>
	<path clip-path="url(#SVGID_2_)" fill-rule="evenodd" clip-rule="evenodd" fill="#FF4C4C" d="M191.761,103.08
		c0-48.648-40.032-88.68-88.681-88.68c-48.647,0-88.68,40.031-88.68,88.68c0,48.647,40.032,88.681,88.68,88.681
		C151.729,191.761,191.761,151.728,191.761,103.08"/>
	<path clip-path="url(#SVGID_2_)" fill-rule="evenodd" clip-rule="evenodd" fill="#FF4646" d="M191.28,103.08
		c0-48.385-39.815-88.2-88.2-88.2c-48.384,0-88.199,39.815-88.199,88.2c0,48.384,39.815,88.2,88.199,88.2
		C151.465,191.28,191.28,151.464,191.28,103.08"/>
	<path clip-path="url(#SVGID_2_)" fill-rule="evenodd" clip-rule="evenodd" fill="#FF4141" d="M190.801,103.08
		c0-48.122-39.598-87.72-87.721-87.72c-48.122,0-87.72,39.598-87.72,87.72c0,48.122,39.598,87.72,87.72,87.72
		C151.203,190.8,190.801,151.202,190.801,103.08"/>
	<path clip-path="url(#SVGID_2_)" fill-rule="evenodd" clip-rule="evenodd" fill="#FF3C3C" d="M190.32,103.08
		c0-47.858-39.381-87.24-87.24-87.24c-47.858,0-87.239,39.382-87.239,87.24s39.381,87.24,87.239,87.24
		C150.939,190.32,190.32,150.938,190.32,103.08"/>
	<path clip-path="url(#SVGID_2_)" fill-rule="evenodd" clip-rule="evenodd" fill="#FF3737" d="M189.841,103.08
		c0-47.595-39.166-86.76-86.761-86.76c-47.594,0-86.76,39.165-86.76,86.76c0,47.595,39.166,86.76,86.76,86.76
		C150.675,189.84,189.841,150.675,189.841,103.08"/>
	<path clip-path="url(#SVGID_2_)" fill-rule="evenodd" clip-rule="evenodd" fill="#FF3131" d="M189.36,103.08
		c0-47.332-38.947-86.28-86.28-86.28c-47.332,0-86.279,38.948-86.279,86.28c0,47.333,38.947,86.28,86.279,86.28
		C150.413,189.36,189.36,150.413,189.36,103.08"/>
	<path clip-path="url(#SVGID_2_)" fill-rule="evenodd" clip-rule="evenodd" fill="#FF2C2C" d="M188.881,103.08
		c0-47.068-38.731-85.8-85.801-85.8c-47.068,0-85.8,38.731-85.8,85.8c0,47.069,38.731,85.8,85.8,85.8
		C150.149,188.88,188.881,150.149,188.881,103.08"/>
	<path clip-path="url(#SVGID_2_)" fill-rule="evenodd" clip-rule="evenodd" fill="#FF2727" d="M188.4,103.08
		c0-46.805-38.515-85.32-85.32-85.32c-46.805,0-85.319,38.515-85.319,85.32c0,46.805,38.515,85.32,85.319,85.32
		C149.886,188.4,188.4,149.885,188.4,103.08"/>
	<path clip-path="url(#SVGID_2_)" fill-rule="evenodd" clip-rule="evenodd" fill="#FF2222" d="M187.921,103.08
		c0-46.542-38.3-84.84-84.841-84.84c-46.54,0-84.84,38.298-84.84,84.84c0,46.541,38.3,84.84,84.84,84.84
		C149.621,187.92,187.921,149.621,187.921,103.08"/>
	<path clip-path="url(#SVGID_2_)" fill-rule="evenodd" clip-rule="evenodd" fill="#FF1C1C" d="M187.44,103.08
		c0-46.278-38.081-84.36-84.36-84.36s-84.359,38.082-84.359,84.36c0,46.279,38.08,84.36,84.359,84.36S187.44,149.359,187.44,103.08"
		/>
	<path clip-path="url(#SVGID_2_)" fill-rule="evenodd" clip-rule="evenodd" fill="#FF1717" d="M186.961,103.08
		c0-46.015-37.865-83.88-83.881-83.88c-46.015,0-83.88,37.865-83.88,83.88c0,46.015,37.865,83.88,83.88,83.88
		C149.096,186.96,186.961,149.095,186.961,103.08"/>
	<path clip-path="url(#SVGID_2_)" fill-rule="evenodd" clip-rule="evenodd" fill="#FF1212" d="M186.48,103.08
		c0-45.752-37.648-83.4-83.4-83.4c-45.751,0-83.399,37.648-83.399,83.4c0,45.751,37.648,83.399,83.399,83.399
		C148.832,186.479,186.48,148.831,186.48,103.08"/>
	<path clip-path="url(#SVGID_2_)" fill-rule="evenodd" clip-rule="evenodd" fill="#FF0D0D" d="M186,103.08
		c0-45.489-37.43-82.92-82.92-82.92c-45.489,0-82.92,37.431-82.92,82.92c0,45.489,37.431,82.92,82.92,82.92
		C148.57,186,186,148.569,186,103.08"/>
	<path clip-path="url(#SVGID_2_)" fill-rule="evenodd" clip-rule="evenodd" fill="#FF0707" d="M185.521,103.08
		c0-45.226-37.214-82.44-82.44-82.44c-45.225,0-82.439,37.214-82.439,82.44s37.215,82.44,82.439,82.44
		C148.307,185.521,185.521,148.306,185.521,103.08"/>
	<path clip-path="url(#SVGID_2_)" fill-rule="evenodd" clip-rule="evenodd" fill="#FF0202" d="M185.041,103.08
		c0-44.962-36.999-81.96-81.961-81.96c-44.961,0-81.96,36.998-81.96,81.96s36.999,81.96,81.96,81.96
		C148.042,185.04,185.041,148.042,185.041,103.08"/>
	<path clip-path="url(#SVGID_2_)" fill-rule="evenodd" clip-rule="evenodd" fill="#FF0000" d="M184.561,103.08
		c0-44.698-36.782-81.48-81.48-81.48c-44.697,0-81.479,36.782-81.479,81.48s36.782,81.479,81.479,81.479
		C147.778,184.56,184.561,147.778,184.561,103.08"/>
</g>
</svg>
