<?xml version="1.0" encoding="utf-8"?>
<!-- Generator: Adobe Illustrator 15.0.0, SVG Export Plug-In . SVG Version: 6.00 Build 0)  -->
<!DOCTYPE svg PUBLIC "-//W3C//DTD SVG 1.1//EN" "http://www.w3.org/Graphics/SVG/1.1/DTD/svg11.dtd">
<svg version="1.1" id="Layer_1" xmlns="http://www.w3.org/2000/svg" xmlns:xlink="http://www.w3.org/1999/xlink" x="0px" y="0px"
	 width="54.749px" height="72.013px" viewBox="0 0 54.749 72.013" enable-background="new 0 0 54.749 72.013" xml:space="preserve">
<polyline fill-rule="evenodd" clip-rule="evenodd" points="32.984,18.66 32.984,20.101 32.984,15.541 32.984,16.5 32.984,18.66 "/>
<polyline fill-rule="evenodd" clip-rule="evenodd" fill="#FFFFFF" points="21.944,15.541 21.944,20.101 21.944,18.66 21.944,16.5 
	21.944,15.541 "/>
<polyline fill-rule="evenodd" clip-rule="evenodd" points="18.345,20.82 16.185,18.66 14.745,22.021 12.584,20.101 7.785,26.82 
	7.785,71.94 47.145,71.94 47.145,26.82 42.104,20.101 40.185,22.021 38.505,18.66 36.345,20.82 34.904,17.461 32.984,20.101 
	31.784,15.541 29.624,18.66 27.464,14.82 25.064,18.66 22.904,15.541 21.944,20.101 19.785,17.461 18.345,20.82 "/>
<path fill-rule="evenodd" clip-rule="evenodd" fill="#7F7F7F" d="M38.623,16.926L38.623,16.926l0.001,1.711l1.495,3.484v-0.103
	l-0.001-3.754v-0.746l0,0v-0.721V16.73c-0.053-0.012-0.106-0.028-0.158-0.048c-0.051-0.019-0.102-0.04-0.151-0.064
	s-0.097-0.053-0.144-0.084c-0.046-0.028-0.09-0.062-0.133-0.099c-0.089-0.189-0.174-0.381-0.257-0.576
	c-0.083-0.194-0.161-0.389-0.237-0.585c-0.076-0.197-0.149-0.394-0.219-0.593s-0.136-0.401-0.199-0.601l0.002,1.241l0,0v0.209
	L38.623,16.926"/>
<path fill-rule="evenodd" clip-rule="evenodd" fill="#B3B3B3" d="M42.374,19.921l-2.255,2.2l-0.001-3.856v-0.746l0,0V16.73
	c0.074-0.004,0.148-0.009,0.223-0.019c0.074-0.007,0.147-0.015,0.221-0.026c0.073-0.01,0.146-0.021,0.22-0.034
	c0.073-0.014,0.146-0.028,0.218-0.045c0.145-0.062,0.283-0.137,0.415-0.221c0.132-0.087,0.257-0.181,0.374-0.286
	c0.115-0.105,0.223-0.221,0.32-0.343c0.098-0.125,0.186-0.255,0.262-0.392l0.001,1.241v0.208l0.001,1.395h0.002V19.921"/>
<path fill-rule="evenodd" clip-rule="evenodd" fill="#FFFFFF" d="M16.125,18.637v-1.711h0.001l0.001-1.395v-0.209h0l0.001-1.241
	c-0.063,0.199-0.129,0.401-0.199,0.601s-0.143,0.396-0.218,0.593c-0.076,0.196-0.155,0.391-0.238,0.585
	c-0.082,0.195-0.168,0.387-0.257,0.576c-0.042,0.036-0.086,0.07-0.133,0.099c-0.046,0.031-0.094,0.06-0.143,0.084
	s-0.1,0.046-0.152,0.064c-0.052,0.02-0.104,0.036-0.158,0.048v0.067v0.721h0l0,0.746l0,3.754v0.103L16.125,18.637"/>
<path fill-rule="evenodd" clip-rule="evenodd" fill="#FFFFFF" d="M12.375,19.921l2.255,2.2l0-3.856l0-0.746h0V16.73
	c-0.074-0.004-0.148-0.009-0.222-0.019c-0.074-0.007-0.148-0.015-0.221-0.026c-0.074-0.01-0.146-0.021-0.22-0.034
	c-0.073-0.014-0.146-0.028-0.218-0.045c-0.144-0.062-0.283-0.137-0.415-0.221c-0.132-0.087-0.257-0.181-0.374-0.286
	c-0.116-0.105-0.224-0.221-0.321-0.343c-0.098-0.125-0.185-0.255-0.261-0.392l-0.001,1.241v0.208l-0.001,1.395h-0.001V19.921"/>
<polyline fill-rule="evenodd" clip-rule="evenodd" fill="#B3B3B3" points="10.424,71.94 10.424,34.261 17.625,24.66 37.064,24.66 
	44.265,34.261 44.265,71.94 10.424,71.94 "/>
<path fill-rule="evenodd" clip-rule="evenodd" fill="#7F7F7F" d="M27.375,14.799l2.25,3.749v-5.717l0,0v-1.479v-0.818v-0.235l0,0
	V8.893c-0.014,0.122-0.031,0.242-0.056,0.365c-0.024,0.119-0.054,0.237-0.088,0.357c-0.034,0.117-0.073,0.232-0.118,0.348
	c-0.045,0.113-0.094,0.226-0.148,0.336c-0.049,0.048-0.107,0.087-0.171,0.113c-0.064,0.026-0.133,0.04-0.202,0.04
	c-0.068,0-0.137-0.014-0.201-0.04c-0.063-0.026-0.121-0.065-0.17-0.113c-0.177-0.364-0.332-0.739-0.468-1.118
	c-0.135-0.382-0.248-0.771-0.34-1.164C27.57,7.62,27.5,7.222,27.453,6.821c-0.047-0.403-0.073-0.807-0.075-1.212l-0.003,5.743l0,0
	v0.821V14.799"/>
<path fill-rule="evenodd" clip-rule="evenodd" fill="#FFFFFF" d="M27.375,14.799l-2.25,3.749l0-5.717l0,0v-1.479v-0.818l0-0.235h0
	l0-1.406c0.013,0.122,0.032,0.242,0.056,0.365c0.024,0.119,0.053,0.237,0.088,0.357c0.034,0.117,0.074,0.232,0.118,0.348
	c0.045,0.113,0.094,0.226,0.148,0.336c0.049,0.048,0.107,0.087,0.171,0.113c0.064,0.026,0.133,0.04,0.202,0.04
	s0.137-0.014,0.201-0.04s0.122-0.065,0.171-0.113c0.176-0.364,0.332-0.739,0.467-1.118c0.135-0.382,0.248-0.771,0.34-1.164
	c0.092-0.396,0.162-0.795,0.209-1.195c0.047-0.403,0.073-0.807,0.075-1.212l0.002,5.743h0v0.821V14.799"/>
<path fill-rule="evenodd" clip-rule="evenodd" fill="#B3B3B3" d="M31.874,15.548l-2.25,3v-4.874v-0.843l0,0v-0.893
	c0.074-0.005,0.148-0.013,0.222-0.02c0.074-0.01,0.147-0.02,0.221-0.031s0.146-0.024,0.22-0.041
	c0.072-0.015,0.145-0.031,0.217-0.048c0.148-0.077,0.291-0.163,0.424-0.262c0.135-0.101,0.261-0.209,0.377-0.328
	c0.115-0.12,0.222-0.248,0.316-0.385c0.096-0.137,0.18-0.283,0.25-0.432l0.002,1.406l0,0v0.232l0.001,1.582h0.001V15.548"/>
<path fill-rule="evenodd" clip-rule="evenodd" fill="#7F7F7F" d="M32.912,15.059v-0.425l0,0v-0.891
	c-0.068-0.008-0.136-0.024-0.2-0.048c-0.065-0.024-0.127-0.056-0.185-0.094c-0.058-0.039-0.11-0.084-0.157-0.135
	c-0.047-0.053-0.087-0.107-0.121-0.168c-0.047-0.24-0.09-0.479-0.129-0.723c-0.039-0.242-0.074-0.482-0.105-0.725
	s-0.059-0.484-0.082-0.729c-0.023-0.242-0.043-0.487-0.059-0.729v3.502l0,0v0.583v1.07l1.039,4.5v-1.485l-0.001-2.103V15.059"/>
<path fill-rule="evenodd" clip-rule="evenodd" fill="#B3B3B3" d="M34.871,15.154L34.871,15.154l-0.001-2.959
	c-0.057,0.146-0.127,0.287-0.207,0.42c-0.081,0.134-0.172,0.262-0.273,0.381c-0.102,0.12-0.212,0.23-0.331,0.332
	c-0.119,0.103-0.246,0.194-0.38,0.273c-0.062,0.019-0.125,0.036-0.189,0.05c-0.062,0.015-0.127,0.029-0.19,0.041
	c-0.063,0.01-0.128,0.021-0.192,0.029c-0.064,0.009-0.129,0.017-0.194,0.021v0.891l0,0v0.845l0.001,4.569l1.961-2.695h-0.002v-1.704
	L34.871,15.154"/>
<path fill-rule="evenodd" clip-rule="evenodd" fill="#7F7F7F" d="M36.369,16.234L36.369,16.234v-0.721v-0.066
	c-0.054-0.013-0.106-0.029-0.158-0.049c-0.052-0.019-0.103-0.04-0.151-0.064c-0.05-0.023-0.098-0.053-0.144-0.084
	c-0.046-0.028-0.091-0.062-0.133-0.099c-0.122-0.228-0.233-0.463-0.333-0.703c-0.1-0.237-0.188-0.482-0.265-0.729
	c-0.077-0.249-0.142-0.499-0.194-0.754c-0.052-0.254-0.092-0.511-0.121-0.77l0.001,2.959l0.001,0.494v1.704h0.003l1.495,3.484
	v-0.103l-0.001-3.754V16.234"/>
<path fill-rule="evenodd" clip-rule="evenodd" fill="#B3B3B3" d="M38.624,18.637l-2.254,2.2l-0.001-3.856v-0.746l0,0v-0.787
	c0.074-0.005,0.147-0.01,0.222-0.018c0.074-0.009,0.148-0.017,0.221-0.028c0.074-0.01,0.147-0.021,0.221-0.034
	c0.072-0.014,0.146-0.028,0.218-0.045c0.144-0.062,0.283-0.137,0.415-0.221s0.257-0.181,0.373-0.286s0.224-0.221,0.321-0.343
	c0.098-0.125,0.185-0.255,0.261-0.392l0.002,1.241l0,0v0.209l0.001,1.395h0.001V18.637"/>
<path fill-rule="evenodd" clip-rule="evenodd" fill="#FFFFFF" d="M22.875,15.548l2.25,3l0-4.874v-0.843l0,0v-0.893
	c-0.074-0.005-0.148-0.013-0.222-0.02c-0.074-0.01-0.147-0.02-0.221-0.031c-0.074-0.012-0.146-0.024-0.219-0.041
	c-0.073-0.015-0.146-0.031-0.217-0.048c-0.148-0.077-0.291-0.163-0.425-0.262c-0.134-0.101-0.26-0.209-0.375-0.328
	c-0.116-0.12-0.222-0.248-0.317-0.385s-0.179-0.283-0.25-0.432l-0.001,1.406h0v0.232l-0.001,1.582h-0.001V15.548"/>
<path fill-rule="evenodd" clip-rule="evenodd" fill="#FFFFFF" d="M21.837,14.634L21.837,14.634v0.425v1.401l0,2.103l0,1.485
	l1.039-4.5l0-1.07l0-0.583h0l0-3.502c-0.015,0.242-0.035,0.487-0.059,0.729c-0.023,0.245-0.051,0.487-0.082,0.729
	s-0.066,0.482-0.105,0.725c-0.039,0.243-0.082,0.482-0.129,0.723c-0.034,0.061-0.074,0.115-0.121,0.168
	c-0.047,0.051-0.099,0.096-0.157,0.135c-0.057,0.038-0.119,0.069-0.184,0.094c-0.065,0.023-0.132,0.04-0.201,0.048V14.634"/>
<path fill-rule="evenodd" clip-rule="evenodd" fill="#FFFFFF" d="M19.878,12.195l0,2.959l0,0.494v1.704h-0.002l1.961,2.695
	l0.001-4.569v-0.845l0,0v-0.891c-0.065-0.005-0.13-0.013-0.194-0.021c-0.064-0.008-0.128-0.02-0.192-0.029
	c-0.064-0.012-0.128-0.026-0.191-0.041c-0.063-0.014-0.126-0.031-0.189-0.05c-0.134-0.079-0.261-0.171-0.38-0.273
	c-0.119-0.102-0.23-0.212-0.331-0.332c-0.101-0.119-0.192-0.247-0.273-0.381C20.006,12.482,19.936,12.342,19.878,12.195"/>
<path fill-rule="evenodd" clip-rule="evenodd" fill="#FFFFFF" d="M18.38,15.514v0.721l0,0v0.746l0,3.754v0.103l1.494-3.484h0.004
	v-1.704l0-0.494l0-2.959c-0.028,0.259-0.069,0.516-0.121,0.77c-0.053,0.255-0.117,0.505-0.194,0.754
	c-0.077,0.247-0.165,0.492-0.265,0.729c-0.1,0.24-0.211,0.476-0.333,0.703c-0.042,0.036-0.086,0.07-0.133,0.099
	c-0.046,0.031-0.094,0.061-0.143,0.084c-0.049,0.024-0.1,0.046-0.152,0.064c-0.052,0.02-0.104,0.036-0.158,0.049V15.514"/>
<path fill-rule="evenodd" clip-rule="evenodd" fill="#FFFFFF" d="M16.125,18.637l2.255,2.2l0-3.856v-0.746l0,0v-0.787
	c-0.074-0.005-0.148-0.01-0.222-0.018c-0.074-0.009-0.147-0.017-0.221-0.028c-0.074-0.01-0.147-0.021-0.22-0.034
	c-0.073-0.014-0.146-0.028-0.219-0.045c-0.144-0.062-0.283-0.137-0.415-0.221s-0.257-0.181-0.373-0.286s-0.224-0.221-0.321-0.343
	c-0.098-0.125-0.185-0.255-0.261-0.392l-0.001,1.241h0v0.209l-0.001,1.395h-0.001V18.637"/>
<rect x="2.745" y="35.94" fill-rule="evenodd" clip-rule="evenodd" width="8.88" height="36"/>
<polyline fill-rule="evenodd" clip-rule="evenodd" points="36.345,27.061 27.464,27.061 27.464,71.94 43.064,71.94 43.064,35.94 
	36.345,27.061 "/>
<polyline fill-rule="evenodd" clip-rule="evenodd" fill="#7F7F7F" points="27.464,71.94 27.464,27.061 18.345,27.061 11.625,35.94 
	11.625,71.94 27.464,71.94 "/>
<path fill-rule="evenodd" clip-rule="evenodd" d="M14.249,0.111L14.249,0.111c0-0.01,0-0.02,0-0.029s0-0.017,0-0.026s0-0.02,0-0.028
	c0-0.008,0-0.018,0-0.027V0.111 M4.5,0.111V0c0,0.01,0,0.02,0,0.027c0,0.009,0,0.019,0,0.028s0,0.017,0,0.026S4.5,0.102,4.5,0.111
	 M4.5,0.111L4.5,0.111C4.502,1.083,4.568,2.055,4.696,3.02c0.129,0.963,0.32,1.918,0.573,2.856c0.253,0.94,0.567,1.862,0.939,2.76
	c0.373,0.9,0.804,1.771,1.29,2.613h3.75c0.486-0.842,0.917-1.713,1.29-2.613c0.373-0.897,0.687-1.819,0.939-2.76
	c0.253-0.938,0.444-1.894,0.573-2.856c0.129-0.965,0.194-1.937,0.197-2.908V0c0,0.01,0,0.02,0,0.027c0,0.009,0,0.019,0,0.028
	s0,0.017,0,0.026s0,0.02,0,0.029v11.138v0.003c-0.212,0.104-0.41,0.235-0.588,0.391c-0.178,0.154-0.334,0.334-0.466,0.531
	c-0.131,0.196-0.235,0.41-0.311,0.633c-0.075,0.224-0.121,0.459-0.135,0.693v9h-1.125v11.249c0,0.298,0.058,0.591,0.171,0.862
	c0.113,0.273,0.279,0.521,0.488,0.729c0.208,0.208,0.457,0.376,0.729,0.489c0.273,0.113,0.566,0.17,0.861,0.17h-4.5
	c-0.295,0-0.588-0.057-0.861-0.17c-0.272-0.113-0.521-0.281-0.729-0.489c-0.209-0.209-0.375-0.456-0.488-0.729
	c-0.113-0.271-0.171-0.564-0.171-0.862V22.5H5.999v-9c-0.014-0.234-0.06-0.47-0.135-0.693c-0.075-0.223-0.18-0.437-0.311-0.633
	c-0.131-0.197-0.288-0.377-0.466-0.531C4.91,11.487,4.712,11.355,4.5,11.249V0.111c0-0.01,0-0.02,0-0.029s0-0.017,0-0.026
	s0-0.02,0-0.028c0-0.008,0-0.018,0-0.027V0.111"/>
<rect x="2.745" y="35.94" fill-rule="evenodd" clip-rule="evenodd" fill="#B3B3B3" width="4.32" height="36"/>
<path fill-rule="evenodd" clip-rule="evenodd" fill="#FFFFFF" d="M1.5,22.5v-9c-0.014-0.234-0.06-0.47-0.135-0.693
	c-0.075-0.223-0.18-0.437-0.311-0.633c-0.131-0.197-0.288-0.377-0.465-0.531C0.41,11.487,0.212,11.355,0,11.252v-0.003V2.346
	c0.005,0.797,0.073,1.591,0.205,2.378c0.131,0.785,0.325,1.561,0.58,2.313c0.254,0.756,0.568,1.49,0.939,2.196
	S2.521,10.613,3,11.249h3V22.5h1.125v11.249h-4.5V22.5H1.5"/>
<path fill-rule="evenodd" clip-rule="evenodd" fill="#FFFFFF" d="M9.375,36L9.375,36c-0.295,0-0.588-0.057-0.861-0.17
	c-0.272-0.113-0.521-0.281-0.729-0.489c-0.209-0.209-0.375-0.456-0.488-0.729c-0.113-0.271-0.171-0.564-0.171-0.862h-4.5v0.003
	c0,0.146-0.015,0.293-0.043,0.437c-0.028,0.146-0.071,0.288-0.128,0.423C2.396,34.748,2.327,34.877,2.245,35
	c-0.082,0.122-0.175,0.237-0.28,0.341c-0.104,0.105-0.218,0.199-0.341,0.28c-0.123,0.082-0.253,0.151-0.389,0.209
	c-0.137,0.056-0.278,0.099-0.422,0.127C0.669,35.986,0.522,36,0.375,36H9.375"/>
<path fill-rule="evenodd" clip-rule="evenodd" d="M13.875,36h-4.5c-0.295,0-0.588,0.059-0.861,0.171
	c-0.272,0.113-0.521,0.28-0.729,0.489c-0.209,0.209-0.375,0.456-0.488,0.73c-0.113,0.271-0.171,0.563-0.171,0.861h4.5
	c0-0.298,0.058-0.591,0.171-0.861c0.113-0.274,0.279-0.521,0.488-0.73c0.208-0.209,0.457-0.376,0.729-0.489
	C13.287,36.059,13.579,36,13.875,36"/>
<path fill-rule="evenodd" clip-rule="evenodd" fill="#B3B3B3" d="M7.125,38.252L7.125,38.252c0-0.298,0.058-0.591,0.171-0.861
	c0.113-0.274,0.279-0.521,0.488-0.73c0.208-0.209,0.457-0.376,0.729-0.489C8.787,36.059,9.079,36,9.375,36h-9
	c0.147,0,0.294,0.015,0.439,0.044c0.145,0.028,0.286,0.071,0.422,0.127c0.136,0.058,0.266,0.127,0.389,0.209
	c0.123,0.081,0.237,0.175,0.341,0.28c0.104,0.104,0.198,0.219,0.28,0.341c0.082,0.123,0.151,0.253,0.208,0.39
	c0.057,0.134,0.1,0.275,0.128,0.422c0.029,0.145,0.043,0.29,0.043,0.437v0.003H7.125"/>
<path fill-rule="evenodd" clip-rule="evenodd" d="M49.874,36L49.874,36c-0.295,0-0.588-0.057-0.861-0.17
	c-0.272-0.113-0.521-0.281-0.729-0.489c-0.209-0.209-0.375-0.456-0.488-0.729c-0.113-0.271-0.172-0.564-0.172-0.862V22.5h1.125
	V11.249h6c-0.213,0.106-0.41,0.238-0.588,0.394c-0.178,0.154-0.334,0.334-0.466,0.531c-0.131,0.196-0.235,0.41-0.312,0.633
	c-0.074,0.224-0.12,0.459-0.135,0.693v9h-1.125v11.249c0,0.298,0.059,0.591,0.172,0.862c0.113,0.273,0.279,0.521,0.488,0.729
	c0.208,0.208,0.457,0.376,0.729,0.489c0.273,0.113,0.566,0.17,0.861,0.17H49.874"/>
<path fill-rule="evenodd" clip-rule="evenodd" d="M51.749,11.249L51.749,11.249c0.479-0.636,0.905-1.31,1.276-2.016
	s0.685-1.44,0.939-2.196c0.255-0.753,0.448-1.528,0.579-2.313c0.132-0.787,0.2-1.581,0.205-2.378v8.903H51.749"/>
<rect x="43.064" y="35.94" fill-rule="evenodd" clip-rule="evenodd" width="9.12" height="36"/>
<rect x="43.064" y="35.94" fill-rule="evenodd" clip-rule="evenodd" fill="#B3B3B3" width="4.56" height="36"/>
<path fill-rule="evenodd" clip-rule="evenodd" d="M54.374,36h-4.5c-0.295,0-0.588,0.059-0.861,0.171
	c-0.272,0.113-0.521,0.28-0.729,0.489c-0.209,0.209-0.375,0.456-0.488,0.73c-0.113,0.271-0.172,0.563-0.172,0.861h4.5v-0.003
	c0-0.146,0.015-0.292,0.043-0.437c0.029-0.146,0.072-0.288,0.129-0.422c0.057-0.137,0.126-0.267,0.208-0.39
	c0.081-0.122,0.175-0.237,0.28-0.341c0.104-0.105,0.218-0.199,0.34-0.28c0.123-0.082,0.254-0.151,0.389-0.209
	c0.137-0.056,0.278-0.099,0.423-0.127C54.08,36.015,54.228,36,54.374,36"/>
<path fill-rule="evenodd" clip-rule="evenodd" fill="#B3B3B3" d="M47.624,38.252L47.624,38.252c0-0.298,0.059-0.591,0.172-0.861
	c0.113-0.274,0.279-0.521,0.488-0.73c0.208-0.209,0.456-0.376,0.729-0.489C49.286,36.059,49.579,36,49.874,36h-9
	c0.296,0,0.588,0.059,0.861,0.171c0.273,0.113,0.521,0.28,0.73,0.489s0.374,0.456,0.487,0.73c0.113,0.271,0.171,0.563,0.171,0.861
	H47.624"/>
<path fill-rule="evenodd" clip-rule="evenodd" fill="#FFFFFF" d="M50.249,0v0.111c0-0.01,0-0.02,0-0.029s0-0.017,0-0.026
	s0-0.02,0-0.028C50.249,0.02,50.249,0.01,50.249,0 M40.5,0.111V0c0,0.01,0,0.02,0,0.027c0,0.009,0,0.019,0,0.028s0,0.017,0,0.026
	S40.5,0.102,40.5,0.111 M47.624,33.749L47.624,33.749c0,0.298,0.059,0.591,0.172,0.862c0.113,0.273,0.279,0.521,0.488,0.729
	c0.208,0.208,0.456,0.376,0.729,0.489c0.273,0.113,0.566,0.17,0.861,0.17h-9c0.296,0,0.588-0.057,0.861-0.17s0.521-0.281,0.73-0.489
	c0.209-0.209,0.374-0.456,0.487-0.729c0.113-0.271,0.171-0.564,0.171-0.862V22.5h-1.125v-9c-0.014-0.234-0.059-0.47-0.135-0.693
	c-0.075-0.223-0.18-0.437-0.311-0.633c-0.131-0.197-0.288-0.377-0.466-0.531c-0.178-0.155-0.376-0.287-0.588-0.394V0.111
	c0-0.01,0-0.02,0-0.029s0-0.017,0-0.026s0-0.02,0-0.028c0-0.008,0-0.018,0-0.027v0.111c0.003,0.972,0.067,1.943,0.196,2.908
	c0.129,0.963,0.32,1.918,0.573,2.856c0.253,0.94,0.567,1.862,0.94,2.76c0.373,0.9,0.803,1.771,1.289,2.613h3.751
	c0.486-0.842,0.917-1.713,1.29-2.613c0.373-0.897,0.687-1.819,0.939-2.76c0.253-0.938,0.444-1.894,0.573-2.856
	c0.128-0.965,0.194-1.937,0.196-2.908V0c0,0.01,0,0.02,0,0.027c0,0.009,0,0.019,0,0.028s0,0.017,0,0.026s0,0.02,0,0.029v11.138
	c-0.212,0.106-0.41,0.238-0.588,0.394c-0.178,0.154-0.334,0.334-0.465,0.531c-0.131,0.196-0.236,0.41-0.312,0.633
	c-0.075,0.224-0.12,0.459-0.135,0.693v9h-1.126V33.749"/>
<line fill="none" stroke="#4C4C4C" stroke-width="0.144" stroke-linecap="round" stroke-linejoin="round" stroke-miterlimit="10" x1="31.784" y1="27.061" x2="43.064" y2="41.94"/>
<line fill="none" stroke="#4C4C4C" stroke-width="0.144" stroke-linecap="round" stroke-linejoin="round" stroke-miterlimit="10" x1="27.464" y1="27.061" x2="43.064" y2="47.94"/>
<line fill="none" stroke="#4C4C4C" stroke-width="0.144" stroke-linecap="round" stroke-linejoin="round" stroke-miterlimit="10" x1="22.904" y1="27.061" x2="43.064" y2="53.94"/>
<line fill="none" stroke="#4C4C4C" stroke-width="0.144" stroke-linecap="round" stroke-linejoin="round" stroke-miterlimit="10" x1="18.345" y1="27.061" x2="43.064" y2="59.94"/>
<line fill="none" stroke="#4C4C4C" stroke-width="0.144" stroke-linecap="round" stroke-linejoin="round" stroke-miterlimit="10" x1="16.185" y1="29.94" x2="43.064" y2="65.94"/>
<line fill="none" stroke="#4C4C4C" stroke-width="0.144" stroke-linecap="round" stroke-linejoin="round" stroke-miterlimit="10" x1="13.785" y1="33.061" x2="43.064" y2="71.94"/>
<line fill="none" stroke="#4C4C4C" stroke-width="0.144" stroke-linecap="round" stroke-linejoin="round" stroke-miterlimit="10" x1="12.104" y1="36.66" x2="38.505" y2="71.94"/>
<line fill="none" stroke="#4C4C4C" stroke-width="0.144" stroke-linecap="round" stroke-linejoin="round" stroke-miterlimit="10" x1="34.185" y1="71.94" x2="11.625" y2="41.94"/>
<line fill="none" stroke="#4C4C4C" stroke-width="0.144" stroke-linecap="round" stroke-linejoin="round" stroke-miterlimit="10" x1="29.624" y1="71.94" x2="11.625" y2="47.94"/>
<line fill="none" stroke="#4C4C4C" stroke-width="0.144" stroke-linecap="round" stroke-linejoin="round" stroke-miterlimit="10" x1="11.625" y1="53.94" x2="25.064" y2="71.94"/>
<line fill="none" stroke="#4C4C4C" stroke-width="0.144" stroke-linecap="round" stroke-linejoin="round" stroke-miterlimit="10" x1="11.625" y1="59.94" x2="20.745" y2="71.94"/>
<line fill="none" stroke="#4C4C4C" stroke-width="0.144" stroke-linecap="round" stroke-linejoin="round" stroke-miterlimit="10" x1="16.185" y1="71.94" x2="11.625" y2="65.94"/>
<line fill="none" stroke="#4C4C4C" stroke-width="0.144" stroke-miterlimit="10" x1="27.464" y1="27.061" x2="27.464" y2="71.94"/>
<line fill="none" stroke="#4C4C4C" stroke-width="0.144" stroke-linecap="round" stroke-linejoin="round" stroke-miterlimit="10" x1="27.464" y1="71.461" x2="27.464" y2="71.94"/>
<line fill="none" stroke="#4C4C4C" stroke-width="0.144" stroke-miterlimit="10" x1="16.904" y1="71.94" x2="16.904" y2="28.98"/>
<line fill="none" stroke="#4C4C4C" stroke-width="0.144" stroke-miterlimit="10" x1="22.185" y1="71.94" x2="22.185" y2="27.061"/>
<line fill="none" stroke="#4C4C4C" stroke-width="0.144" stroke-linecap="round" stroke-linejoin="round" stroke-miterlimit="10" x1="22.185" y1="27.541" x2="22.185" y2="27.061"/>
<line fill="none" stroke="#4C4C4C" stroke-width="0.144" stroke-miterlimit="10" x1="37.784" y1="71.94" x2="37.784" y2="28.98"/>
<line fill="none" stroke="#4C4C4C" stroke-width="0.144" stroke-miterlimit="10" x1="32.505" y1="71.94" x2="32.745" y2="27.061"/>
<line fill="none" stroke="#4C4C4C" stroke-width="0.144" stroke-linecap="round" stroke-linejoin="round" stroke-miterlimit="10" x1="32.745" y1="27.541" x2="32.745" y2="27.061"/>
<line fill="none" stroke="#4C4C4C" stroke-width="0.144" stroke-miterlimit="10" x1="24.825" y1="71.94" x2="24.825" y2="27.061"/>
<line fill="none" stroke="#4C4C4C" stroke-width="0.144" stroke-linecap="round" stroke-linejoin="round" stroke-miterlimit="10" x1="24.825" y1="27.541" x2="24.825" y2="27.061"/>
<line fill="none" stroke="#4C4C4C" stroke-width="0.144" stroke-miterlimit="10" x1="19.544" y1="71.94" x2="19.544" y2="27.061"/>
<line fill="none" stroke="#4C4C4C" stroke-width="0.144" stroke-linecap="round" stroke-linejoin="round" stroke-miterlimit="10" x1="19.544" y1="27.541" x2="19.544" y2="27.061"/>
<line fill="none" stroke="#4C4C4C" stroke-width="0.144" stroke-miterlimit="10" x1="14.265" y1="71.94" x2="14.265" y2="32.58"/>
<line fill="none" stroke="#4C4C4C" stroke-width="0.144" stroke-miterlimit="10" x1="30.104" y1="71.94" x2="30.104" y2="27.061"/>
<line fill="none" stroke="#4C4C4C" stroke-width="0.144" stroke-linecap="round" stroke-linejoin="round" stroke-miterlimit="10" x1="30.104" y1="27.541" x2="30.104" y2="27.061"/>
<line fill="none" stroke="#4C4C4C" stroke-width="0.144" stroke-miterlimit="10" x1="35.145" y1="71.94" x2="35.145" y2="27.061"/>
<line fill="none" stroke="#4C4C4C" stroke-width="0.144" stroke-linecap="round" stroke-linejoin="round" stroke-miterlimit="10" x1="35.145" y1="27.541" x2="35.145" y2="27.061"/>
<line fill="none" stroke="#4C4C4C" stroke-width="0.144" stroke-miterlimit="10" x1="40.425" y1="71.94" x2="40.425" y2="32.58"/>
</svg>
