<?xml version="1.0" encoding="utf-8"?>
<!-- Generator: Adobe Illustrator 15.0.0, SVG Export Plug-In . SVG Version: 6.00 Build 0)  -->
<!DOCTYPE svg PUBLIC "-//W3C//DTD SVG 1.1//EN" "http://www.w3.org/Graphics/SVG/1.1/DTD/svg11.dtd">
<svg version="1.1" id="Layer_1" xmlns="http://www.w3.org/2000/svg" xmlns:xlink="http://www.w3.org/1999/xlink" x="0px" y="0px"
	 width="128.88px" height="128.88px" viewBox="0 0 128.88 128.88" enable-background="new 0 0 128.88 128.88" xml:space="preserve">
<g>
	<defs>
		<path id="SVGID_1_" d="M128.88,64.44C128.88,29.089,99.79,0,64.44,0S0,29.089,0,64.44s29.09,64.44,64.44,64.44
			S128.88,99.791,128.88,64.44"/>
	</defs>
	<clipPath id="SVGID_2_">
		<use xlink:href="#SVGID_1_"  overflow="visible"/>
	</clipPath>
	<path clip-path="url(#SVGID_2_)" fill-rule="evenodd" clip-rule="evenodd" fill="#FFFFFF" d="M156,64.44
		c0-50.229-41.332-91.56-91.56-91.56c-50.227,0-91.56,41.332-91.56,91.56c0,50.228,41.333,91.56,91.56,91.56
		C114.667,156,156,114.667,156,64.44"/>
	<path clip-path="url(#SVGID_2_)" fill-rule="evenodd" clip-rule="evenodd" fill="#FFF7F7" d="M129.839,64.44
		c0-35.877-29.521-65.4-65.399-65.4c-35.877,0-65.4,29.522-65.4,65.4c0,35.878,29.522,65.399,65.4,65.399
		C100.318,129.839,129.839,100.318,129.839,64.44"/>
	<path clip-path="url(#SVGID_2_)" fill-rule="evenodd" clip-rule="evenodd" fill="#FFEEEE" d="M129.36,64.44
		c0-35.614-29.306-64.92-64.92-64.92c-35.613,0-64.92,29.306-64.92,64.92s29.307,64.92,64.92,64.92
		C100.054,129.36,129.36,100.054,129.36,64.44"/>
	<path clip-path="url(#SVGID_2_)" fill-rule="evenodd" clip-rule="evenodd" fill="#FFE6E6" d="M128.88,64.44
		C128.88,29.089,99.79,0,64.44,0S0,29.089,0,64.44s29.09,64.44,64.44,64.44S128.88,99.791,128.88,64.44"/>
	<path clip-path="url(#SVGID_2_)" fill-rule="evenodd" clip-rule="evenodd" fill="#FFDDDD" d="M128.4,64.44
		c0-35.087-28.872-63.96-63.96-63.96S0.48,29.353,0.48,64.44c0,35.087,28.872,63.96,63.96,63.96S128.4,99.527,128.4,64.44"/>
	<path clip-path="url(#SVGID_2_)" fill-rule="evenodd" clip-rule="evenodd" fill="#FFD5D5" d="M127.919,64.44
		c0-34.824-28.655-63.48-63.479-63.48c-34.824,0-63.48,28.656-63.48,63.48s28.656,63.479,63.48,63.479
		C99.264,127.919,127.919,99.264,127.919,64.44"/>
	<path clip-path="url(#SVGID_2_)" fill-rule="evenodd" clip-rule="evenodd" fill="#FFCCCC" d="M127.44,64.44
		c0-34.561-28.44-63-63-63c-34.56,0-63,28.439-63,63s28.44,63,63,63C99,127.44,127.44,99,127.44,64.44"/>
	<path clip-path="url(#SVGID_2_)" fill-rule="evenodd" clip-rule="evenodd" fill="#FFC4C4" d="M126.96,64.44
		c0-34.297-28.223-62.52-62.521-62.52c-34.298,0-62.52,28.223-62.52,62.52c0,34.298,28.222,62.521,62.52,62.521
		C98.738,126.96,126.96,98.738,126.96,64.44"/>
	<path clip-path="url(#SVGID_2_)" fill-rule="evenodd" clip-rule="evenodd" fill="#FFBBBB" d="M126.48,64.44
		c0-34.034-28.006-62.04-62.04-62.04S2.4,30.406,2.4,64.44s28.006,62.04,62.04,62.04S126.48,98.474,126.48,64.44"/>
	<path clip-path="url(#SVGID_2_)" fill-rule="evenodd" clip-rule="evenodd" fill="#FFB3B3" d="M126,64.44
		C126,30.669,98.21,2.88,64.44,2.88S2.88,30.669,2.88,64.44C2.88,98.21,30.669,126,64.44,126S126,98.21,126,64.44"/>
	<path clip-path="url(#SVGID_2_)" fill-rule="evenodd" clip-rule="evenodd" fill="#FFAAAA" d="M125.52,64.44
		c0-33.508-27.573-61.08-61.08-61.08c-33.506,0-61.08,27.572-61.08,61.08s27.574,61.08,61.08,61.08
		C97.947,125.52,125.52,97.948,125.52,64.44"/>
	<path clip-path="url(#SVGID_2_)" fill-rule="evenodd" clip-rule="evenodd" fill="#FFA2A2" d="M125.041,64.44
		c0-33.244-27.355-60.6-60.601-60.6c-33.245,0-60.6,27.356-60.6,60.6s27.355,60.601,60.6,60.601
		C97.685,125.041,125.041,97.684,125.041,64.44"/>
	<path clip-path="url(#SVGID_2_)" fill-rule="evenodd" clip-rule="evenodd" fill="#FF9999" d="M124.56,64.44
		c0-32.98-27.139-60.12-60.12-60.12c-32.98,0-60.12,27.14-60.12,60.12c0,32.981,27.14,60.12,60.12,60.12
		C97.421,124.56,124.56,97.421,124.56,64.44"/>
	<path clip-path="url(#SVGID_2_)" fill-rule="evenodd" clip-rule="evenodd" fill="#FF9191" d="M124.08,64.44
		c0-32.718-26.923-59.64-59.64-59.64S4.8,31.722,4.8,64.44s26.923,59.64,59.64,59.64S124.08,97.158,124.08,64.44"/>
	<path clip-path="url(#SVGID_2_)" fill-rule="evenodd" clip-rule="evenodd" fill="#FF8989" d="M123.6,64.44
		c0-32.454-26.705-59.16-59.16-59.16S5.28,31.986,5.28,64.44s26.705,59.16,59.16,59.16S123.6,96.894,123.6,64.44"/>
	<path clip-path="url(#SVGID_2_)" fill-rule="evenodd" clip-rule="evenodd" fill="#FF8080" d="M123.121,64.44
		c0-32.191-26.489-58.68-58.681-58.68c-32.191,0-58.68,26.489-58.68,58.68c0,32.19,26.489,58.681,58.68,58.681
		C96.631,123.121,123.121,96.63,123.121,64.44"/>
	<path clip-path="url(#SVGID_2_)" fill-rule="evenodd" clip-rule="evenodd" fill="#FF7878" d="M122.64,64.44
		c0-31.928-26.273-58.2-58.2-58.2c-31.927,0-58.2,26.272-58.2,58.2s26.272,58.2,58.2,58.2C96.367,122.64,122.64,96.368,122.64,64.44
		"/>
	<path clip-path="url(#SVGID_2_)" fill-rule="evenodd" clip-rule="evenodd" fill="#FF6F6F" d="M122.16,64.44
		c0-31.664-26.057-57.72-57.72-57.72S6.72,32.776,6.72,64.44s26.057,57.72,57.72,57.72S122.16,96.104,122.16,64.44"/>
	<path clip-path="url(#SVGID_2_)" fill-rule="evenodd" clip-rule="evenodd" fill="#FF6767" d="M121.68,64.44
		c0-31.401-25.839-57.24-57.24-57.24S7.2,33.039,7.2,64.44c0,31.401,25.838,57.24,57.24,57.24S121.68,95.841,121.68,64.44"/>
	<path clip-path="url(#SVGID_2_)" fill-rule="evenodd" clip-rule="evenodd" fill="#FF5F5F" d="M121.201,64.44
		c0-31.138-25.623-56.76-56.761-56.76S7.68,33.302,7.68,64.44s25.622,56.76,56.76,56.76S121.201,95.578,121.201,64.44"/>
	<path clip-path="url(#SVGID_2_)" fill-rule="evenodd" clip-rule="evenodd" fill="#FF5656" d="M120.72,64.44
		c0-30.874-25.406-56.28-56.28-56.28c-30.874,0-56.28,25.406-56.28,56.28s25.406,56.28,56.28,56.28
		C95.314,120.72,120.72,95.314,120.72,64.44"/>
	<path clip-path="url(#SVGID_2_)" fill-rule="evenodd" clip-rule="evenodd" fill="#FF4E4E" d="M120.24,64.44
		c0-30.611-25.188-55.8-55.8-55.8c-30.612,0-55.8,25.189-55.8,55.8c0,30.611,25.188,55.8,55.8,55.8
		C95.052,120.24,120.24,95.051,120.24,64.44"/>
	<path clip-path="url(#SVGID_2_)" fill-rule="evenodd" clip-rule="evenodd" fill="#FF4545" d="M119.76,64.44
		c0-30.348-24.972-55.32-55.32-55.32c-30.348,0-55.32,24.972-55.32,55.32s24.972,55.32,55.32,55.32
		C94.789,119.76,119.76,94.788,119.76,64.44"/>
	<path clip-path="url(#SVGID_2_)" fill-rule="evenodd" clip-rule="evenodd" fill="#FF3D3D" d="M119.28,64.44
		c0-30.084-24.756-54.84-54.84-54.84S9.6,34.356,9.6,64.44s24.756,54.84,54.84,54.84S119.28,94.524,119.28,64.44"/>
	<path clip-path="url(#SVGID_2_)" fill-rule="evenodd" clip-rule="evenodd" fill="#FF3535" d="M118.8,64.44
		c0-29.821-24.54-54.36-54.36-54.36c-29.82,0-54.36,24.539-54.36,54.36c0,29.821,24.54,54.36,54.36,54.36
		C94.26,118.8,118.8,94.261,118.8,64.44"/>
	<path clip-path="url(#SVGID_2_)" fill-rule="evenodd" clip-rule="evenodd" fill="#FF2C2C" d="M118.32,64.44
		c0-29.558-24.321-53.88-53.88-53.88c-29.558,0-53.88,24.322-53.88,53.88s24.322,53.88,53.88,53.88
		C93.999,118.32,118.32,93.998,118.32,64.44"/>
	<path clip-path="url(#SVGID_2_)" fill-rule="evenodd" clip-rule="evenodd" fill="#FF2424" d="M117.84,64.44
		c0-29.294-24.106-53.4-53.4-53.4c-29.294,0-53.4,24.105-53.4,53.4c0,29.294,24.105,53.399,53.4,53.399
		C93.734,117.839,117.84,93.734,117.84,64.44"/>
	<path clip-path="url(#SVGID_2_)" fill-rule="evenodd" clip-rule="evenodd" fill="#FF1B1B" d="M117.36,64.44
		c0-29.031-23.89-52.92-52.92-52.92S11.52,35.409,11.52,64.44s23.89,52.92,52.92,52.92S117.36,93.471,117.36,64.44"/>
	<path clip-path="url(#SVGID_2_)" fill-rule="evenodd" clip-rule="evenodd" fill="#FF1313" d="M116.88,64.44
		C116.88,35.672,93.208,12,64.44,12S12,35.672,12,64.44s23.671,52.44,52.44,52.44S116.88,93.208,116.88,64.44"/>
	<path clip-path="url(#SVGID_2_)" fill-rule="evenodd" clip-rule="evenodd" fill="#FF0B0B" d="M116.4,64.44
		c0-28.504-23.455-51.96-51.96-51.96S12.48,35.936,12.48,64.44c0,28.505,23.455,51.96,51.96,51.96S116.4,92.945,116.4,64.44"/>
	<path clip-path="url(#SVGID_2_)" fill-rule="evenodd" clip-rule="evenodd" fill="#FF0202" d="M115.919,64.44
		c0-28.241-23.238-51.48-51.479-51.48c-28.241,0-51.48,23.239-51.48,51.48s23.239,51.479,51.48,51.479
		C92.681,115.919,115.919,92.681,115.919,64.44"/>
	<path clip-path="url(#SVGID_2_)" fill-rule="evenodd" clip-rule="evenodd" fill="#FF0000" d="M115.44,64.44
		c0-27.978-23.022-51-51-51c-27.977,0-51,23.022-51,51s23.023,51,51,51C92.417,115.44,115.44,92.417,115.44,64.44"/>
</g>
</svg>
