<?xml version="1.0" encoding="utf-8"?>
<!-- Generator: Adobe Illustrator 15.0.0, SVG Export Plug-In . SVG Version: 6.00 Build 0)  -->
<!DOCTYPE svg PUBLIC "-//W3C//DTD SVG 1.1//EN" "http://www.w3.org/Graphics/SVG/1.1/DTD/svg11.dtd">
<svg version="1.1" id="Layer_1" xmlns="http://www.w3.org/2000/svg" xmlns:xlink="http://www.w3.org/1999/xlink" x="0px" y="0px"
	 width="107.52px" height="107.76px" viewBox="0 0 107.52 107.76" enable-background="new 0 0 107.52 107.76" xml:space="preserve">
<g>
	<defs>
		<path id="SVGID_1_" d="M107.52,53.88C107.52,24.322,83.252,0,53.76,0S0,24.322,0,53.88s24.268,53.88,53.76,53.88
			S107.52,83.438,107.52,53.88"/>
	</defs>
	<clipPath id="SVGID_2_">
		<use xlink:href="#SVGID_1_"  overflow="visible"/>
	</clipPath>
	<path clip-path="url(#SVGID_2_)" fill-rule="evenodd" clip-rule="evenodd" fill="#FF0000" d="M130.321,53.88
		c0-41.934-34.561-76.44-76.561-76.44c-42,0-76.56,34.506-76.56,76.44s34.561,76.44,76.56,76.44
		C95.76,130.32,130.321,95.813,130.321,53.88"/>
	<path clip-path="url(#SVGID_2_)" fill-rule="evenodd" clip-rule="evenodd" fill="#FB0000" d="M98.64,53.88
		c0-24.686-20.313-45-45-45c-24.686,0-45,20.314-45,45c0,24.687,20.314,45,45,45C78.327,98.88,98.64,78.566,98.64,53.88"/>
	<path clip-path="url(#SVGID_2_)" fill-rule="evenodd" clip-rule="evenodd" fill="#F70000" d="M98.161,53.88
		c0-24.423-20.043-44.52-44.4-44.52S9.36,29.457,9.36,53.88S29.403,98.4,53.76,98.4S98.161,78.303,98.161,53.88"/>
	<path clip-path="url(#SVGID_2_)" fill-rule="evenodd" clip-rule="evenodd" fill="#F20000" d="M97.68,53.88
		c0-24.16-19.881-44.04-44.04-44.04C29.48,9.84,9.6,29.72,9.6,53.88c0,24.159,19.88,44.04,44.04,44.04
		C77.799,97.92,97.68,78.039,97.68,53.88"/>
	<path clip-path="url(#SVGID_2_)" fill-rule="evenodd" clip-rule="evenodd" fill="#EE0000" d="M97.2,54
		c0-23.831-19.609-43.44-43.439-43.44C29.93,10.56,10.32,30.169,10.32,54c0,23.83,19.609,43.439,43.44,43.439
		C77.59,97.439,97.2,77.83,97.2,54"/>
	<path clip-path="url(#SVGID_2_)" fill-rule="evenodd" clip-rule="evenodd" fill="#EA0000" d="M96.72,53.88
		c0-23.633-19.394-43.08-42.96-43.08c-23.567,0-42.96,19.447-42.96,43.08s19.393,43.08,42.96,43.08
		C77.327,96.96,96.72,77.513,96.72,53.88"/>
	<path clip-path="url(#SVGID_2_)" fill-rule="evenodd" clip-rule="evenodd" fill="#E60000" d="M96.241,53.88
		c0-23.37-19.177-42.6-42.48-42.6s-42.48,19.23-42.48,42.6c0,23.37,19.176,42.601,42.48,42.601S96.241,77.25,96.241,53.88"/>
	<path clip-path="url(#SVGID_2_)" fill-rule="evenodd" clip-rule="evenodd" fill="#E20000" d="M95.76,53.88
		c0-23.106-18.959-42.12-42-42.12c-23.041,0-42,19.014-42,42.12S30.72,96,53.76,96C76.801,96,95.76,76.986,95.76,53.88"/>
	<path clip-path="url(#SVGID_2_)" fill-rule="evenodd" clip-rule="evenodd" fill="#DD0000" d="M95.28,53.88
		c0-22.843-18.797-41.64-41.64-41.64S12,31.037,12,53.88s18.797,41.64,41.64,41.64S95.28,76.723,95.28,53.88"/>
	<path clip-path="url(#SVGID_2_)" fill-rule="evenodd" clip-rule="evenodd" fill="#D90000" d="M94.8,54
		c0-22.514-18.526-41.04-41.04-41.04c-22.514,0-41.04,18.526-41.04,41.04c0,22.514,18.526,41.04,41.04,41.04
		C76.274,95.04,94.8,76.514,94.8,54"/>
	<path clip-path="url(#SVGID_2_)" fill-rule="evenodd" clip-rule="evenodd" fill="#D50000" d="M94.321,54
		c0-22.251-18.311-40.56-40.561-40.56C31.509,13.44,13.2,31.749,13.2,54c0,22.25,18.309,40.561,40.56,40.561
		C76.01,94.561,94.321,76.25,94.321,54"/>
	<path clip-path="url(#SVGID_2_)" fill-rule="evenodd" clip-rule="evenodd" fill="#D10000" d="M93.84,53.88
		c0-22.053-18.094-40.2-40.08-40.2c-21.987,0-40.08,18.147-40.08,40.2c0,22.054,18.093,40.2,40.08,40.2
		C75.747,94.08,93.84,75.934,93.84,53.88"/>
	<path clip-path="url(#SVGID_2_)" fill-rule="evenodd" clip-rule="evenodd" fill="#CD0000" d="M93.36,53.88
		c0-21.79-17.876-39.72-39.6-39.72c-21.724,0-39.6,17.93-39.6,39.72S32.036,93.6,53.76,93.6C75.484,93.6,93.36,75.67,93.36,53.88"/>
	<path clip-path="url(#SVGID_2_)" fill-rule="evenodd" clip-rule="evenodd" fill="#C80000" d="M92.879,53.88
		c0-21.526-17.658-39.24-39.119-39.24S14.64,32.354,14.64,53.88s17.659,39.24,39.12,39.24S92.879,75.406,92.879,53.88"/>
	<path clip-path="url(#SVGID_2_)" fill-rule="evenodd" clip-rule="evenodd" fill="#C40000" d="M92.4,54
		c0-21.197-17.442-38.64-38.64-38.64S15.12,32.803,15.12,54s17.443,38.64,38.64,38.64S92.4,75.197,92.4,54"/>
	<path clip-path="url(#SVGID_2_)" fill-rule="evenodd" clip-rule="evenodd" fill="#C00000" d="M91.92,54
		c0-20.934-17.227-38.16-38.16-38.16C32.826,15.84,15.6,33.066,15.6,54c0,20.934,17.226,38.16,38.16,38.16
		C74.694,92.16,91.92,74.934,91.92,54"/>
	<path clip-path="url(#SVGID_2_)" fill-rule="evenodd" clip-rule="evenodd" fill="#BC0000" d="M91.44,53.88
		c0-20.736-17.01-37.8-37.68-37.8c-20.671,0-37.68,17.063-37.68,37.8s17.009,37.8,37.68,37.8C74.43,91.68,91.44,74.616,91.44,53.88"
		/>
	<path clip-path="url(#SVGID_2_)" fill-rule="evenodd" clip-rule="evenodd" fill="#B80000" d="M90.959,53.88
		c0-20.473-16.792-37.32-37.199-37.32s-37.2,16.847-37.2,37.32c0,20.474,16.793,37.32,37.2,37.32S90.959,74.354,90.959,53.88"/>
	<path clip-path="url(#SVGID_2_)" fill-rule="evenodd" clip-rule="evenodd" fill="#B40000" d="M90.48,53.88
		c0-20.21-16.576-36.84-36.72-36.84c-20.144,0-36.72,16.63-36.72,36.84s16.576,36.84,36.72,36.84
		C73.904,90.72,90.48,74.09,90.48,53.88"/>
	<path clip-path="url(#SVGID_2_)" fill-rule="evenodd" clip-rule="evenodd" fill="#AF0000" d="M90,53.88
		c0-19.946-16.414-36.36-36.36-36.36S17.28,33.934,17.28,53.88s16.414,36.36,36.36,36.36S90,73.826,90,53.88"/>
	<path clip-path="url(#SVGID_2_)" fill-rule="evenodd" clip-rule="evenodd" fill="#AB0000" d="M89.52,54
		c0-19.617-16.143-35.76-35.76-35.76C34.143,18.24,18,34.383,18,54s16.143,35.76,35.76,35.76C73.377,89.76,89.52,73.617,89.52,54"/>
	<path clip-path="url(#SVGID_2_)" fill-rule="evenodd" clip-rule="evenodd" fill="#A70000" d="M89.04,54
		c0-19.354-15.926-35.28-35.279-35.28c-19.354,0-35.28,15.926-35.28,35.28c0,19.354,15.926,35.279,35.28,35.279
		C73.114,89.279,89.04,73.354,89.04,54"/>
	<path clip-path="url(#SVGID_2_)" fill-rule="evenodd" clip-rule="evenodd" fill="#A30000" d="M88.56,53.88
		c0-19.156-15.709-34.92-34.8-34.92s-34.8,15.764-34.8,34.92c0,19.157,15.709,34.92,34.8,34.92S88.56,73.037,88.56,53.88"/>
	<path clip-path="url(#SVGID_2_)" fill-rule="evenodd" clip-rule="evenodd" fill="#9F0000" d="M88.081,53.88
		c0-18.893-15.493-34.44-34.32-34.44c-18.828,0-34.32,15.547-34.32,34.44c0,18.894,15.493,34.44,34.32,34.44
		C72.587,88.32,88.081,72.773,88.081,53.88"/>
	<path clip-path="url(#SVGID_2_)" fill-rule="evenodd" clip-rule="evenodd" fill="#9A0000" d="M87.6,53.88
		c0-18.63-15.275-33.96-33.84-33.96c-18.564,0-33.84,15.33-33.84,33.96s15.276,33.96,33.84,33.96
		C72.325,87.84,87.6,72.51,87.6,53.88"/>
	<path clip-path="url(#SVGID_2_)" fill-rule="evenodd" clip-rule="evenodd" fill="#960000" d="M87.12,54
		c0-18.301-15.059-33.36-33.359-33.36S20.4,35.699,20.4,54s15.06,33.359,33.36,33.359S87.12,72.301,87.12,54"/>
	<path clip-path="url(#SVGID_2_)" fill-rule="evenodd" clip-rule="evenodd" fill="#920000" d="M86.64,54
		c0-18.038-14.843-32.88-32.88-32.88c-18.038,0-32.88,14.842-32.88,32.88c0,18.037,14.843,32.88,32.88,32.88
		C71.797,86.88,86.64,72.037,86.64,54"/>
	<path clip-path="url(#SVGID_2_)" fill-rule="evenodd" clip-rule="evenodd" fill="#8E0000" d="M86.161,53.88
		c0-17.84-14.627-32.52-32.4-32.52c-17.774,0-32.4,14.68-32.4,32.52S35.986,86.4,53.76,86.4C71.534,86.4,86.161,71.72,86.161,53.88"
		/>
	<path clip-path="url(#SVGID_2_)" fill-rule="evenodd" clip-rule="evenodd" fill="#8A0000" d="M85.68,53.88
		c0-17.577-14.409-32.04-31.92-32.04c-17.511,0-31.92,14.463-31.92,32.04c0,17.577,14.409,32.04,31.92,32.04
		C71.271,85.92,85.68,71.457,85.68,53.88"/>
	<path clip-path="url(#SVGID_2_)" fill-rule="evenodd" clip-rule="evenodd" fill="#850000" d="M85.2,53.88
		c0-17.313-14.192-31.56-31.439-31.56c-17.248,0-31.44,14.247-31.44,31.56s14.192,31.56,31.44,31.56
		C71.007,85.439,85.2,71.193,85.2,53.88"/>
	<path clip-path="url(#SVGID_2_)" fill-rule="evenodd" clip-rule="evenodd" fill="#810000" d="M84.72,54
		c0-16.984-13.976-30.96-30.96-30.96S22.8,37.016,22.8,54s13.976,30.96,30.96,30.96S84.72,70.984,84.72,54"/>
	<path clip-path="url(#SVGID_2_)" fill-rule="evenodd" clip-rule="evenodd" fill="#7D0000" d="M84.241,54
		c0-16.721-13.76-30.48-30.48-30.48c-16.721,0-30.48,13.759-30.48,30.48s13.759,30.48,30.48,30.48
		C70.481,84.48,84.241,70.721,84.241,54"/>
	<path clip-path="url(#SVGID_2_)" fill-rule="evenodd" clip-rule="evenodd" fill="#790000" d="M83.76,53.88
		c0-16.523-13.543-30.12-30-30.12c-16.458,0-30,13.597-30,30.12S37.303,84,53.76,84C70.217,84,83.76,70.403,83.76,53.88"/>
	<path clip-path="url(#SVGID_2_)" fill-rule="evenodd" clip-rule="evenodd" fill="#750000" d="M83.28,53.88
		c0-16.26-13.326-29.64-29.52-29.64c-16.194,0-29.52,13.38-29.52,29.64s13.326,29.64,29.52,29.64
		C69.954,83.52,83.28,70.14,83.28,53.88"/>
	<path clip-path="url(#SVGID_2_)" fill-rule="evenodd" clip-rule="evenodd" fill="#700000" d="M82.8,53.88
		c0-15.997-13.109-29.16-29.04-29.16c-15.931,0-29.04,13.164-29.04,29.16c0,15.997,13.109,29.16,29.04,29.16
		C69.691,83.04,82.8,69.877,82.8,53.88"/>
	<path clip-path="url(#SVGID_2_)" fill-rule="evenodd" clip-rule="evenodd" fill="#6C0000" d="M82.321,54
		c0-15.667-12.893-28.56-28.561-28.56C38.093,25.44,25.2,38.333,25.2,54c0,15.668,12.893,28.561,28.56,28.561
		C69.428,82.561,82.321,69.668,82.321,54"/>
	<path clip-path="url(#SVGID_2_)" fill-rule="evenodd" clip-rule="evenodd" fill="#680000" d="M81.84,54
		c0-15.404-12.676-28.08-28.08-28.08S25.68,38.596,25.68,54s12.676,28.08,28.08,28.08S81.84,69.404,81.84,54"/>
	<path clip-path="url(#SVGID_2_)" fill-rule="evenodd" clip-rule="evenodd" fill="#640000" d="M81.36,53.88
		c0-15.207-12.459-27.72-27.6-27.72c-15.141,0-27.6,12.513-27.6,27.72c0,15.206,12.459,27.72,27.6,27.72
		C68.901,81.6,81.36,69.086,81.36,53.88"/>
	<path clip-path="url(#SVGID_2_)" fill-rule="evenodd" clip-rule="evenodd" fill="#5F0000" d="M80.879,53.88
		c0-14.943-12.242-27.24-27.119-27.24c-14.878,0-27.12,12.297-27.12,27.24s12.242,27.24,27.12,27.24
		C68.637,81.12,80.879,68.823,80.879,53.88"/>
	<path clip-path="url(#SVGID_2_)" fill-rule="evenodd" clip-rule="evenodd" fill="#5B0000" d="M80.4,53.88
		c0-14.549-12.025-26.52-26.64-26.52S27.12,39.331,27.12,53.88S39.146,80.4,53.76,80.4S80.4,68.429,80.4,53.88"/>
	<path clip-path="url(#SVGID_2_)" fill-rule="evenodd" clip-rule="evenodd" fill="#570000" d="M79.92,54
		c0-14.351-11.809-26.16-26.16-26.16C39.409,27.84,27.6,39.649,27.6,54c0,14.352,11.809,26.16,26.16,26.16
		C68.112,80.16,79.92,68.352,79.92,54"/>
	<path clip-path="url(#SVGID_2_)" fill-rule="evenodd" clip-rule="evenodd" fill="#530000" d="M79.44,54
		c0-14.088-11.592-25.68-25.68-25.68S28.08,39.912,28.08,54s11.592,25.68,25.68,25.68S79.44,68.088,79.44,54"/>
	<path clip-path="url(#SVGID_2_)" fill-rule="evenodd" clip-rule="evenodd" fill="#4F0000" d="M78.959,53.88
		c0-13.89-11.375-25.32-25.199-25.32s-25.2,11.43-25.2,25.32c0,13.89,11.376,25.32,25.2,25.32S78.959,67.77,78.959,53.88"/>
	<path clip-path="url(#SVGID_2_)" fill-rule="evenodd" clip-rule="evenodd" fill="#4A0000" d="M78.48,53.88
		c0-13.627-11.159-24.84-24.72-24.84c-13.561,0-24.72,11.213-24.72,24.84s11.159,24.84,24.72,24.84
		C67.321,78.72,78.48,67.507,78.48,53.88"/>
	<path clip-path="url(#SVGID_2_)" fill-rule="evenodd" clip-rule="evenodd" fill="#460000" d="M78,53.88
		c0-13.232-10.943-24.12-24.24-24.12c-13.298,0-24.24,10.888-24.24,24.12C29.52,67.111,40.462,78,53.76,78
		C67.057,78,78,67.111,78,53.88"/>
	<path clip-path="url(#SVGID_2_)" fill-rule="evenodd" clip-rule="evenodd" fill="#420000" d="M77.52,54
		c0-13.034-10.726-23.76-23.76-23.76C40.726,30.24,30,40.966,30,54s10.726,23.76,23.76,23.76C66.794,77.76,77.52,67.034,77.52,54"/>
	<path clip-path="url(#SVGID_2_)" fill-rule="evenodd" clip-rule="evenodd" fill="#3E0000" d="M77.04,53.88
		c0-12.837-10.508-23.4-23.279-23.4s-23.28,10.563-23.28,23.4s10.509,23.399,23.28,23.399S77.04,66.717,77.04,53.88"/>
	<path clip-path="url(#SVGID_2_)" fill-rule="evenodd" clip-rule="evenodd" fill="#390000" d="M76.56,53.88
		c0-12.574-10.292-22.92-22.8-22.92s-22.8,10.346-22.8,22.92c0,12.573,10.292,22.92,22.8,22.92S76.56,66.453,76.56,53.88"/>
	<path clip-path="url(#SVGID_2_)" fill-rule="evenodd" clip-rule="evenodd" fill="#350000" d="M76.081,53.88
		c0-12.179-10.076-22.2-22.32-22.2c-12.245,0-22.32,10.021-22.32,22.2s10.076,22.2,22.32,22.2
		C66.004,76.08,76.081,66.059,76.081,53.88"/>
	<path clip-path="url(#SVGID_2_)" fill-rule="evenodd" clip-rule="evenodd" fill="#310000" d="M75.6,54
		c0-11.981-9.859-21.84-21.84-21.84c-11.981,0-21.84,9.859-21.84,21.84c0,11.98,9.859,21.84,21.84,21.84
		C65.741,75.84,75.6,65.98,75.6,54"/>
	<path clip-path="url(#SVGID_2_)" fill-rule="evenodd" clip-rule="evenodd" fill="#2D0000" d="M75.12,54
		c0-11.718-9.642-21.36-21.359-21.36S32.4,42.282,32.4,54s9.643,21.359,21.36,21.359S75.12,65.718,75.12,54"/>
	<path clip-path="url(#SVGID_2_)" fill-rule="evenodd" clip-rule="evenodd" fill="#280000" d="M74.64,53.88
		c0-11.521-9.426-21-20.88-21c-11.455,0-20.88,9.479-20.88,21s9.426,21,20.88,21C65.214,74.88,74.64,65.4,74.64,53.88"/>
	<path clip-path="url(#SVGID_2_)" fill-rule="evenodd" clip-rule="evenodd" fill="#240000" d="M74.161,53.88
		c0-11.125-9.209-20.28-20.4-20.28s-20.4,9.155-20.4,20.28s9.209,20.28,20.4,20.28S74.161,65.005,74.161,53.88"/>
	<path clip-path="url(#SVGID_2_)" fill-rule="evenodd" clip-rule="evenodd" fill="#200000" d="M73.68,53.88
		c0-10.862-8.992-19.8-19.92-19.8s-19.92,8.938-19.92,19.8c0,10.862,8.992,19.8,19.92,19.8S73.68,64.742,73.68,53.88"/>
	<path clip-path="url(#SVGID_2_)" fill-rule="evenodd" clip-rule="evenodd" fill="#1C0000" d="M73.2,54
		c0-10.665-8.775-19.44-19.439-19.44c-10.665,0-19.44,8.775-19.44,19.44c0,10.664,8.775,19.439,19.44,19.439
		C64.424,73.439,73.2,64.664,73.2,54"/>
	<path clip-path="url(#SVGID_2_)" fill-rule="evenodd" clip-rule="evenodd" fill="#180000" d="M72.72,54
		c0-10.401-8.56-18.96-18.96-18.96C43.359,35.04,34.8,43.599,34.8,54c0,10.4,8.559,18.96,18.96,18.96
		C64.161,72.96,72.72,64.4,72.72,54"/>
	<path clip-path="url(#SVGID_2_)" fill-rule="evenodd" clip-rule="evenodd" fill="#130000" d="M72.241,53.88
		c0-10.204-8.343-18.6-18.48-18.6c-10.138,0-18.48,8.396-18.48,18.6c0,10.204,8.342,18.601,18.48,18.601
		C63.898,72.48,72.241,64.084,72.241,53.88"/>
	<path clip-path="url(#SVGID_2_)" fill-rule="evenodd" clip-rule="evenodd" fill="#0F0000" d="M71.76,53.88
		c0-9.809-8.125-17.88-18-17.88c-9.875,0-18,8.071-18,17.88s8.125,17.88,18,17.88C63.635,71.76,71.76,63.688,71.76,53.88"/>
	<path clip-path="url(#SVGID_2_)" fill-rule="evenodd" clip-rule="evenodd" fill="#0B0000" d="M71.28,53.88
		c0-9.545-7.908-17.4-17.52-17.4s-17.52,7.854-17.52,17.4c0,9.546,7.909,17.399,17.52,17.399S71.28,63.426,71.28,53.88"/>
	<path clip-path="url(#SVGID_2_)" fill-rule="evenodd" clip-rule="evenodd" fill="#070000" d="M70.8,54
		c0-9.348-7.692-17.04-17.04-17.04c-9.348,0-17.04,7.692-17.04,17.04s7.692,17.04,17.04,17.04C63.108,71.04,70.8,63.348,70.8,54"/>
	<path clip-path="url(#SVGID_2_)" fill-rule="evenodd" clip-rule="evenodd" fill="#020000" d="M70.321,53.88
		c0-9.15-7.477-16.68-16.561-16.68c-9.084,0-16.56,7.529-16.56,16.68s7.476,16.681,16.56,16.681
		C62.844,70.561,70.321,63.03,70.321,53.88"/>
	<path clip-path="url(#SVGID_2_)" fill-rule="evenodd" clip-rule="evenodd" d="M69.84,53.88c0-8.755-7.259-15.96-16.08-15.96
		s-16.08,7.205-16.08,15.96c0,8.755,7.259,15.96,16.08,15.96S69.84,62.635,69.84,53.88"/>
</g>
</svg>
