<?xml version="1.0" encoding="utf-8"?>
<!-- Generator: Adobe Illustrator 15.0.0, SVG Export Plug-In . SVG Version: 6.00 Build 0)  -->
<!DOCTYPE svg PUBLIC "-//W3C//DTD SVG 1.1//EN" "http://www.w3.org/Graphics/SVG/1.1/DTD/svg11.dtd">
<svg version="1.1" id="Layer_1" xmlns="http://www.w3.org/2000/svg" xmlns:xlink="http://www.w3.org/1999/xlink" x="0px" y="0px"
	 width="158.64px" height="158.64px" viewBox="0 0 158.64 158.64" enable-background="new 0 0 158.64 158.64" xml:space="preserve">
<g>
	<defs>
		<path id="SVGID_1_" d="M158.64,79.32C158.64,35.806,122.834,0,79.32,0C35.806,0,0,35.806,0,79.32s35.806,79.32,79.32,79.32
			C122.834,158.64,158.64,122.833,158.64,79.32"/>
	</defs>
	<clipPath id="SVGID_2_">
		<use xlink:href="#SVGID_1_"  overflow="visible"/>
	</clipPath>
	<path clip-path="url(#SVGID_2_)" fill-rule="evenodd" clip-rule="evenodd" fill="#FFFFFF" d="M192,79.44
		c0-61.749-50.81-112.56-112.56-112.56c-61.75,0-112.56,50.811-112.56,112.56C-33.12,141.19,17.69,192,79.44,192
		C141.19,192,192,141.19,192,79.44"/>
	<path clip-path="url(#SVGID_2_)" fill-rule="evenodd" clip-rule="evenodd" fill="#FFF8F8" d="M159.84,79.32
		c0-44.172-36.349-80.52-80.52-80.52C35.148-1.2-1.2,35.148-1.2,79.32s36.348,80.521,80.52,80.521
		C123.492,159.84,159.84,123.492,159.84,79.32"/>
	<path clip-path="url(#SVGID_2_)" fill-rule="evenodd" clip-rule="evenodd" fill="#FFF1F1" d="M159.36,79.32
		c0-43.909-36.132-80.04-80.04-80.04c-43.908,0-80.04,36.131-80.04,80.04c0,43.909,36.132,80.04,80.04,80.04
		C123.228,159.36,159.36,123.229,159.36,79.32"/>
	<path clip-path="url(#SVGID_2_)" fill-rule="evenodd" clip-rule="evenodd" fill="#FFEAEA" d="M158.88,79.32
		c0-43.646-35.914-79.56-79.56-79.56c-43.646,0-79.56,35.915-79.56,79.56s35.914,79.56,79.56,79.56
		C122.966,158.879,158.88,122.965,158.88,79.32"/>
	<path clip-path="url(#SVGID_2_)" fill-rule="evenodd" clip-rule="evenodd" fill="#FFE4E4" d="M158.4,79.32
		c0-43.382-35.697-79.08-79.08-79.08S0.24,35.938,0.24,79.32s35.698,79.08,79.08,79.08S158.4,122.702,158.4,79.32"/>
	<path clip-path="url(#SVGID_2_)" fill-rule="evenodd" clip-rule="evenodd" fill="#FFDDDD" d="M157.919,79.32
		c0-43.119-35.48-78.6-78.599-78.6s-78.6,35.481-78.6,78.6c0,43.118,35.481,78.601,78.6,78.601S157.919,122.438,157.919,79.32"/>
	<path clip-path="url(#SVGID_2_)" fill-rule="evenodd" clip-rule="evenodd" fill="#FFD6D6" d="M157.44,79.32
		c0-42.855-35.266-78.12-78.12-78.12C36.466,1.2,1.2,36.464,1.2,79.32s35.266,78.12,78.12,78.12
		C122.174,157.44,157.44,122.175,157.44,79.32"/>
	<path clip-path="url(#SVGID_2_)" fill-rule="evenodd" clip-rule="evenodd" fill="#FFCFCF" d="M156.96,79.32
		c0-42.592-35.047-77.64-77.64-77.64c-42.593,0-77.64,35.048-77.64,77.64s35.047,77.64,77.64,77.64
		C121.914,156.959,156.96,121.912,156.96,79.32"/>
	<path clip-path="url(#SVGID_2_)" fill-rule="evenodd" clip-rule="evenodd" fill="#FFC8C8" d="M156.48,79.32
		c0-42.329-34.831-77.16-77.16-77.16c-42.329,0-77.16,34.832-77.16,77.16c0,42.329,34.831,77.16,77.16,77.16
		C121.649,156.48,156.48,121.649,156.48,79.32"/>
	<path clip-path="url(#SVGID_2_)" fill-rule="evenodd" clip-rule="evenodd" fill="#FFC1C1" d="M156,79.32
		c0-42.065-34.615-76.68-76.679-76.68c-42.065,0-76.68,34.614-76.68,76.68S37.255,156,79.32,156C121.384,156,156,121.385,156,79.32"
		/>
	<path clip-path="url(#SVGID_2_)" fill-rule="evenodd" clip-rule="evenodd" fill="#FFBABA" d="M155.52,79.32
		c0-41.802-34.396-76.2-76.2-76.2s-76.2,34.398-76.2,76.2s34.397,76.2,76.2,76.2S155.52,121.122,155.52,79.32"/>
	<path clip-path="url(#SVGID_2_)" fill-rule="evenodd" clip-rule="evenodd" fill="#FFB3B3" d="M155.041,79.32
		c0-41.539-34.182-75.72-75.72-75.72C37.781,3.6,3.6,37.781,3.6,79.32c0,41.539,34.181,75.72,75.72,75.72
		C120.859,155.04,155.041,120.859,155.041,79.32"/>
	<path clip-path="url(#SVGID_2_)" fill-rule="evenodd" clip-rule="evenodd" fill="#FFADAD" d="M154.56,79.32
		c0-41.275-33.965-75.24-75.24-75.24c-41.275,0-75.24,33.965-75.24,75.24s33.965,75.24,75.24,75.24
		C120.595,154.56,154.56,120.595,154.56,79.32"/>
	<path clip-path="url(#SVGID_2_)" fill-rule="evenodd" clip-rule="evenodd" fill="#FFA6A6" d="M154.08,79.32
		c0-41.012-33.748-74.76-74.759-74.76S4.56,38.308,4.56,79.32c0,41.013,33.749,74.76,74.76,74.76S154.08,120.333,154.08,79.32"/>
	<path clip-path="url(#SVGID_2_)" fill-rule="evenodd" clip-rule="evenodd" fill="#FF9F9F" d="M153.6,79.32
		c0-40.749-33.53-74.28-74.28-74.28c-40.75,0-74.28,33.531-74.28,74.28s33.53,74.28,74.28,74.28
		C120.07,153.6,153.6,120.069,153.6,79.32"/>
	<path clip-path="url(#SVGID_2_)" fill-rule="evenodd" clip-rule="evenodd" fill="#FF9898" d="M153.121,79.32
		c0-40.485-33.314-73.8-73.8-73.8s-73.8,33.314-73.8,73.8s33.314,73.8,73.8,73.8S153.121,119.805,153.121,79.32"/>
	<path clip-path="url(#SVGID_2_)" fill-rule="evenodd" clip-rule="evenodd" fill="#FF9191" d="M152.64,79.32
		C152.64,39.098,119.542,6,79.32,6C39.099,6,6,39.098,6,79.32c0,40.222,33.099,73.32,73.32,73.32
		C119.542,152.64,152.64,119.542,152.64,79.32"/>
	<path clip-path="url(#SVGID_2_)" fill-rule="evenodd" clip-rule="evenodd" fill="#FF8A8A" d="M152.16,79.32
		c0-39.959-32.879-72.84-72.839-72.84S6.48,39.361,6.48,79.32s32.88,72.84,72.84,72.84S152.16,119.279,152.16,79.32"/>
	<path clip-path="url(#SVGID_2_)" fill-rule="evenodd" clip-rule="evenodd" fill="#FF8383" d="M151.68,79.32
		c0-39.695-32.664-72.36-72.36-72.36c-39.696,0-72.36,32.665-72.36,72.36s32.664,72.36,72.36,72.36
		C119.016,151.68,151.68,119.015,151.68,79.32"/>
	<path clip-path="url(#SVGID_2_)" fill-rule="evenodd" clip-rule="evenodd" fill="#FF7D7D" d="M151.201,79.32
		c0-39.432-32.449-71.88-71.88-71.88c-39.432,0-71.88,32.448-71.88,71.88c0,39.433,32.448,71.88,71.88,71.88
		C118.751,151.2,151.201,118.752,151.201,79.32"/>
	<path clip-path="url(#SVGID_2_)" fill-rule="evenodd" clip-rule="evenodd" fill="#FF7676" d="M150.72,79.32
		c0-39.169-32.232-71.4-71.4-71.4c-39.168,0-71.4,32.231-71.4,71.4s32.232,71.399,71.4,71.399
		C118.488,150.719,150.72,118.489,150.72,79.32"/>
	<path clip-path="url(#SVGID_2_)" fill-rule="evenodd" clip-rule="evenodd" fill="#FF6F6F" d="M150.24,79.32
		c0-38.906-32.014-70.92-70.919-70.92C40.414,8.4,8.4,40.414,8.4,79.32c0,38.905,32.014,70.92,70.92,70.92
		C118.226,150.24,150.24,118.225,150.24,79.32"/>
	<path clip-path="url(#SVGID_2_)" fill-rule="evenodd" clip-rule="evenodd" fill="#FF6868" d="M149.76,79.32
		c0-38.642-31.798-70.44-70.44-70.44c-38.643,0-70.44,31.798-70.44,70.44c0,38.642,31.797,70.44,70.44,70.44
		C117.962,149.76,149.76,117.961,149.76,79.32"/>
	<path clip-path="url(#SVGID_2_)" fill-rule="evenodd" clip-rule="evenodd" fill="#FF6161" d="M149.281,79.32
		c0-38.379-31.582-69.96-69.96-69.96S9.36,40.941,9.36,79.32s31.582,69.96,69.96,69.96S149.281,117.699,149.281,79.32"/>
	<path clip-path="url(#SVGID_2_)" fill-rule="evenodd" clip-rule="evenodd" fill="#FF5A5A" d="M148.8,79.32
		c0-38.116-31.363-69.48-69.48-69.48c-38.117,0-69.48,31.364-69.48,69.48c0,38.116,31.363,69.479,69.48,69.479
		C117.437,148.799,148.8,117.436,148.8,79.32"/>
	<path clip-path="url(#SVGID_2_)" fill-rule="evenodd" clip-rule="evenodd" fill="#FF5454" d="M148.32,79.32
		c0-37.853-31.094-69-68.88-69c-37.785,0-68.88,31.147-68.88,69s31.095,69,68.88,69C117.226,148.32,148.32,117.172,148.32,79.32"/>
	<path clip-path="url(#SVGID_2_)" fill-rule="evenodd" clip-rule="evenodd" fill="#FF4D4D" d="M147.84,79.32
		c0-37.589-30.932-68.52-68.52-68.52c-37.589,0-68.52,30.931-68.52,68.52s30.931,68.521,68.52,68.521
		C116.909,147.84,147.84,116.909,147.84,79.32"/>
	<path clip-path="url(#SVGID_2_)" fill-rule="evenodd" clip-rule="evenodd" fill="#FF4646" d="M147.36,79.32
		c0-37.325-30.715-68.04-68.04-68.04c-37.325,0-68.04,30.715-68.04,68.04s30.715,68.04,68.04,68.04
		C116.645,147.36,147.36,116.645,147.36,79.32"/>
	<path clip-path="url(#SVGID_2_)" fill-rule="evenodd" clip-rule="evenodd" fill="#FF3F3F" d="M146.88,79.32
		c0-37.062-30.497-67.56-67.56-67.56c-37.063,0-67.56,30.498-67.56,67.56s30.497,67.56,67.56,67.56
		C116.383,146.879,146.88,116.382,146.88,79.32"/>
	<path clip-path="url(#SVGID_2_)" fill-rule="evenodd" clip-rule="evenodd" fill="#FF3838" d="M146.4,79.32
		c0-36.799-30.281-67.08-67.08-67.08c-36.799,0-67.08,30.281-67.08,67.08s30.281,67.08,67.08,67.08
		C116.119,146.4,146.4,116.119,146.4,79.32"/>
	<path clip-path="url(#SVGID_2_)" fill-rule="evenodd" clip-rule="evenodd" fill="#FF3232" d="M145.919,79.32
		c0-36.536-30.009-66.6-66.479-66.6c-36.47,0-66.48,30.064-66.48,66.6c0,36.536,30.01,66.601,66.48,66.601
		C115.911,145.92,145.919,115.856,145.919,79.32"/>
	<path clip-path="url(#SVGID_2_)" fill-rule="evenodd" clip-rule="evenodd" fill="#FF2B2B" d="M145.44,79.32
		c0-36.272-29.849-66.12-66.12-66.12c-36.271,0-66.12,29.848-66.12,66.12s29.849,66.12,66.12,66.12
		C115.591,145.44,145.44,115.592,145.44,79.32"/>
	<path clip-path="url(#SVGID_2_)" fill-rule="evenodd" clip-rule="evenodd" fill="#FF2424" d="M144.96,79.32
		c0-36.009-29.631-65.64-65.64-65.64c-36.01,0-65.64,29.631-65.64,65.64s29.63,65.64,65.64,65.64
		C115.33,144.959,144.96,115.329,144.96,79.32"/>
	<path clip-path="url(#SVGID_2_)" fill-rule="evenodd" clip-rule="evenodd" fill="#FF1D1D" d="M144.48,79.32
		c0-35.746-29.414-65.16-65.16-65.16S14.16,43.574,14.16,79.32c0,35.745,29.415,65.16,65.16,65.16S144.48,115.065,144.48,79.32"/>
	<path clip-path="url(#SVGID_2_)" fill-rule="evenodd" clip-rule="evenodd" fill="#FF1616" d="M144,79.32
		c0-35.482-29.197-64.68-64.679-64.68S14.64,43.837,14.64,79.32S43.838,144,79.32,144S144,114.802,144,79.32"/>
	<path clip-path="url(#SVGID_2_)" fill-rule="evenodd" clip-rule="evenodd" fill="#FF1010" d="M143.52,79.32
		c0-35.219-28.927-64.2-64.08-64.2c-35.152,0-64.08,28.981-64.08,64.2c0,35.22,28.928,64.2,64.08,64.2
		C114.593,143.52,143.52,114.54,143.52,79.32"/>
	<path clip-path="url(#SVGID_2_)" fill-rule="evenodd" clip-rule="evenodd" fill="#FF0909" d="M143.041,79.32
		c0-34.956-28.765-63.72-63.72-63.72c-34.956,0-63.72,28.764-63.72,63.72c0,34.956,28.764,63.72,63.72,63.72
		C114.276,143.04,143.041,114.276,143.041,79.32"/>
	<path clip-path="url(#SVGID_2_)" fill-rule="evenodd" clip-rule="evenodd" fill="#FF0202" d="M142.56,79.32
		c0-34.692-28.548-63.24-63.24-63.24c-34.692,0-63.24,28.548-63.24,63.24s28.548,63.24,63.24,63.24
		C114.012,142.56,142.56,114.012,142.56,79.32"/>
	<path clip-path="url(#SVGID_2_)" fill-rule="evenodd" clip-rule="evenodd" fill="#FF0000" d="M142.08,79.32
		c0-34.429-28.332-62.76-62.759-62.76c-34.428,0-62.76,28.331-62.76,62.76c0,34.429,28.332,62.76,62.76,62.76
		C113.748,142.08,142.08,113.749,142.08,79.32"/>
</g>
</svg>
