<?xml version="1.0" encoding="utf-8"?>
<!-- Generator: Adobe Illustrator 15.0.0, SVG Export Plug-In . SVG Version: 6.00 Build 0)  -->
<!DOCTYPE svg PUBLIC "-//W3C//DTD SVG 1.1//EN" "http://www.w3.org/Graphics/SVG/1.1/DTD/svg11.dtd">
<svg version="1.1" id="Layer_1" xmlns="http://www.w3.org/2000/svg" xmlns:xlink="http://www.w3.org/1999/xlink" x="0px" y="0px"
	 width="296.88px" height="296.641px" viewBox="0 0 296.88 296.641" enable-background="new 0 0 296.88 296.641"
	 xml:space="preserve">
<g>
	<defs>
		<path id="SVGID_1_" d="M296.88,148.32C296.88,66.955,229.872,0,148.44,0S0,66.955,0,148.32c0,81.364,67.008,148.32,148.44,148.32
			S296.88,229.685,296.88,148.32"/>
	</defs>
	<clipPath id="SVGID_2_">
		<use xlink:href="#SVGID_1_"  overflow="visible"/>
	</clipPath>
	<path clip-path="url(#SVGID_2_)" fill-rule="evenodd" clip-rule="evenodd" fill="#FFFFFF" d="M358.561,148.32
		c0-115.334-94.852-210.24-210.121-210.24c-115.269,0-210.12,94.906-210.12,210.24c0,115.334,94.852,210.24,210.12,210.24
		C263.709,358.561,358.561,263.654,358.561,148.32"/>
	<path clip-path="url(#SVGID_2_)" fill-rule="evenodd" clip-rule="evenodd" fill="#FFF8F8" d="M299.04,148.44
		c0-82.618-67.982-150.6-150.6-150.6S-2.16,65.823-2.16,148.44c0,82.617,67.982,150.6,150.6,150.6S299.04,231.058,299.04,148.44"/>
	<path clip-path="url(#SVGID_2_)" fill-rule="evenodd" clip-rule="evenodd" fill="#FFF2F2" d="M298.561,148.32
		c0-82.287-67.768-150-150.121-150c-82.354,0-150.12,67.713-150.12,150c0,82.286,67.767,150,150.12,150
		C230.793,298.32,298.561,230.606,298.561,148.32"/>
	<path clip-path="url(#SVGID_2_)" fill-rule="evenodd" clip-rule="evenodd" fill="#FFEBEB" d="M298.08,148.32
		c0-82.025-67.551-149.52-149.64-149.52C66.35-1.2-1.2,66.295-1.2,148.32c0,82.024,67.55,149.52,149.64,149.52
		C230.529,297.84,298.08,230.345,298.08,148.32"/>
	<path clip-path="url(#SVGID_2_)" fill-rule="evenodd" clip-rule="evenodd" fill="#FFE5E5" d="M297.6,148.32
		c0-81.761-67.334-149.04-149.16-149.04S-0.72,66.56-0.72,148.32s67.334,149.04,149.16,149.04S297.6,230.081,297.6,148.32"/>
	<path clip-path="url(#SVGID_2_)" fill-rule="evenodd" clip-rule="evenodd" fill="#FFDEDE" d="M297.12,148.32
		c0-81.497-67.116-148.56-148.68-148.56S-0.24,66.823-0.24,148.32s67.116,148.56,148.68,148.56S297.12,229.817,297.12,148.32"/>
	<path clip-path="url(#SVGID_2_)" fill-rule="evenodd" clip-rule="evenodd" fill="#FFD8D8" d="M296.64,148.32
		c0-81.235-66.899-148.08-148.2-148.08c-81.3,0-148.2,66.845-148.2,148.08s66.9,148.08,148.2,148.08
		C229.74,296.4,296.64,229.556,296.64,148.32"/>
	<path clip-path="url(#SVGID_2_)" fill-rule="evenodd" clip-rule="evenodd" fill="#FFD1D1" d="M296.16,148.32
		c0-80.971-66.684-147.6-147.72-147.6C67.404,0.72,0.72,67.349,0.72,148.32c0,80.971,66.684,147.6,147.72,147.6
		C229.477,295.92,296.16,229.291,296.16,148.32"/>
	<path clip-path="url(#SVGID_2_)" fill-rule="evenodd" clip-rule="evenodd" fill="#FFCBCB" d="M295.68,148.32
		c0-80.708-66.465-147.12-147.24-147.12C67.666,1.2,1.2,67.613,1.2,148.32c0,80.707,66.466,147.12,147.24,147.12
		C229.215,295.44,295.68,229.027,295.68,148.32"/>
	<path clip-path="url(#SVGID_2_)" fill-rule="evenodd" clip-rule="evenodd" fill="#FFC4C4" d="M295.2,148.32
		c0-80.443-66.25-146.64-146.76-146.64S1.68,67.877,1.68,148.32s66.25,146.64,146.76,146.64S295.2,228.764,295.2,148.32"/>
	<path clip-path="url(#SVGID_2_)" fill-rule="evenodd" clip-rule="evenodd" fill="#FFBEBE" d="M294.72,148.32
		c0-80.182-66.033-146.16-146.28-146.16S2.16,68.139,2.16,148.32s66.033,146.16,146.28,146.16S294.72,228.502,294.72,148.32"/>
	<path clip-path="url(#SVGID_2_)" fill-rule="evenodd" clip-rule="evenodd" fill="#FFB7B7" d="M294.24,148.32
		c0-79.918-65.818-145.68-145.8-145.68c-79.982,0-145.8,65.762-145.8,145.68C2.64,228.237,68.458,294,148.44,294
		C228.422,294,294.24,228.237,294.24,148.32"/>
	<path clip-path="url(#SVGID_2_)" fill-rule="evenodd" clip-rule="evenodd" fill="#FFB1B1" d="M293.76,148.32
		c0-79.654-65.6-145.2-145.32-145.2C68.719,3.12,3.12,68.667,3.12,148.32c0,79.653,65.599,145.2,145.32,145.2
		C228.16,293.521,293.76,227.974,293.76,148.32"/>
	<path clip-path="url(#SVGID_2_)" fill-rule="evenodd" clip-rule="evenodd" fill="#FFAAAA" d="M293.279,148.32
		c0-79.392-65.383-144.72-144.839-144.72C68.983,3.6,3.6,68.928,3.6,148.32c0,79.392,65.383,144.72,144.84,144.72
		C227.896,293.04,293.279,227.712,293.279,148.32"/>
	<path clip-path="url(#SVGID_2_)" fill-rule="evenodd" clip-rule="evenodd" fill="#FFA3A3" d="M292.8,148.32
		c0-79.128-65.167-144.24-144.36-144.24S4.08,69.192,4.08,148.32s65.167,144.24,144.36,144.24S292.8,227.448,292.8,148.32"/>
	<path clip-path="url(#SVGID_2_)" fill-rule="evenodd" clip-rule="evenodd" fill="#FF9D9D" d="M292.32,148.32
		c0-78.864-64.949-143.76-143.88-143.76S4.56,69.456,4.56,148.32s64.949,143.76,143.88,143.76S292.32,227.185,292.32,148.32"/>
	<path clip-path="url(#SVGID_2_)" fill-rule="evenodd" clip-rule="evenodd" fill="#FF9696" d="M291.84,148.32
		c0-78.6-64.732-143.28-143.4-143.28S5.04,69.72,5.04,148.32c0,78.6,64.732,143.28,143.4,143.28S291.84,226.92,291.84,148.32"/>
	<path clip-path="url(#SVGID_2_)" fill-rule="evenodd" clip-rule="evenodd" fill="#FF9090" d="M291.359,148.32
		c0-78.338-64.516-142.8-142.919-142.8C70.037,5.52,5.52,69.982,5.52,148.32c0,78.338,64.517,142.8,142.92,142.8
		C226.844,291.12,291.359,226.658,291.359,148.32"/>
	<path clip-path="url(#SVGID_2_)" fill-rule="evenodd" clip-rule="evenodd" fill="#FF8989" d="M290.88,148.32
		C290.88,70.246,226.579,6,148.44,6S6,70.246,6,148.32c0,78.074,64.301,142.32,142.44,142.32S290.88,226.395,290.88,148.32"/>
	<path clip-path="url(#SVGID_2_)" fill-rule="evenodd" clip-rule="evenodd" fill="#FF8383" d="M290.4,148.32
		c0-77.811-64.083-141.84-141.96-141.84S6.48,70.51,6.48,148.32s64.083,141.84,141.96,141.84S290.4,226.131,290.4,148.32"/>
	<path clip-path="url(#SVGID_2_)" fill-rule="evenodd" clip-rule="evenodd" fill="#FF7C7C" d="M289.92,148.32
		c0-77.549-63.866-141.36-141.48-141.36S6.96,70.771,6.96,148.32S70.826,289.68,148.44,289.68S289.92,225.869,289.92,148.32"/>
	<path clip-path="url(#SVGID_2_)" fill-rule="evenodd" clip-rule="evenodd" fill="#FF7676" d="M289.439,148.32
		c0-77.285-63.65-140.88-141-140.88c-77.35,0-141,63.595-141,140.88c0,77.284,63.65,140.88,141,140.88
		C225.789,289.2,289.439,225.604,289.439,148.32"/>
	<path clip-path="url(#SVGID_2_)" fill-rule="evenodd" clip-rule="evenodd" fill="#FF6F6F" d="M288.96,148.32
		c0-77.021-63.433-140.4-140.52-140.4C71.352,7.92,7.92,71.299,7.92,148.32c0,77.021,63.432,140.399,140.52,140.399
		C225.527,288.72,288.96,225.341,288.96,148.32"/>
	<path clip-path="url(#SVGID_2_)" fill-rule="evenodd" clip-rule="evenodd" fill="#FF6969" d="M288.48,148.32
		C288.48,71.563,225.264,8.4,148.44,8.4C71.616,8.4,8.4,71.563,8.4,148.32s63.216,139.92,140.04,139.92
		C225.264,288.24,288.48,225.077,288.48,148.32"/>
	<path clip-path="url(#SVGID_2_)" fill-rule="evenodd" clip-rule="evenodd" fill="#FF6262" d="M288,148.32
		C288,71.825,225,8.88,148.44,8.88S8.88,71.825,8.88,148.32s63,139.439,139.56,139.439S288,224.815,288,148.32"/>
	<path clip-path="url(#SVGID_2_)" fill-rule="evenodd" clip-rule="evenodd" fill="#FF5C5C" d="M287.52,148.32
		c0-76.231-62.783-138.96-139.08-138.96C72.144,9.36,9.36,72.089,9.36,148.32s62.784,138.96,139.08,138.96
		C224.736,287.28,287.52,224.552,287.52,148.32"/>
	<path clip-path="url(#SVGID_2_)" fill-rule="evenodd" clip-rule="evenodd" fill="#FF5555" d="M287.04,148.32
		c0-75.967-62.565-138.48-138.6-138.48S9.84,72.353,9.84,148.32c0,75.967,62.565,138.479,138.6,138.479
		S287.04,224.287,287.04,148.32"/>
	<path clip-path="url(#SVGID_2_)" fill-rule="evenodd" clip-rule="evenodd" fill="#FF4F4F" d="M286.561,148.32
		c0-75.706-62.35-138-138.121-138c-75.771,0-138.12,62.294-138.12,138c0,75.705,62.35,138,138.12,138
		C224.211,286.32,286.561,224.025,286.561,148.32"/>
	<path clip-path="url(#SVGID_2_)" fill-rule="evenodd" clip-rule="evenodd" fill="#FF4848" d="M286.08,148.32
		c0-75.442-62.134-137.52-137.64-137.52S10.8,72.878,10.8,148.32c0,75.441,62.134,137.52,137.64,137.52
		S286.08,223.762,286.08,148.32"/>
	<path clip-path="url(#SVGID_2_)" fill-rule="evenodd" clip-rule="evenodd" fill="#FF4242" d="M285.6,148.32
		c0-75.178-61.915-137.04-137.16-137.04S11.28,73.143,11.28,148.32s61.916,137.04,137.16,137.04S285.6,223.498,285.6,148.32"/>
	<path clip-path="url(#SVGID_2_)" fill-rule="evenodd" clip-rule="evenodd" fill="#FF3B3B" d="M285.12,148.32
		c0-74.914-61.699-136.56-136.68-136.56S11.76,73.407,11.76,148.32c0,74.913,61.699,136.56,136.68,136.56
		S285.12,223.233,285.12,148.32"/>
	<path clip-path="url(#SVGID_2_)" fill-rule="evenodd" clip-rule="evenodd" fill="#FF3232" d="M284.4,148.32
		c0-74.652-61.375-136.08-135.96-136.08c-74.585,0-135.96,61.428-135.96,136.08S73.855,284.4,148.44,284.4
		C223.025,284.4,284.4,222.973,284.4,148.32"/>
	<path clip-path="url(#SVGID_2_)" fill-rule="evenodd" clip-rule="evenodd" fill="#FF2E2E" d="M283.92,148.32
		c0-74.256-61.156-135.36-135.48-135.36c-74.323,0-135.48,61.104-135.48,135.36c0,74.256,61.157,135.359,135.48,135.359
		C222.764,283.68,283.92,222.576,283.92,148.32"/>
	<path clip-path="url(#SVGID_2_)" fill-rule="evenodd" clip-rule="evenodd" fill="#FF2525" d="M283.439,148.32
		c0-74.124-60.94-135.12-135-135.12s-135,60.996-135,135.12s60.941,135.12,135,135.12S283.439,222.444,283.439,148.32"/>
	<path clip-path="url(#SVGID_2_)" fill-rule="evenodd" clip-rule="evenodd" fill="#FF2121" d="M282.96,148.32
		c0-73.73-60.725-134.4-134.52-134.4S13.92,74.59,13.92,148.32S74.645,282.72,148.44,282.72S282.96,222.051,282.96,148.32"/>
	<path clip-path="url(#SVGID_2_)" fill-rule="evenodd" clip-rule="evenodd" fill="#FF1818" d="M282.48,148.32
		c0-73.599-60.51-134.16-134.041-134.16C74.909,14.16,14.4,74.722,14.4,148.32s60.509,134.16,134.04,134.16
		C221.971,282.48,282.48,221.919,282.48,148.32"/>
	<path clip-path="url(#SVGID_2_)" fill-rule="evenodd" clip-rule="evenodd" fill="#FF1414" d="M282,148.32
		c0-73.203-60.291-133.44-133.56-133.44c-73.27,0-133.56,60.238-133.56,133.44c0,73.202,60.291,133.439,133.56,133.439
		C221.709,281.76,282,221.522,282,148.32"/>
	<path clip-path="url(#SVGID_2_)" fill-rule="evenodd" clip-rule="evenodd" fill="#FF0B0B" d="M281.52,148.32
		c0-73.07-60.074-133.2-133.08-133.2S15.36,75.25,15.36,148.32s60.075,133.2,133.08,133.2S281.52,221.391,281.52,148.32"/>
	<path clip-path="url(#SVGID_2_)" fill-rule="evenodd" clip-rule="evenodd" fill="#FF0404" d="M281.04,148.32
		c0-72.677-59.858-132.48-132.6-132.48S15.84,75.644,15.84,148.32S75.698,280.8,148.44,280.8S281.04,220.997,281.04,148.32"/>
	<path clip-path="url(#SVGID_2_)" fill-rule="evenodd" clip-rule="evenodd" fill="#FF0000" d="M280.32,148.32
		c0-72.413-59.532-132-131.88-132s-131.88,59.587-131.88,132c0,72.412,59.532,132,131.88,132S280.32,220.732,280.32,148.32"/>
</g>
</svg>
