<?xml version="1.0" encoding="utf-8"?>
<!-- Generator: Adobe Illustrator 15.0.0, SVG Export Plug-In . SVG Version: 6.00 Build 0)  -->
<!DOCTYPE svg PUBLIC "-//W3C//DTD SVG 1.1//EN" "http://www.w3.org/Graphics/SVG/1.1/DTD/svg11.dtd">
<svg version="1.1" id="Layer_1" xmlns="http://www.w3.org/2000/svg" xmlns:xlink="http://www.w3.org/1999/xlink" x="0px" y="0px"
	 width="275.04px" height="274.799px" viewBox="0 0 275.04 274.799" enable-background="new 0 0 275.04 274.799"
	 xml:space="preserve">
<g>
	<defs>
		<path id="SVGID_1_" d="M275.04,137.4C275.04,62.024,212.962,0,137.52,0C62.078,0,0,62.024,0,137.4
			c0,75.374,62.078,137.399,137.52,137.399C212.962,274.799,275.04,212.774,275.04,137.4"/>
	</defs>
	<clipPath id="SVGID_2_">
		<use xlink:href="#SVGID_1_"  overflow="visible"/>
	</clipPath>
	<path clip-path="url(#SVGID_2_)" fill-rule="evenodd" clip-rule="evenodd" fill="#FF0000" d="M332.16,137.4
		c0-106.842-87.917-194.76-194.76-194.76C30.557-57.36-57.36,30.558-57.36,137.4c0,106.843,87.917,194.76,194.761,194.76
		C244.243,332.16,332.16,244.243,332.16,137.4"/>
	<path clip-path="url(#SVGID_2_)" fill-rule="evenodd" clip-rule="evenodd" fill="#FB0000" d="M263.52,137.52
		c0-69.122-56.877-126-126-126c-69.122,0-126,56.878-126,126c0,69.122,56.878,126,126,126
		C206.643,263.52,263.52,206.642,263.52,137.52"/>
	<path clip-path="url(#SVGID_2_)" fill-rule="evenodd" clip-rule="evenodd" fill="#F60000" d="M262.8,137.4
		C262.8,68.607,206.193,12,137.4,12C68.606,12,12,68.607,12,137.4c0,68.794,56.606,125.399,125.4,125.399
		C206.193,262.799,262.8,206.194,262.8,137.4"/>
	<path clip-path="url(#SVGID_2_)" fill-rule="evenodd" clip-rule="evenodd" fill="#F20000" d="M262.32,137.4
		c0-68.397-56.338-124.68-124.801-124.68c-68.462,0-124.8,56.282-124.8,124.68s56.338,124.681,124.8,124.681
		C205.982,262.081,262.32,205.797,262.32,137.4"/>
	<path clip-path="url(#SVGID_2_)" fill-rule="evenodd" clip-rule="evenodd" fill="#ED0000" d="M261.6,137.4
		c0-68.134-56.066-124.2-124.199-124.2c-68.134,0-124.2,56.066-124.2,124.2s56.066,124.2,124.2,124.2
		C205.533,261.6,261.6,205.534,261.6,137.4"/>
	<path clip-path="url(#SVGID_2_)" fill-rule="evenodd" clip-rule="evenodd" fill="#E90000" d="M261.12,137.4
		c0-67.739-55.795-123.48-123.601-123.48c-67.805,0-123.6,55.741-123.6,123.48c0,67.74,55.795,123.479,123.6,123.479
		C205.325,260.879,261.12,205.14,261.12,137.4"/>
	<path clip-path="url(#SVGID_2_)" fill-rule="evenodd" clip-rule="evenodd" fill="#E40000" d="M260.4,137.4
		c0-67.476-55.524-123-123-123c-67.477,0-123,55.524-123,123s55.523,123,123,123C204.876,260.4,260.4,204.875,260.4,137.4"/>
	<path clip-path="url(#SVGID_2_)" fill-rule="evenodd" clip-rule="evenodd" fill="#E00000" d="M259.92,137.4
		c0-67.081-55.253-122.28-122.4-122.28C70.373,15.12,15.12,70.319,15.12,137.4c0,67.08,55.253,122.28,122.399,122.28
		C204.667,259.68,259.92,204.48,259.92,137.4"/>
	<path clip-path="url(#SVGID_2_)" fill-rule="evenodd" clip-rule="evenodd" fill="#DE0000" d="M259.439,137.4
		c0-66.817-55.036-121.8-121.92-121.8C70.637,15.6,15.6,70.583,15.6,137.4c0,66.818,55.037,121.8,121.92,121.8
		C204.403,259.2,259.439,204.218,259.439,137.4"/>
	<path clip-path="url(#SVGID_2_)" fill-rule="evenodd" clip-rule="evenodd" fill="#D90000" d="M258.96,137.4
		c0-66.686-54.874-121.56-121.56-121.56C70.714,15.84,15.84,70.714,15.84,137.4c0,66.687,54.874,121.56,121.561,121.56
		C204.086,258.959,258.96,204.086,258.96,137.4"/>
	<path clip-path="url(#SVGID_2_)" fill-rule="evenodd" clip-rule="evenodd" fill="#D50000" d="M258.48,137.4
		c0-66.291-54.603-120.84-120.961-120.84c-66.357,0-120.96,54.549-120.96,120.84c0,66.29,54.603,120.84,120.96,120.84
		C203.878,258.24,258.48,203.69,258.48,137.4"/>
	<path clip-path="url(#SVGID_2_)" fill-rule="evenodd" clip-rule="evenodd" fill="#D00000" d="M257.76,137.4
		c0-66.027-54.333-120.36-120.359-120.36S17.04,71.373,17.04,137.4c0,66.026,54.334,120.36,120.36,120.36
		S257.76,203.426,257.76,137.4"/>
	<path clip-path="url(#SVGID_2_)" fill-rule="evenodd" clip-rule="evenodd" fill="#CC0000" d="M257.28,137.4
		c0-65.633-54.062-119.64-119.761-119.64c-65.697,0-119.76,54.007-119.76,119.64s54.062,119.64,119.76,119.64
		C203.218,257.04,257.28,203.033,257.28,137.4"/>
	<path clip-path="url(#SVGID_2_)" fill-rule="evenodd" clip-rule="evenodd" fill="#C70000" d="M256.56,137.4
		c0-65.369-53.791-119.16-119.159-119.16c-65.369,0-119.16,53.791-119.16,119.16c0,65.368,53.791,119.16,119.16,119.16
		C202.769,256.56,256.56,202.768,256.56,137.4"/>
	<path clip-path="url(#SVGID_2_)" fill-rule="evenodd" clip-rule="evenodd" fill="#C30000" d="M256.08,137.4
		c0-64.974-53.521-118.44-118.561-118.44C72.48,18.96,18.96,72.426,18.96,137.4c0,64.976,53.521,118.44,118.56,118.44
		C202.56,255.84,256.08,202.375,256.08,137.4"/>
	<path clip-path="url(#SVGID_2_)" fill-rule="evenodd" clip-rule="evenodd" fill="#C10000" d="M255.6,137.4
		c0-64.711-53.304-117.96-118.08-117.96c-64.775,0-118.08,53.249-118.08,117.96c0,64.712,53.305,117.96,118.08,117.96
		C202.296,255.36,255.6,202.112,255.6,137.4"/>
	<path clip-path="url(#SVGID_2_)" fill-rule="evenodd" clip-rule="evenodd" fill="#BC0000" d="M255.12,137.4
		c0-64.579-53.141-117.72-117.72-117.72C72.82,19.68,19.68,72.821,19.68,137.4S72.82,255.12,137.4,255.12
		C201.979,255.12,255.12,201.979,255.12,137.4"/>
	<path clip-path="url(#SVGID_2_)" fill-rule="evenodd" clip-rule="evenodd" fill="#B80000" d="M254.64,137.4
		c0-64.185-52.869-117-117.12-117C73.27,20.4,20.4,73.215,20.4,137.4c0,64.183,52.869,117,117.119,117
		C201.771,254.4,254.64,201.583,254.64,137.4"/>
	<path clip-path="url(#SVGID_2_)" fill-rule="evenodd" clip-rule="evenodd" fill="#B30000" d="M253.92,137.4
		c0-63.921-52.599-116.52-116.52-116.52C73.479,20.88,20.88,73.479,20.88,137.4c0,63.922,52.599,116.521,116.521,116.521
		C201.321,253.92,253.92,201.322,253.92,137.4"/>
	<path clip-path="url(#SVGID_2_)" fill-rule="evenodd" clip-rule="evenodd" fill="#AF0000" d="M253.439,137.4
		c0-63.526-52.326-115.8-115.92-115.8C73.927,21.6,21.6,73.874,21.6,137.4c0,63.525,52.327,115.8,115.92,115.8
		C201.113,253.2,253.439,200.925,253.439,137.4"/>
	<path clip-path="url(#SVGID_2_)" fill-rule="evenodd" clip-rule="evenodd" fill="#AA0000" d="M252.72,137.4
		c0-63.263-52.059-115.32-115.319-115.32c-63.262,0-115.32,52.057-115.32,115.32c0,63.262,52.059,115.32,115.32,115.32
		C200.661,252.72,252.72,200.662,252.72,137.4"/>
	<path clip-path="url(#SVGID_2_)" fill-rule="evenodd" clip-rule="evenodd" fill="#A60000" d="M252.24,137.4
		c0-62.868-51.787-114.6-114.721-114.6C74.587,22.8,22.8,74.532,22.8,137.4C22.8,200.268,74.587,252,137.52,252
		C200.453,252,252.24,200.268,252.24,137.4"/>
	<path clip-path="url(#SVGID_2_)" fill-rule="evenodd" clip-rule="evenodd" fill="#A20000" d="M251.52,137.4
		c0-62.604-51.516-114.12-114.119-114.12c-62.604,0-114.12,51.516-114.12,114.12S74.796,251.52,137.4,251.52
		C200.004,251.52,251.52,200.004,251.52,137.4"/>
	<path clip-path="url(#SVGID_2_)" fill-rule="evenodd" clip-rule="evenodd" fill="#9D0000" d="M251.04,137.4
		c0-62.341-51.245-113.64-113.521-113.64C75.245,23.76,24,75.059,24,137.4c0,62.34,51.245,113.64,113.52,113.64
		C199.795,251.04,251.04,199.74,251.04,137.4"/>
	<path clip-path="url(#SVGID_2_)" fill-rule="evenodd" clip-rule="evenodd" fill="#9B0000" d="M250.56,137.4
		c0-61.946-51.028-112.92-113.04-112.92C75.509,24.48,24.48,75.454,24.48,137.4S75.509,250.32,137.52,250.32
		C199.531,250.32,250.56,199.346,250.56,137.4"/>
	<path clip-path="url(#SVGID_2_)" fill-rule="evenodd" clip-rule="evenodd" fill="#960000" d="M250.08,137.4
		c0-61.814-50.865-112.68-112.68-112.68S24.72,75.585,24.72,137.4S75.586,250.081,137.4,250.081S250.08,199.214,250.08,137.4"/>
	<path clip-path="url(#SVGID_2_)" fill-rule="evenodd" clip-rule="evenodd" fill="#920000" d="M249.6,137.4
		c0-61.419-50.594-111.96-112.08-111.96c-61.485,0-112.08,50.541-112.08,111.96c0,61.419,50.595,111.96,112.08,111.96
		C199.006,249.36,249.6,198.819,249.6,137.4"/>
	<path clip-path="url(#SVGID_2_)" fill-rule="evenodd" clip-rule="evenodd" fill="#8D0000" d="M248.88,137.4
		c0-61.156-50.323-111.48-111.479-111.48c-61.157,0-111.48,50.324-111.48,111.48c0,61.157,50.323,111.479,111.48,111.479
		C198.557,248.879,248.88,198.557,248.88,137.4"/>
	<path clip-path="url(#SVGID_2_)" fill-rule="evenodd" clip-rule="evenodd" fill="#890000" d="M248.4,137.4
		c0-60.761-50.053-110.76-110.881-110.76S26.64,76.639,26.64,137.4s50.052,110.76,110.88,110.76S248.4,198.161,248.4,137.4"/>
	<path clip-path="url(#SVGID_2_)" fill-rule="evenodd" clip-rule="evenodd" fill="#850000" d="M247.68,137.4
		c0-60.498-49.783-110.28-110.279-110.28c-60.497,0-110.28,49.782-110.28,110.28c0,60.497,49.783,110.28,110.28,110.28
		C197.896,247.68,247.68,197.897,247.68,137.4"/>
	<path clip-path="url(#SVGID_2_)" fill-rule="evenodd" clip-rule="evenodd" fill="#800000" d="M247.2,137.4
		c0-60.234-49.513-109.8-109.681-109.8S27.84,77.166,27.84,137.4c0,60.235,49.512,109.8,109.68,109.8S247.2,197.635,247.2,137.4"/>
	<path clip-path="url(#SVGID_2_)" fill-rule="evenodd" clip-rule="evenodd" fill="#7E0000" d="M246.72,137.4
		c0-59.839-49.293-109.08-109.2-109.08C77.613,28.32,28.32,77.561,28.32,137.4c0,59.839,49.293,109.08,109.199,109.08
		C197.427,246.48,246.72,197.239,246.72,137.4"/>
	<path clip-path="url(#SVGID_2_)" fill-rule="evenodd" clip-rule="evenodd" fill="#790000" d="M246.24,137.4
		c0-59.708-49.133-108.84-108.84-108.84S28.56,77.692,28.56,137.4c0,59.707,49.134,108.84,108.841,108.84
		S246.24,197.107,246.24,137.4"/>
	<path clip-path="url(#SVGID_2_)" fill-rule="evenodd" clip-rule="evenodd" fill="#750000" d="M245.76,137.4
		c0-59.313-48.861-108.12-108.24-108.12C78.142,29.28,29.28,78.087,29.28,137.4c0,59.313,48.861,108.12,108.239,108.12
		C196.898,245.52,245.76,196.713,245.76,137.4"/>
	<path clip-path="url(#SVGID_2_)" fill-rule="evenodd" clip-rule="evenodd" fill="#710000" d="M245.04,137.4
		c0-59.05-48.591-107.64-107.64-107.64C78.351,29.76,29.76,78.35,29.76,137.4S78.351,245.04,137.4,245.04
		C196.449,245.04,245.04,196.45,245.04,137.4"/>
	<path clip-path="url(#SVGID_2_)" fill-rule="evenodd" clip-rule="evenodd" fill="#6C0000" d="M244.56,137.4
		c0-58.786-48.319-107.16-107.04-107.16S30.48,78.614,30.48,137.4S78.799,244.56,137.52,244.56S244.56,196.186,244.56,137.4"/>
	<path clip-path="url(#SVGID_2_)" fill-rule="evenodd" clip-rule="evenodd" fill="#6A0000" d="M244.08,137.4
		c0-58.391-48.104-106.44-106.561-106.44c-58.456,0-106.56,48.049-106.56,106.44c0,58.392,48.104,106.44,106.56,106.44
		C195.977,243.84,244.08,195.792,244.08,137.4"/>
	<path clip-path="url(#SVGID_2_)" fill-rule="evenodd" clip-rule="evenodd" fill="#660000" d="M243.6,137.4
		c0-58.26-47.939-106.2-106.199-106.2C79.14,31.2,31.2,79.14,31.2,137.4S79.14,243.6,137.4,243.6
		C195.66,243.6,243.6,195.66,243.6,137.4"/>
	<path clip-path="url(#SVGID_2_)" fill-rule="evenodd" clip-rule="evenodd" fill="#610000" d="M243.12,137.4
		c0-57.996-47.669-105.72-105.601-105.72c-57.931,0-105.6,47.724-105.6,105.72s47.669,105.72,105.6,105.72
		C195.451,243.12,243.12,195.396,243.12,137.4"/>
	<path clip-path="url(#SVGID_2_)" fill-rule="evenodd" clip-rule="evenodd" fill="#5F0000" d="M242.64,137.4
		c0-57.601-47.452-105-105.12-105C79.853,32.4,32.4,79.799,32.4,137.4c0,57.603,47.452,105,105.119,105
		C195.188,242.4,242.64,195.002,242.64,137.4"/>
	<path clip-path="url(#SVGID_2_)" fill-rule="evenodd" clip-rule="evenodd" fill="#5B0000" d="M242.16,137.4
		c0-57.47-47.29-104.76-104.76-104.76C79.93,32.64,32.64,79.93,32.64,137.4c0,57.471,47.29,104.76,104.761,104.76
		C194.87,242.16,242.16,194.871,242.16,137.4"/>
	<path clip-path="url(#SVGID_2_)" fill-rule="evenodd" clip-rule="evenodd" fill="#560000" d="M241.68,137.4
		c0-57.206-47.019-104.28-104.16-104.28C80.379,33.12,33.36,80.194,33.36,137.4S80.379,241.68,137.52,241.68
		C194.661,241.68,241.68,194.606,241.68,137.4"/>
	<path clip-path="url(#SVGID_2_)" fill-rule="evenodd" clip-rule="evenodd" fill="#520000" d="M240.96,137.4
		c0-56.812-46.75-103.56-103.56-103.56C80.59,33.84,33.84,80.588,33.84,137.4c0,56.811,46.75,103.56,103.561,103.56
		C194.21,240.959,240.96,194.21,240.96,137.4"/>
	<path clip-path="url(#SVGID_2_)" fill-rule="evenodd" clip-rule="evenodd" fill="#4D0000" d="M240.48,137.4
		c0-56.548-46.479-103.08-102.961-103.08c-56.481,0-102.96,46.532-102.96,103.08c0,56.549,46.479,103.08,102.96,103.08
		C194.002,240.48,240.48,193.949,240.48,137.4"/>
	<path clip-path="url(#SVGID_2_)" fill-rule="evenodd" clip-rule="evenodd" fill="#4B0000" d="M240,137.4
		c0-56.153-46.26-102.36-102.48-102.36C81.3,35.04,35.04,81.247,35.04,137.4c0,56.153,46.26,102.36,102.479,102.36
		C193.74,239.76,240,193.553,240,137.4"/>
	<path clip-path="url(#SVGID_2_)" fill-rule="evenodd" clip-rule="evenodd" fill="#470000" d="M239.52,137.4
		c0-56.021-46.099-102.12-102.119-102.12c-56.021,0-102.12,46.099-102.12,102.12c0,56.021,46.099,102.12,102.12,102.12
		C193.421,239.52,239.52,193.42,239.52,137.4"/>
	<path clip-path="url(#SVGID_2_)" fill-rule="evenodd" clip-rule="evenodd" fill="#420000" d="M239.04,137.4
		c0-55.758-45.828-101.64-101.521-101.64C81.828,35.76,36,81.642,36,137.4c0,55.759,45.828,101.64,101.52,101.64
		C193.212,239.04,239.04,193.159,239.04,137.4"/>
	<path clip-path="url(#SVGID_2_)" fill-rule="evenodd" clip-rule="evenodd" fill="#400000" d="M238.56,137.4
		c0-55.363-45.611-100.92-101.04-100.92C82.092,36.48,36.48,82.037,36.48,137.4c0,55.363,45.611,100.92,101.039,100.92
		C192.948,238.32,238.56,192.763,238.56,137.4"/>
	<path clip-path="url(#SVGID_2_)" fill-rule="evenodd" clip-rule="evenodd" fill="#3C0000" d="M238.08,137.4
		c0-55.231-45.449-100.68-100.68-100.68C82.169,36.72,36.72,82.168,36.72,137.4S82.169,238.081,137.4,238.081
		C192.631,238.081,238.08,192.631,238.08,137.4"/>
	<path clip-path="url(#SVGID_2_)" fill-rule="evenodd" clip-rule="evenodd" fill="#370000" d="M237.6,137.4
		c0-54.968-45.178-100.2-100.08-100.2S37.439,82.432,37.439,137.4c0,54.968,45.178,100.2,100.08,100.2S237.6,192.368,237.6,137.4"/>
	<path clip-path="url(#SVGID_2_)" fill-rule="evenodd" clip-rule="evenodd" fill="#350000" d="M237.12,137.4
		c0-54.573-44.962-99.48-99.601-99.48c-54.638,0-99.6,44.907-99.6,99.48s44.962,99.479,99.6,99.479
		C192.158,236.879,237.12,191.973,237.12,137.4"/>
	<path clip-path="url(#SVGID_2_)" fill-rule="evenodd" clip-rule="evenodd" fill="#310000" d="M236.64,137.4
		c0-54.441-44.798-99.24-99.239-99.24c-54.442,0-99.24,44.799-99.24,99.24s44.798,99.24,99.24,99.24
		C191.842,236.64,236.64,191.841,236.64,137.4"/>
	<path clip-path="url(#SVGID_2_)" fill-rule="evenodd" clip-rule="evenodd" fill="#2C0000" d="M236.16,137.4
		c0-54.178-44.527-98.76-98.641-98.76c-54.112,0-98.64,44.582-98.64,98.76s44.527,98.76,98.64,98.76
		C191.633,236.16,236.16,191.578,236.16,137.4"/>
	<path clip-path="url(#SVGID_2_)" fill-rule="evenodd" clip-rule="evenodd" fill="#280000" d="M235.439,137.4
		c0-53.783-44.256-98.04-98.039-98.04c-53.784,0-98.04,44.257-98.04,98.04c0,53.784,44.256,98.04,98.04,98.04
		C191.184,235.44,235.439,191.184,235.439,137.4"/>
	<path clip-path="url(#SVGID_2_)" fill-rule="evenodd" clip-rule="evenodd" fill="#230000" d="M234.96,137.4
		c0-53.52-43.984-97.56-97.44-97.56c-53.455,0-97.439,44.041-97.439,97.56c0,53.521,43.984,97.56,97.439,97.56
		C190.976,234.959,234.96,190.92,234.96,137.4"/>
	<path clip-path="url(#SVGID_2_)" fill-rule="evenodd" clip-rule="evenodd" fill="#210000" d="M234.48,137.4
		c0-53.125-43.77-96.84-96.961-96.84c-53.19,0-96.96,43.715-96.96,96.84c0,53.124,43.77,96.84,96.96,96.84
		C190.711,234.24,234.48,190.524,234.48,137.4"/>
	<path clip-path="url(#SVGID_2_)" fill-rule="evenodd" clip-rule="evenodd" fill="#1D0000" d="M234,137.4
		c0-52.993-43.608-96.6-96.6-96.6C84.408,40.8,40.8,84.407,40.8,137.4C40.8,190.392,84.408,234,137.4,234
		C190.392,234,234,190.392,234,137.4"/>
	<path clip-path="url(#SVGID_2_)" fill-rule="evenodd" clip-rule="evenodd" fill="#180000" d="M233.52,137.4
		c0-52.73-43.336-96.12-96-96.12c-52.663,0-96,43.39-96,96.12c0,52.73,43.337,96.12,96,96.12
		C190.184,233.52,233.52,190.13,233.52,137.4"/>
	<path clip-path="url(#SVGID_2_)" fill-rule="evenodd" clip-rule="evenodd" fill="#160000" d="M233.04,137.4
		c0-52.335-43.118-95.4-95.521-95.4C85.118,42,42,85.065,42,137.4s43.118,95.399,95.52,95.399
		C189.922,232.799,233.04,189.735,233.04,137.4"/>
	<path clip-path="url(#SVGID_2_)" fill-rule="evenodd" clip-rule="evenodd" fill="#120000" d="M232.56,137.4
		c0-52.203-42.957-95.16-95.159-95.16c-52.203,0-95.16,42.957-95.16,95.16c0,52.202,42.957,95.16,95.16,95.16
		C189.603,232.56,232.56,189.602,232.56,137.4"/>
	<path clip-path="url(#SVGID_2_)" fill-rule="evenodd" clip-rule="evenodd" fill="#0D0000" d="M232.08,137.4
		c0-51.94-42.687-94.68-94.561-94.68c-51.873,0-94.56,42.74-94.56,94.68c0,51.94,42.687,94.681,94.56,94.681
		C189.394,232.081,232.08,189.34,232.08,137.4"/>
	<path clip-path="url(#SVGID_2_)" fill-rule="evenodd" clip-rule="evenodd" fill="#090000" d="M231.36,137.4
		c0-51.545-42.415-93.96-93.96-93.96S43.439,85.855,43.439,137.4s42.416,93.96,93.961,93.96S231.36,188.945,231.36,137.4"/>
	<path clip-path="url(#SVGID_2_)" fill-rule="evenodd" clip-rule="evenodd" fill="#050000" d="M230.88,137.4
		c0-51.281-42.144-93.48-93.36-93.48c-51.216,0-93.359,42.199-93.359,93.48c0,51.28,42.144,93.479,93.359,93.479
		C188.736,230.879,230.88,188.68,230.88,137.4"/>
	<path clip-path="url(#SVGID_2_)" fill-rule="evenodd" clip-rule="evenodd" fill="#020000" d="M230.4,137.4
		c0-51.018-41.929-93-92.881-93c-50.951,0-92.88,41.982-92.88,93c0,51.02,41.929,93,92.88,93
		C188.472,230.4,230.4,188.419,230.4,137.4"/>
	<path clip-path="url(#SVGID_2_)" fill-rule="evenodd" clip-rule="evenodd" d="M229.92,137.4c0-50.755-41.765-92.52-92.52-92.52
		c-50.756,0-92.521,41.765-92.521,92.52S86.645,229.92,137.4,229.92C188.155,229.92,229.92,188.155,229.92,137.4"/>
</g>
</svg>
