<?xml version="1.0" encoding="utf-8"?>
<!-- Generator: Adobe Illustrator 15.0.0, SVG Export Plug-In . SVG Version: 6.00 Build 0)  -->
<!DOCTYPE svg PUBLIC "-//W3C//DTD SVG 1.1//EN" "http://www.w3.org/Graphics/SVG/1.1/DTD/svg11.dtd">
<svg version="1.1" id="Layer_1" xmlns="http://www.w3.org/2000/svg" xmlns:xlink="http://www.w3.org/1999/xlink" x="0px" y="0px"
	 width="118.32px" height="118.32px" viewBox="0 0 118.32 118.32" enable-background="new 0 0 118.32 118.32" xml:space="preserve">
<g>
	<defs>
		<path id="SVGID_1_" d="M118.32,59.16C118.32,26.706,91.615,0,59.16,0C26.705,0,0,26.706,0,59.16s26.705,59.16,59.16,59.16
			C91.615,118.32,118.32,91.614,118.32,59.16"/>
	</defs>
	<clipPath id="SVGID_2_">
		<use xlink:href="#SVGID_1_"  overflow="visible"/>
	</clipPath>
	<path clip-path="url(#SVGID_2_)" fill-rule="evenodd" clip-rule="evenodd" fill="#FFC91C" d="M143.281,59.16
		c0-46.147-37.973-84.12-84.121-84.12c-46.147,0-84.12,37.973-84.12,84.12c0,46.147,37.973,84.12,84.12,84.12
		C105.308,143.28,143.281,105.308,143.281,59.16"/>
	<path clip-path="url(#SVGID_2_)" fill-rule="evenodd" clip-rule="evenodd" fill="#FFCA1D" d="M119.041,59.28
		c0-32.915-27.084-60-60-60c-32.916,0-60,27.085-60,60s27.084,60,60,60C91.957,119.28,119.041,92.195,119.041,59.28"/>
	<path clip-path="url(#SVGID_2_)" fill-rule="evenodd" clip-rule="evenodd" fill="#FFCB1F" d="M118.56,59.16
		c0-32.718-26.867-59.64-59.52-59.64c-32.652,0-59.52,26.922-59.52,59.64s26.868,59.64,59.52,59.64
		C91.693,118.8,118.56,91.878,118.56,59.16"/>
	<path clip-path="url(#SVGID_2_)" fill-rule="evenodd" clip-rule="evenodd" fill="#FFCD21" d="M118.08,59.16
		c0-32.322-26.651-58.92-59.04-58.92C26.652,0.24,0,26.838,0,59.16s26.652,58.92,59.04,58.92
		C91.428,118.08,118.08,91.482,118.08,59.16"/>
	<path clip-path="url(#SVGID_2_)" fill-rule="evenodd" clip-rule="evenodd" fill="#FFCE23" d="M117.361,59.16
		c0-32.059-26.326-58.44-58.321-58.44c-31.994,0-58.32,26.381-58.32,58.44c0,32.06,26.326,58.44,58.32,58.44
		C91.035,117.601,117.361,91.22,117.361,59.16"/>
	<path clip-path="url(#SVGID_2_)" fill-rule="evenodd" clip-rule="evenodd" fill="#FFD025" d="M116.88,59.16
		c0-31.664-26.109-57.72-57.84-57.72C27.31,1.44,1.2,27.496,1.2,59.16s26.11,57.72,57.84,57.72
		C90.771,116.88,116.88,90.824,116.88,59.16"/>
	<path clip-path="url(#SVGID_2_)" fill-rule="evenodd" clip-rule="evenodd" fill="#FFD127" d="M116.4,59.16
		c0-31.401-25.838-57.24-57.24-57.24c-31.401,0-57.24,25.839-57.24,57.24c0,31.401,25.838,57.24,57.24,57.24
		C90.562,116.4,116.4,90.562,116.4,59.16"/>
	<path clip-path="url(#SVGID_2_)" fill-rule="evenodd" clip-rule="evenodd" fill="#FFD329" d="M115.68,59.16
		c0-31.006-25.567-56.52-56.64-56.52S2.4,28.154,2.4,59.16s25.567,56.521,56.64,56.521S115.68,90.166,115.68,59.16"/>
	<path clip-path="url(#SVGID_2_)" fill-rule="evenodd" clip-rule="evenodd" fill="#FFD42B" d="M115.201,59.16
		c0-30.743-25.299-56.04-56.041-56.04S3.12,28.417,3.12,59.16c0,30.743,25.298,56.04,56.04,56.04S115.201,89.903,115.201,59.16"/>
	<path clip-path="url(#SVGID_2_)" fill-rule="evenodd" clip-rule="evenodd" fill="#FFD62D" d="M114.48,59.28
		c0-30.414-25.027-55.44-55.44-55.44S3.6,28.867,3.6,59.28c0,30.414,25.027,55.439,55.44,55.439S114.48,89.694,114.48,59.28"/>
	<path clip-path="url(#SVGID_2_)" fill-rule="evenodd" clip-rule="evenodd" fill="#FFD62E" d="M114,59.16
		C114,29.076,89.244,4.32,59.16,4.32c-30.084,0-54.84,24.756-54.84,54.84S29.076,114,59.16,114C89.244,114,114,89.244,114,59.16"/>
	<path clip-path="url(#SVGID_2_)" fill-rule="evenodd" clip-rule="evenodd" fill="#FFD830" d="M113.52,59.16
		c0-29.953-24.593-54.6-54.48-54.6S4.56,29.208,4.56,59.16c0,29.952,24.593,54.601,54.48,54.601S113.52,89.112,113.52,59.16"/>
	<path clip-path="url(#SVGID_2_)" fill-rule="evenodd" clip-rule="evenodd" fill="#FFD932" d="M113.041,59.16
		c0-29.558-24.377-53.88-54-53.88c-29.623,0-54,24.322-54,53.88s24.377,53.88,54,53.88C88.664,113.04,113.041,88.718,113.041,59.16"
		/>
	<path clip-path="url(#SVGID_2_)" fill-rule="evenodd" clip-rule="evenodd" fill="#FFDA33" d="M112.56,59.16
		c0-29.294-24.105-53.4-53.4-53.4s-53.4,24.105-53.4,53.4c0,29.294,24.105,53.399,53.4,53.399S112.56,88.454,112.56,59.16"/>
	<path clip-path="url(#SVGID_2_)" fill-rule="evenodd" clip-rule="evenodd" fill="#FFDB35" d="M112.08,59.16
		C112.08,29.998,88.138,6,59.04,6C29.942,6,6,29.998,6,59.16c0,29.163,23.942,53.16,53.04,53.16
		C88.138,112.32,112.08,88.323,112.08,59.16"/>
	<path clip-path="url(#SVGID_2_)" fill-rule="evenodd" clip-rule="evenodd" fill="#FFDD37" d="M111.6,59.16
		c0-28.768-23.726-52.44-52.56-52.44c-28.833,0-52.56,23.672-52.56,52.44s23.727,52.44,52.56,52.44
		C87.875,111.601,111.6,87.928,111.6,59.16"/>
	<path clip-path="url(#SVGID_2_)" fill-rule="evenodd" clip-rule="evenodd" fill="#FFDE39" d="M110.88,59.16
		c0-28.504-23.402-51.96-51.84-51.96C30.603,7.2,7.2,30.656,7.2,59.16c0,28.505,23.402,51.96,51.84,51.96
		C87.478,111.12,110.88,87.665,110.88,59.16"/>
	<path clip-path="url(#SVGID_2_)" fill-rule="evenodd" clip-rule="evenodd" fill="#FFE03B" d="M110.4,59.16
		c0-28.109-23.184-51.24-51.36-51.24c-28.176,0-51.36,23.131-51.36,51.24s23.184,51.24,51.36,51.24
		C87.216,110.4,110.4,87.27,110.4,59.16"/>
	<path clip-path="url(#SVGID_2_)" fill-rule="evenodd" clip-rule="evenodd" fill="#FFE13D" d="M109.92,59.16
		c0-27.846-22.913-50.76-50.76-50.76S8.4,31.314,8.4,59.16c0,27.847,22.913,50.76,50.76,50.76S109.92,87.007,109.92,59.16"/>
	<path clip-path="url(#SVGID_2_)" fill-rule="evenodd" clip-rule="evenodd" fill="#FFE33F" d="M109.201,59.16
		c0-27.451-22.645-50.04-50.161-50.04c-27.516,0-50.16,22.589-50.16,50.04s22.644,50.04,50.16,50.04
		C86.556,109.2,109.201,86.611,109.201,59.16"/>
	<path clip-path="url(#SVGID_2_)" fill-rule="evenodd" clip-rule="evenodd" fill="#FFE441" d="M108.72,59.16
		c0-27.188-22.373-49.56-49.56-49.56S9.6,31.972,9.6,59.16c0,27.188,22.373,49.56,49.56,49.56S108.72,86.349,108.72,59.16"/>
	<path clip-path="url(#SVGID_2_)" fill-rule="evenodd" clip-rule="evenodd" fill="#FFE542" d="M108.24,59.16
		c0-26.924-22.154-49.08-49.08-49.08S10.08,32.236,10.08,59.16c0,26.925,22.155,49.08,49.08,49.08S108.24,86.085,108.24,59.16"/>
	<path clip-path="url(#SVGID_2_)" fill-rule="evenodd" clip-rule="evenodd" fill="#FFE644" d="M107.76,59.16
		c0-26.661-21.938-48.6-48.6-48.6s-48.6,21.939-48.6,48.6s21.938,48.601,48.6,48.601S107.76,85.821,107.76,59.16"/>
	<path clip-path="url(#SVGID_2_)" fill-rule="evenodd" clip-rule="evenodd" fill="#FFE745" d="M107.281,59.16
		c0-26.398-21.723-48.12-48.121-48.12c-26.397,0-48.12,21.722-48.12,48.12c0,26.397,21.723,48.12,48.12,48.12
		C85.558,107.28,107.281,85.558,107.281,59.16"/>
	<path clip-path="url(#SVGID_2_)" fill-rule="evenodd" clip-rule="evenodd" fill="#FFE947" d="M106.8,59.28
		c0-26.2-21.559-47.76-47.76-47.76c-26.201,0-47.76,21.56-47.76,47.76s21.559,47.76,47.76,47.76
		C85.242,107.04,106.8,85.48,106.8,59.28"/>
	<path clip-path="url(#SVGID_2_)" fill-rule="evenodd" clip-rule="evenodd" fill="#FFEA49" d="M106.32,59.16
		C106.32,33.289,85.033,12,59.16,12C33.288,12,12,33.289,12,59.16s21.288,47.16,47.16,47.16
		C85.033,106.32,106.32,85.031,106.32,59.16"/>
	<path clip-path="url(#SVGID_2_)" fill-rule="evenodd" clip-rule="evenodd" fill="#FFEB4B" d="M105.6,59.28
		c0-25.542-21.017-46.56-46.56-46.56c-25.543,0-46.56,21.018-46.56,46.56s21.017,46.561,46.56,46.561
		C84.583,105.841,105.6,84.822,105.6,59.28"/>
	<path clip-path="url(#SVGID_2_)" fill-rule="evenodd" clip-rule="evenodd" fill="#FFED4D" d="M105.121,59.16
		c0-25.213-20.801-45.96-46.081-45.96c-25.279,0-46.08,20.747-46.08,45.96s20.801,45.96,46.08,45.96
		C84.32,105.12,105.121,84.373,105.121,59.16"/>
	<path clip-path="url(#SVGID_2_)" fill-rule="evenodd" clip-rule="evenodd" fill="#FFEE4F" d="M104.4,59.16
		c0-24.95-20.477-45.48-45.36-45.48S13.68,34.21,13.68,59.16c0,24.95,20.477,45.479,45.36,45.479S104.4,84.11,104.4,59.16"/>
	<path clip-path="url(#SVGID_2_)" fill-rule="evenodd" clip-rule="evenodd" fill="#FFF051" d="M103.92,59.16
		c0-24.555-20.259-44.76-44.88-44.76S14.16,34.605,14.16,59.16s20.258,44.76,44.88,44.76S103.92,83.715,103.92,59.16"/>
	<path clip-path="url(#SVGID_2_)" fill-rule="evenodd" clip-rule="evenodd" fill="#FFF153" d="M103.201,59.16
		c0-24.291-19.936-44.28-44.161-44.28c-24.226,0-44.16,19.989-44.16,44.28c0,24.292,19.934,44.28,44.16,44.28
		C83.265,103.44,103.201,83.452,103.201,59.16"/>
	<path clip-path="url(#SVGID_2_)" fill-rule="evenodd" clip-rule="evenodd" fill="#FFF355" d="M102.72,59.16
		c0-23.896-19.719-43.56-43.68-43.56S15.36,35.264,15.36,59.16s19.718,43.56,43.68,43.56S102.72,83.057,102.72,59.16"/>
	<path clip-path="url(#SVGID_2_)" fill-rule="evenodd" clip-rule="evenodd" fill="#FFF457" d="M102.24,59.16
		c0-23.633-19.447-43.08-43.08-43.08c-23.633,0-43.08,19.447-43.08,43.08s19.447,43.08,43.08,43.08
		C82.792,102.24,102.24,82.793,102.24,59.16"/>
	<path clip-path="url(#SVGID_2_)" fill-rule="evenodd" clip-rule="evenodd" fill="#FFF659" d="M101.52,59.16
		c0-23.238-19.176-42.36-42.48-42.36c-23.304,0-42.48,19.122-42.48,42.36c0,23.238,19.176,42.36,42.48,42.36
		C82.344,101.521,101.52,82.398,101.52,59.16"/>
	<path clip-path="url(#SVGID_2_)" fill-rule="evenodd" clip-rule="evenodd" fill="#FFF75B" d="M101.041,59.16
		c0-22.975-18.905-41.88-41.88-41.88S17.28,36.186,17.28,59.16s18.905,41.88,41.88,41.88S101.041,82.135,101.041,59.16"/>
	<path clip-path="url(#SVGID_2_)" fill-rule="evenodd" clip-rule="evenodd" fill="#FFF85D" d="M100.32,59.28
		C100.32,36.635,81.687,18,59.04,18c-22.646,0-41.28,18.635-41.28,41.28s18.634,41.279,41.28,41.279
		C81.687,100.56,100.32,81.926,100.32,59.28"/>
	<path clip-path="url(#SVGID_2_)" fill-rule="evenodd" clip-rule="evenodd" fill="#FFFA5F" d="M99.84,59.28
		c0-22.382-18.418-40.8-40.8-40.8s-40.8,18.417-40.8,40.8c0,22.382,18.417,40.8,40.8,40.8S99.84,81.662,99.84,59.28"/>
	<path clip-path="url(#SVGID_2_)" fill-rule="evenodd" clip-rule="evenodd" fill="#FFFB61" d="M99.121,59.28
		c0-21.987-18.094-40.08-40.081-40.08c-21.986,0-40.08,18.093-40.08,40.08s18.093,40.08,40.08,40.08
		C81.027,99.36,99.121,81.268,99.121,59.28"/>
	<path clip-path="url(#SVGID_2_)" fill-rule="evenodd" clip-rule="evenodd" fill="#FFFD63" d="M98.64,59.28
		c0-21.724-17.875-39.6-39.6-39.6c-21.725,0-39.6,17.876-39.6,39.6s17.875,39.6,39.6,39.6C80.765,98.88,98.64,81.004,98.64,59.28"/>
	<path clip-path="url(#SVGID_2_)" fill-rule="evenodd" clip-rule="evenodd" fill="#FFFE65" d="M97.92,59.16
		c0-21.395-17.552-39-38.88-39s-38.88,17.605-38.88,39s17.551,39,38.88,39S97.92,80.555,97.92,59.16"/>
	<path clip-path="url(#SVGID_2_)" fill-rule="evenodd" clip-rule="evenodd" fill="#FFFF66" d="M97.441,59.16
		c0-21-17.336-38.28-38.401-38.28c-21.064,0-38.4,17.28-38.4,38.28s17.335,38.28,38.4,38.28C80.105,97.44,97.441,80.16,97.441,59.16
		"/>
</g>
</svg>
