<?xml version="1.0" encoding="utf-8"?>
<!-- Generator: Adobe Illustrator 15.0.0, SVG Export Plug-In . SVG Version: 6.00 Build 0)  -->
<!DOCTYPE svg PUBLIC "-//W3C//DTD SVG 1.1//EN" "http://www.w3.org/Graphics/SVG/1.1/DTD/svg11.dtd">
<svg version="1.1" id="Layer_1" xmlns="http://www.w3.org/2000/svg" xmlns:xlink="http://www.w3.org/1999/xlink" x="0px" y="0px"
	 width="196.8px" height="196.56px" viewBox="0 0 196.8 196.56" enable-background="new 0 0 196.8 196.56" xml:space="preserve">
<g>
	<defs>
		<path id="SVGID_1_" d="M196.8,98.28C196.8,44.365,152.38,0,98.399,0S0,44.365,0,98.28c0,53.916,44.419,98.28,98.399,98.28
			S196.8,152.196,196.8,98.28"/>
	</defs>
	<clipPath id="SVGID_2_">
		<use xlink:href="#SVGID_1_"  overflow="visible"/>
	</clipPath>
	<path clip-path="url(#SVGID_2_)" fill-rule="evenodd" clip-rule="evenodd" fill="#FFFFFF" d="M237.84,98.4
		c0-76.495-62.945-139.44-139.44-139.44S-41.04,21.905-41.04,98.4c0,76.495,62.944,139.439,139.439,139.439
		S237.84,174.895,237.84,98.4"/>
	<path clip-path="url(#SVGID_2_)" fill-rule="evenodd" clip-rule="evenodd" fill="#FFF5F5" d="M198.239,98.4
		c0-54.771-45.069-99.84-99.84-99.84S-1.44,43.629-1.44,98.4s45.069,99.84,99.84,99.84S198.239,153.17,198.239,98.4"/>
	<path clip-path="url(#SVGID_2_)" fill-rule="evenodd" clip-rule="evenodd" fill="#FFEBEB" d="M197.76,98.4
		c0-54.507-44.854-99.36-99.36-99.36S-0.961,43.893-0.961,98.4c0,54.506,44.854,99.359,99.36,99.359S197.76,152.906,197.76,98.4"/>
	<path clip-path="url(#SVGID_2_)" fill-rule="evenodd" clip-rule="evenodd" fill="#FFE1E1" d="M197.279,98.28
		c0-54.178-44.635-98.76-98.88-98.76S-0.48,44.102-0.48,98.28s44.635,98.76,98.88,98.76S197.279,152.458,197.279,98.28"/>
	<path clip-path="url(#SVGID_2_)" fill-rule="evenodd" clip-rule="evenodd" fill="#FFD8D8" d="M196.8,98.28
		C196.8,44.365,152.38,0,98.399,0S0,44.365,0,98.28c0,53.916,44.419,98.28,98.399,98.28S196.8,152.196,196.8,98.28"/>
	<path clip-path="url(#SVGID_2_)" fill-rule="evenodd" clip-rule="evenodd" fill="#FFCECE" d="M196.319,98.4
		c0-53.717-44.203-97.92-97.92-97.92S0.479,44.683,0.479,98.4c0,53.717,44.203,97.92,97.92,97.92S196.319,152.117,196.319,98.4"/>
	<path clip-path="url(#SVGID_2_)" fill-rule="evenodd" clip-rule="evenodd" fill="#FFC4C4" d="M195.84,98.4
		c0-53.454-43.985-97.44-97.44-97.44S0.96,44.946,0.96,98.4c0,53.455,43.984,97.439,97.439,97.439S195.84,151.855,195.84,98.4"/>
	<path clip-path="url(#SVGID_2_)" fill-rule="evenodd" clip-rule="evenodd" fill="#FFBABA" d="M195.359,98.4
		c0-53.191-43.769-96.96-96.96-96.96S1.439,45.209,1.439,98.4c0,53.191,43.769,96.96,96.96,96.96S195.359,151.591,195.359,98.4"/>
	<path clip-path="url(#SVGID_2_)" fill-rule="evenodd" clip-rule="evenodd" fill="#FFB0B0" d="M194.88,98.4
		c0-52.928-43.554-96.48-96.48-96.48S1.92,45.472,1.92,98.4s43.553,96.48,96.479,96.48S194.88,151.328,194.88,98.4"/>
	<path clip-path="url(#SVGID_2_)" fill-rule="evenodd" clip-rule="evenodd" fill="#FFA6A6" d="M194.399,98.28
		c0-52.598-43.337-95.88-96-95.88s-96,43.282-96,95.88c0,52.599,43.337,95.88,96,95.88S194.399,150.878,194.399,98.28"/>
	<path clip-path="url(#SVGID_2_)" fill-rule="evenodd" clip-rule="evenodd" fill="#FF9C9C" d="M193.92,98.28
		c0-52.335-43.119-95.4-95.521-95.4S2.88,45.945,2.88,98.28s43.118,95.399,95.52,95.399S193.92,150.615,193.92,98.28"/>
	<path clip-path="url(#SVGID_2_)" fill-rule="evenodd" clip-rule="evenodd" fill="#FF9393" d="M193.439,98.28
		c0-52.071-42.902-94.92-95.04-94.92S3.359,46.208,3.359,98.28c0,52.07,42.902,94.92,95.04,94.92S193.439,150.35,193.439,98.28"/>
	<path clip-path="url(#SVGID_2_)" fill-rule="evenodd" clip-rule="evenodd" fill="#FF8989" d="M192.959,98.4
		c0-51.874-42.686-94.56-94.56-94.56C46.526,3.84,3.84,46.526,3.84,98.4c0,51.873,42.687,94.561,94.56,94.561
		C150.273,192.96,192.959,150.273,192.959,98.4"/>
	<path clip-path="url(#SVGID_2_)" fill-rule="evenodd" clip-rule="evenodd" fill="#FF7F7F" d="M192.479,98.4
		c0-51.611-42.471-94.08-94.08-94.08S4.319,46.789,4.319,98.4c0,51.609,42.471,94.08,94.08,94.08S192.479,150.009,192.479,98.4"/>
	<path clip-path="url(#SVGID_2_)" fill-rule="evenodd" clip-rule="evenodd" fill="#FF7575" d="M192,98.4
		c0-51.348-42.252-93.6-93.601-93.6C47.052,4.8,4.8,47.052,4.8,98.4s42.252,93.6,93.6,93.6C149.748,192,192,149.748,192,98.4"/>
	<path clip-path="url(#SVGID_2_)" fill-rule="evenodd" clip-rule="evenodd" fill="#FF6B6B" d="M191.52,98.28
		c0-51.018-42.036-93-93.12-93s-93.12,41.982-93.12,93c0,51.02,42.036,93,93.12,93S191.52,149.299,191.52,98.28"/>
	<path clip-path="url(#SVGID_2_)" fill-rule="evenodd" clip-rule="evenodd" fill="#FF6161" d="M191.039,98.28
		c0-50.755-41.819-92.52-92.64-92.52S5.76,47.525,5.76,98.28S47.579,190.8,98.399,190.8S191.039,149.035,191.039,98.28"/>
	<path clip-path="url(#SVGID_2_)" fill-rule="evenodd" clip-rule="evenodd" fill="#FF5858" d="M190.56,98.28
		c0-50.492-41.602-92.04-92.16-92.04S6.239,47.788,6.239,98.28c0,50.491,41.602,92.04,92.16,92.04S190.56,148.771,190.56,98.28"/>
	<path clip-path="url(#SVGID_2_)" fill-rule="evenodd" clip-rule="evenodd" fill="#FF4E4E" d="M190.079,98.4
		c0-50.294-41.385-91.68-91.68-91.68C48.105,6.72,6.72,48.106,6.72,98.4c0,50.295,41.386,91.68,91.68,91.68
		C148.694,190.08,190.079,148.695,190.079,98.4"/>
	<path clip-path="url(#SVGID_2_)" fill-rule="evenodd" clip-rule="evenodd" fill="#FF4444" d="M189.6,98.28
		c0-49.965-41.17-91.08-91.2-91.08s-91.2,41.115-91.2,91.08c0,49.966,41.17,91.08,91.2,91.08S189.6,148.246,189.6,98.28"/>
	<path clip-path="url(#SVGID_2_)" fill-rule="evenodd" clip-rule="evenodd" fill="#FF3A3A" d="M189.119,98.28
		c0-49.702-40.953-90.6-90.72-90.6S7.68,48.578,7.68,98.28c0,49.702,40.953,90.601,90.72,90.601S189.119,147.982,189.119,98.28"/>
	<path clip-path="url(#SVGID_2_)" fill-rule="evenodd" clip-rule="evenodd" fill="#FF3131" d="M188.64,98.28
		c0-49.438-40.735-90.12-90.24-90.12S8.159,48.841,8.159,98.28c0,49.438,40.735,90.12,90.24,90.12S188.64,147.717,188.64,98.28"/>
	<path clip-path="url(#SVGID_2_)" fill-rule="evenodd" clip-rule="evenodd" fill="#FF2727" d="M188.159,98.4
		c0-49.241-40.519-89.76-89.76-89.76c-49.24,0-89.76,40.52-89.76,89.76c0,49.24,40.52,89.76,89.76,89.76
		C147.641,188.16,188.159,147.64,188.159,98.4"/>
	<path clip-path="url(#SVGID_2_)" fill-rule="evenodd" clip-rule="evenodd" fill="#FF1D1D" d="M187.68,98.28
		c0-48.912-40.304-89.16-89.28-89.16S9.119,49.368,9.119,98.28c0,48.912,40.304,89.16,89.28,89.16S187.68,147.192,187.68,98.28"/>
	<path clip-path="url(#SVGID_2_)" fill-rule="evenodd" clip-rule="evenodd" fill="#FF1313" d="M187.199,98.28
		c0-48.648-40.084-88.68-88.8-88.68C49.685,9.6,9.6,49.631,9.6,98.28c0,48.647,40.085,88.681,88.8,88.681
		C147.115,186.96,187.199,146.927,187.199,98.28"/>
	<path clip-path="url(#SVGID_2_)" fill-rule="evenodd" clip-rule="evenodd" fill="#FF0909" d="M186.72,98.28
		c0-48.385-39.869-88.2-88.32-88.2s-88.32,39.815-88.32,88.2c0,48.384,39.869,88.2,88.32,88.2S186.72,146.664,186.72,98.28"/>
	<path clip-path="url(#SVGID_2_)" fill-rule="evenodd" clip-rule="evenodd" fill="#FF0000" d="M186.239,98.28
		c0-48.122-39.652-87.72-87.84-87.72S10.56,50.158,10.56,98.28c0,48.122,39.652,87.72,87.84,87.72S186.239,146.402,186.239,98.28"/>
</g>
</svg>
