<?xml version="1.0" encoding="utf-8"?>
<!-- Generator: Adobe Illustrator 15.0.0, SVG Export Plug-In . SVG Version: 6.00 Build 0)  -->
<!DOCTYPE svg PUBLIC "-//W3C//DTD SVG 1.1//EN" "http://www.w3.org/Graphics/SVG/1.1/DTD/svg11.dtd">
<svg version="1.1" id="Layer_1" xmlns="http://www.w3.org/2000/svg" xmlns:xlink="http://www.w3.org/1999/xlink" x="0px" y="0px"
	 width="349.44px" height="349.68px" viewBox="0 0 349.44 349.68" enable-background="new 0 0 349.44 349.68" xml:space="preserve">
<g>
	<defs>
		<path id="SVGID_1_" d="M349.44,174.84C349.44,78.926,270.569,0,174.72,0S0,78.926,0,174.84c0,95.913,78.871,174.84,174.72,174.84
			S349.44,270.753,349.44,174.84"/>
	</defs>
	<clipPath id="SVGID_2_">
		<use xlink:href="#SVGID_1_"  overflow="visible"/>
	</clipPath>
	<path clip-path="url(#SVGID_2_)" fill-rule="evenodd" clip-rule="evenodd" fill="#FFC91C" d="M422.4,174.84
		C422.4,39.034,310.594-72.72,174.72-72.72S-72.96,39.034-72.96,174.84c0,135.806,111.807,247.56,247.68,247.56
		S422.4,310.646,422.4,174.84"/>
	<path clip-path="url(#SVGID_2_)" fill-rule="evenodd" clip-rule="evenodd" fill="#FFC91D" d="M352.08,174.84
		c0-97.363-80.063-177.48-177.36-177.48S-2.64,77.477-2.64,174.84S77.424,352.32,174.72,352.32S352.08,272.204,352.08,174.84"/>
	<path clip-path="url(#SVGID_2_)" fill-rule="evenodd" clip-rule="evenodd" fill="#FFCA1D" d="M351.6,174.72
		c0-97.035-79.845-176.88-176.879-176.88S-2.16,77.686-2.16,174.72c0,97.034,79.846,176.88,176.88,176.88
		S351.6,271.754,351.6,174.72"/>
	<path clip-path="url(#SVGID_2_)" fill-rule="evenodd" clip-rule="evenodd" fill="#FFCA1E" d="M350.88,174.72
		c0-96.639-79.521-176.16-176.16-176.16C78.082-1.44-1.44,78.082-1.44,174.72s79.521,176.16,176.16,176.16
		C271.358,350.88,350.88,271.359,350.88,174.72"/>
	<path clip-path="url(#SVGID_2_)" fill-rule="evenodd" clip-rule="evenodd" fill="#FFCB1E" d="M350.4,174.72
		c0-96.375-79.306-175.68-175.68-175.68S-0.96,78.346-0.96,174.72c0,96.374,79.306,175.68,175.68,175.68S350.4,271.094,350.4,174.72
		"/>
	<path clip-path="url(#SVGID_2_)" fill-rule="evenodd" clip-rule="evenodd" fill="#FFCB1F" d="M349.92,174.72
		c0-96.113-79.087-175.2-175.2-175.2S-0.48,78.607-0.48,174.72c0,96.112,79.087,175.2,175.2,175.2S349.92,270.833,349.92,174.72"/>
	<path clip-path="url(#SVGID_2_)" fill-rule="evenodd" clip-rule="evenodd" fill="#FFCC20" d="M349.2,174.72
		c0-95.717-78.764-174.48-174.48-174.48C79.003,0.24,0.24,79.003,0.24,174.72S79.003,349.2,174.72,349.2
		C270.437,349.2,349.2,270.437,349.2,174.72"/>
	<path clip-path="url(#SVGID_2_)" fill-rule="evenodd" clip-rule="evenodd" fill="#FFCD21" d="M348.24,174.72
		c0-95.191-78.329-173.52-173.52-173.52C79.529,1.2,1.2,79.529,1.2,174.72s78.329,173.52,173.52,173.52
		C269.911,348.24,348.24,269.912,348.24,174.72"/>
	<path clip-path="url(#SVGID_2_)" fill-rule="evenodd" clip-rule="evenodd" fill="#FFCD22" d="M347.28,174.84
		c0-94.73-77.896-172.68-172.56-172.68S2.16,80.11,2.16,174.84s77.896,172.68,172.56,172.68S347.28,269.571,347.28,174.84"/>
	<path clip-path="url(#SVGID_2_)" fill-rule="evenodd" clip-rule="evenodd" fill="#FFCE23" d="M346.8,174.72
		c0-94.399-77.681-172.08-172.08-172.08C80.321,2.64,2.64,80.321,2.64,174.72S80.321,346.8,174.72,346.8
		C269.119,346.8,346.8,269.12,346.8,174.72"/>
	<path clip-path="url(#SVGID_2_)" fill-rule="evenodd" clip-rule="evenodd" fill="#FFCF24" d="M345.6,174.72
		c0-93.742-77.138-170.88-170.879-170.88S3.84,80.979,3.84,174.72c0,93.741,77.139,170.88,170.88,170.88S345.6,268.461,345.6,174.72
		"/>
	<path clip-path="url(#SVGID_2_)" fill-rule="evenodd" clip-rule="evenodd" fill="#FFD025" d="M344.64,174.84
		C344.64,81.559,267.881,4.8,174.6,4.8S4.56,81.559,4.56,174.84c0,93.28,76.759,170.04,170.04,170.04S344.64,268.121,344.64,174.84"
		/>
	<path clip-path="url(#SVGID_2_)" fill-rule="evenodd" clip-rule="evenodd" fill="#FFD026" d="M343.92,174.72
		c0-92.82-76.38-169.2-169.2-169.2C81.9,5.52,5.52,81.9,5.52,174.72s76.38,169.2,169.2,169.2
		C267.54,343.92,343.92,267.541,343.92,174.72"/>
	<path clip-path="url(#SVGID_2_)" fill-rule="evenodd" clip-rule="evenodd" fill="#FFD127" d="M343.2,174.72
		c0-92.427-76.054-168.48-168.48-168.48C82.293,6.24,6.24,82.293,6.24,174.72c0,92.426,76.053,168.479,168.48,168.479
		C267.146,343.2,343.2,267.146,343.2,174.72"/>
	<path clip-path="url(#SVGID_2_)" fill-rule="evenodd" clip-rule="evenodd" fill="#FFD228" d="M342.24,174.84
		c0-91.834-75.622-167.4-167.52-167.4C82.822,7.44,7.2,83.006,7.2,174.84c0,91.833,75.622,167.399,167.52,167.399
		C266.618,342.24,342.24,266.673,342.24,174.84"/>
	<path clip-path="url(#SVGID_2_)" fill-rule="evenodd" clip-rule="evenodd" fill="#FFD229" d="M341.28,174.72
		c0-91.373-75.188-166.56-166.56-166.56C83.347,8.16,8.16,83.347,8.16,174.72s75.187,166.56,166.56,166.56
		C266.093,341.28,341.28,266.093,341.28,174.72"/>
	<path clip-path="url(#SVGID_2_)" fill-rule="evenodd" clip-rule="evenodd" fill="#FFD329" d="M340.8,174.72
		c0-91.109-74.971-166.08-166.08-166.08S8.64,83.611,8.64,174.72c0,91.108,74.971,166.08,166.08,166.08S340.8,265.829,340.8,174.72"
		/>
	<path clip-path="url(#SVGID_2_)" fill-rule="evenodd" clip-rule="evenodd" fill="#FFD32A" d="M340.32,174.72
		c0-90.845-74.755-165.6-165.6-165.6S9.12,83.875,9.12,174.72s74.755,165.6,165.6,165.6S340.32,265.565,340.32,174.72"/>
	<path clip-path="url(#SVGID_2_)" fill-rule="evenodd" clip-rule="evenodd" fill="#FFD42B" d="M339.6,174.72
		c0-90.451-74.429-164.88-164.879-164.88C84.269,9.84,9.84,84.269,9.84,174.72S84.269,339.6,174.72,339.6
		C265.171,339.6,339.6,265.171,339.6,174.72"/>
	<path clip-path="url(#SVGID_2_)" fill-rule="evenodd" clip-rule="evenodd" fill="#FFD52C" d="M338.64,174.72
		c0-89.923-73.996-163.92-163.919-163.92S10.8,84.797,10.8,174.72c0,89.923,73.997,163.92,163.92,163.92
		S338.64,264.643,338.64,174.72"/>
	<path clip-path="url(#SVGID_2_)" fill-rule="evenodd" clip-rule="evenodd" fill="#FFD52D" d="M337.68,174.84
		c0-89.463-73.562-163.08-162.959-163.08S11.76,85.377,11.76,174.84c0,89.462,73.562,163.08,162.96,163.08
		S337.68,264.302,337.68,174.84"/>
	<path clip-path="url(#SVGID_2_)" fill-rule="evenodd" clip-rule="evenodd" fill="#FFD62E" d="M337.2,174.72
		c0-89.134-73.347-162.48-162.48-162.48c-89.134,0-162.48,73.346-162.48,162.48S85.586,337.2,174.72,337.2
		C263.854,337.2,337.2,263.854,337.2,174.72"/>
	<path clip-path="url(#SVGID_2_)" fill-rule="evenodd" clip-rule="evenodd" fill="#FFD72F" d="M336,174.72
		c0-88.476-72.804-161.28-161.28-161.28S13.44,86.244,13.44,174.72C13.44,263.196,86.244,336,174.72,336S336,263.196,336,174.72"/>
	<path clip-path="url(#SVGID_2_)" fill-rule="evenodd" clip-rule="evenodd" fill="#FFD730" d="M335.28,174.84
		c0-88.016-72.48-160.44-160.56-160.44c-88.08,0-160.56,72.425-160.56,160.44c0,88.015,72.48,160.439,160.56,160.439
		C262.8,335.28,335.28,262.855,335.28,174.84"/>
	<path clip-path="url(#SVGID_2_)" fill-rule="evenodd" clip-rule="evenodd" fill="#FFD830" d="M334.8,174.72
		c0-87.818-72.262-160.08-160.08-160.08c-87.818,0-160.08,72.262-160.08,160.08S86.902,334.8,174.72,334.8
		C262.538,334.8,334.8,262.539,334.8,174.72"/>
	<path clip-path="url(#SVGID_2_)" fill-rule="evenodd" clip-rule="evenodd" fill="#FFD831" d="M334.319,174.72
		c0-87.555-72.045-159.6-159.599-159.6c-87.555,0-159.6,72.045-159.6,159.6s72.045,159.6,159.6,159.6
		C262.274,334.32,334.319,262.275,334.319,174.72"/>
	<path clip-path="url(#SVGID_2_)" fill-rule="evenodd" clip-rule="evenodd" fill="#FFD932" d="M333.601,174.72
		c0-87.159-71.723-158.88-158.88-158.88c-87.159,0-158.88,71.721-158.88,158.88c0,87.158,71.722,158.88,158.88,158.88
		C261.878,333.6,333.601,261.878,333.601,174.72"/>
	<path clip-path="url(#SVGID_2_)" fill-rule="evenodd" clip-rule="evenodd" fill="#FFDA33" d="M332.64,174.72
		c0-86.633-71.287-157.92-157.919-157.92C88.087,16.8,16.8,88.087,16.8,174.72s71.288,157.92,157.92,157.92
		C261.353,332.64,332.64,261.353,332.64,174.72"/>
	<path clip-path="url(#SVGID_2_)" fill-rule="evenodd" clip-rule="evenodd" fill="#FFDA34" d="M331.681,174.72
		c0-86.105-70.855-156.96-156.96-156.96S17.76,88.615,17.76,174.72c0,86.104,70.855,156.96,156.96,156.96
		S331.681,260.825,331.681,174.72"/>
	<path clip-path="url(#SVGID_2_)" fill-rule="evenodd" clip-rule="evenodd" fill="#FFDB34" d="M331.2,174.72
		c0-85.843-70.637-156.48-156.48-156.48S18.24,88.877,18.24,174.72c0,85.843,70.637,156.479,156.48,156.479
		S331.2,260.563,331.2,174.72"/>
	<path clip-path="url(#SVGID_2_)" fill-rule="evenodd" clip-rule="evenodd" fill="#FFDB35" d="M330.72,174.72
		c0-85.58-70.42-156-156-156s-156,70.42-156,156c0,85.579,70.42,156,156,156S330.72,260.299,330.72,174.72"/>
	<path clip-path="url(#SVGID_2_)" fill-rule="evenodd" clip-rule="evenodd" fill="#FFDC36" d="M330,174.72
		c0-85.184-70.097-155.28-155.28-155.28S19.44,89.537,19.44,174.72C19.44,259.903,89.537,330,174.72,330S330,259.903,330,174.72"/>
	<path clip-path="url(#SVGID_2_)" fill-rule="evenodd" clip-rule="evenodd" fill="#FFDD37" d="M329.04,174.72
		c0-84.658-69.662-154.32-154.32-154.32S20.4,90.062,20.4,174.72c0,84.657,69.663,154.32,154.32,154.32
		S329.04,259.377,329.04,174.72"/>
	<path clip-path="url(#SVGID_2_)" fill-rule="evenodd" clip-rule="evenodd" fill="#FFDD38" d="M328.08,174.84
		c0-84.197-69.228-153.48-153.36-153.48S21.36,90.643,21.36,174.84c0,84.196,69.228,153.479,153.36,153.479
		S328.08,259.037,328.08,174.84"/>
	<path clip-path="url(#SVGID_2_)" fill-rule="evenodd" clip-rule="evenodd" fill="#FFDE39" d="M327.601,174.72
		c0-83.868-69.013-152.88-152.88-152.88c-83.868,0-152.88,69.012-152.88,152.88S90.852,327.6,174.72,327.6
		C258.588,327.6,327.601,258.588,327.601,174.72"/>
	<path clip-path="url(#SVGID_2_)" fill-rule="evenodd" clip-rule="evenodd" fill="#FFDF3A" d="M326.399,174.72
		c0-83.208-68.471-151.68-151.679-151.68c-83.208,0-151.68,68.472-151.68,151.68S91.512,326.4,174.72,326.4
		C257.929,326.4,326.399,257.928,326.399,174.72"/>
	<path clip-path="url(#SVGID_2_)" fill-rule="evenodd" clip-rule="evenodd" fill="#FFDF3B" d="M325.681,174.84
		C325.681,92.093,257.534,24,174.72,24C91.906,24,23.76,92.093,23.76,174.84c0,82.747,68.146,150.84,150.96,150.84
		C257.534,325.68,325.681,257.587,325.681,174.84"/>
	<path clip-path="url(#SVGID_2_)" fill-rule="evenodd" clip-rule="evenodd" fill="#FFE03B" d="M325.2,174.72
		c0-82.551-67.93-150.48-150.48-150.48c-82.551,0-150.48,67.929-150.48,150.48c0,82.55,67.929,150.479,150.48,150.479
		C257.271,325.2,325.2,257.27,325.2,174.72"/>
	<path clip-path="url(#SVGID_2_)" fill-rule="evenodd" clip-rule="evenodd" fill="#FFE03C" d="M324.72,174.72
		c0-82.287-67.713-150-150-150s-150,67.713-150,150c0,82.286,67.713,150,150,150S324.72,257.006,324.72,174.72"/>
	<path clip-path="url(#SVGID_2_)" fill-rule="evenodd" clip-rule="evenodd" fill="#FFE13D" d="M324,174.72
		c0-81.893-67.388-149.28-149.28-149.28c-81.893,0-149.28,67.387-149.28,149.28C25.44,256.613,92.827,324,174.72,324
		C256.612,324,324,256.613,324,174.72"/>
	<path clip-path="url(#SVGID_2_)" fill-rule="evenodd" clip-rule="evenodd" fill="#FFE23E" d="M323.04,174.72
		c0-81.365-66.955-148.32-148.32-148.32S26.4,93.355,26.4,174.72c0,81.364,66.956,148.32,148.32,148.32
		S323.04,256.084,323.04,174.72"/>
	<path clip-path="url(#SVGID_2_)" fill-rule="evenodd" clip-rule="evenodd" fill="#FFE23F" d="M322.08,174.72
		c0-80.839-66.521-147.36-147.36-147.36S27.36,93.881,27.36,174.72c0,80.839,66.521,147.359,147.36,147.359
		S322.08,255.559,322.08,174.72"/>
	<path clip-path="url(#SVGID_2_)" fill-rule="evenodd" clip-rule="evenodd" fill="#FFE33F" d="M321.601,174.84
		c0-80.643-66.305-147-146.88-147c-80.575,0-146.88,66.357-146.88,147c0,80.642,66.305,147,146.88,147
		C255.296,321.84,321.601,255.482,321.601,174.84"/>
	<path clip-path="url(#SVGID_2_)" fill-rule="evenodd" clip-rule="evenodd" fill="#FFE340" d="M321.12,174.72
		c0-80.313-66.086-146.4-146.4-146.4s-146.4,66.087-146.4,146.4S94.406,321.12,174.72,321.12S321.12,255.034,321.12,174.72"/>
	<path clip-path="url(#SVGID_2_)" fill-rule="evenodd" clip-rule="evenodd" fill="#FFE441" d="M320.399,174.84
		c0-79.982-65.762-145.8-145.679-145.8c-79.918,0-145.68,65.818-145.68,145.8s65.762,145.8,145.68,145.8
		C254.638,320.64,320.399,254.823,320.399,174.84"/>
	<path clip-path="url(#SVGID_2_)" fill-rule="evenodd" clip-rule="evenodd" fill="#FFE441" d="M319.92,174.72
		c0-79.654-65.546-145.2-145.2-145.2s-145.2,65.546-145.2,145.2c0,79.653,65.546,145.2,145.2,145.2S319.92,254.374,319.92,174.72"/>
	<path clip-path="url(#SVGID_2_)" fill-rule="evenodd" clip-rule="evenodd" fill="#FFE542" d="M319.44,174.72
		C319.44,95.328,254.112,30,174.72,30S30,95.328,30,174.72c0,79.392,65.328,144.72,144.72,144.72S319.44,254.112,319.44,174.72"/>
	<path clip-path="url(#SVGID_2_)" fill-rule="evenodd" clip-rule="evenodd" fill="#FFE543" d="M318.479,174.84
		c0-78.932-64.896-143.88-143.759-143.88c-78.864,0-143.76,64.949-143.76,143.88c0,78.931,64.896,143.88,143.76,143.88
		C253.584,318.72,318.479,253.771,318.479,174.84"/>
	<path clip-path="url(#SVGID_2_)" fill-rule="evenodd" clip-rule="evenodd" fill="#FFE644" d="M318,174.84
		c0-78.667-64.681-143.4-143.28-143.4c-78.6,0-143.28,64.733-143.28,143.4c0,78.667,64.68,143.399,143.28,143.399
		C253.319,318.24,318,253.507,318,174.84"/>
	<path clip-path="url(#SVGID_2_)" fill-rule="evenodd" clip-rule="evenodd" fill="#FFE745" d="M316.8,174.84
		c0-78.01-64.137-142.2-142.08-142.2c-77.942,0-142.08,64.19-142.08,142.2s64.138,142.2,142.08,142.2
		C252.663,317.041,316.8,252.85,316.8,174.84"/>
	<path clip-path="url(#SVGID_2_)" fill-rule="evenodd" clip-rule="evenodd" fill="#FFE746" d="M316.08,174.84
		c0-77.482-63.812-141.24-141.36-141.24c-77.549,0-141.36,63.758-141.36,141.24c0,77.481,63.812,141.239,141.36,141.239
		C252.269,316.08,316.08,252.322,316.08,174.84"/>
	<path clip-path="url(#SVGID_2_)" fill-rule="evenodd" clip-rule="evenodd" fill="#FFE846" d="M315.601,174.84
		c0-77.35-63.65-141-141-141c-77.35,0-141,63.65-141,141c0,77.35,63.65,141,141,141C251.95,315.84,315.601,252.19,315.601,174.84"/>
	<path clip-path="url(#SVGID_2_)" fill-rule="evenodd" clip-rule="evenodd" fill="#FFE847" d="M315.12,174.72
		c0-77.021-63.379-140.4-140.4-140.4s-140.4,63.379-140.4,140.4c0,77.021,63.379,140.399,140.4,140.399
		S315.12,251.741,315.12,174.72"/>
	<path clip-path="url(#SVGID_2_)" fill-rule="evenodd" clip-rule="evenodd" fill="#FFE948" d="M314.399,174.84
		c0-76.692-63.107-139.8-139.799-139.8S34.8,98.148,34.8,174.84c0,76.691,63.108,139.8,139.8,139.8S314.399,251.532,314.399,174.84"
		/>
	<path clip-path="url(#SVGID_2_)" fill-rule="evenodd" clip-rule="evenodd" fill="#FFEA49" d="M313.44,174.72
		c0-76.1-62.621-138.72-138.72-138.72C98.621,36,36,98.621,36,174.72c0,76.099,62.621,138.72,138.72,138.72
		C250.819,313.44,313.44,250.819,313.44,174.72"/>
	<path clip-path="url(#SVGID_2_)" fill-rule="evenodd" clip-rule="evenodd" fill="#FFEA4A" d="M312.479,174.72
		c0-75.574-62.186-137.76-137.759-137.76S36.96,99.146,36.96,174.72c0,75.573,62.187,137.76,137.76,137.76
		S312.479,250.293,312.479,174.72"/>
	<path clip-path="url(#SVGID_2_)" fill-rule="evenodd" clip-rule="evenodd" fill="#FFEB4A" d="M312,174.84
		c0-75.375-62.025-137.4-137.4-137.4S37.2,99.466,37.2,174.84c0,75.374,62.025,137.399,137.4,137.399S312,250.214,312,174.84"/>
	<path clip-path="url(#SVGID_2_)" fill-rule="evenodd" clip-rule="evenodd" fill="#FFEB4B" d="M311.521,174.72
		c0-75.046-61.755-136.8-136.8-136.8c-75.046,0-136.8,61.754-136.8,136.8c0,75.045,61.754,136.8,136.8,136.8
		C249.766,311.52,311.521,249.765,311.521,174.72"/>
	<path clip-path="url(#SVGID_2_)" fill-rule="evenodd" clip-rule="evenodd" fill="#FFEC4C" d="M311.04,174.84
		c0-74.717-61.536-136.2-136.32-136.2c-74.784,0-136.32,61.483-136.32,136.2c0,74.717,61.536,136.2,136.32,136.2
		C249.504,311.041,311.04,249.557,311.04,174.84"/>
	<path clip-path="url(#SVGID_2_)" fill-rule="evenodd" clip-rule="evenodd" fill="#FFED4D" d="M309.84,174.72
		c0-74.124-60.995-135.12-135.12-135.12c-74.124,0-135.12,60.996-135.12,135.12s60.996,135.12,135.12,135.12
		C248.845,309.84,309.84,248.844,309.84,174.72"/>
	<path clip-path="url(#SVGID_2_)" fill-rule="evenodd" clip-rule="evenodd" fill="#FFEE4E" d="M308.88,174.84
		c0-73.664-60.562-134.28-134.16-134.28c-73.599,0-134.16,60.617-134.16,134.28c0,73.663,60.562,134.279,134.16,134.279
		C248.318,309.12,308.88,248.503,308.88,174.84"/>
	<path clip-path="url(#SVGID_2_)" fill-rule="evenodd" clip-rule="evenodd" fill="#FFEE4F" d="M308.16,174.72
		c0-73.203-60.237-133.44-133.44-133.44S41.28,101.518,41.28,174.72c0,73.202,60.237,133.439,133.44,133.439
		S308.16,247.922,308.16,174.72"/>
	<path clip-path="url(#SVGID_2_)" fill-rule="evenodd" clip-rule="evenodd" fill="#FFEF50" d="M307.44,174.84
		c0-72.742-59.912-132.6-132.72-132.6C101.911,42.24,42,102.099,42,174.84c0,72.741,59.911,132.6,132.72,132.6
		C247.528,307.44,307.44,247.582,307.44,174.84"/>
	<path clip-path="url(#SVGID_2_)" fill-rule="evenodd" clip-rule="evenodd" fill="#FFF051" d="M306.479,174.84
		c0-72.216-59.479-131.64-131.759-131.64S42.96,102.624,42.96,174.84c0,72.216,59.479,131.64,131.76,131.64
		S306.479,247.056,306.479,174.84"/>
	<path clip-path="url(#SVGID_2_)" fill-rule="evenodd" clip-rule="evenodd" fill="#FFF052" d="M305.521,174.72
		c0-71.755-59.045-130.8-130.8-130.8s-130.8,59.045-130.8,130.8c0,71.755,59.045,130.8,130.8,130.8S305.521,246.475,305.521,174.72"
		/>
	<path clip-path="url(#SVGID_2_)" fill-rule="evenodd" clip-rule="evenodd" fill="#FFF152" d="M305.04,174.72
		c0-71.491-58.829-130.32-130.32-130.32c-71.491,0-130.32,58.829-130.32,130.32s58.829,130.32,130.32,130.32
		C246.211,305.041,305.04,246.211,305.04,174.72"/>
	<path clip-path="url(#SVGID_2_)" fill-rule="evenodd" clip-rule="evenodd" fill="#FFF153" d="M304.56,174.72
		c0-71.228-58.612-129.84-129.839-129.84c-71.228,0-129.84,58.613-129.84,129.84c0,71.227,58.613,129.84,129.84,129.84
		C245.947,304.56,304.56,245.947,304.56,174.72"/>
	<path clip-path="url(#SVGID_2_)" fill-rule="evenodd" clip-rule="evenodd" fill="#FFF254" d="M303.84,174.72
		c0-70.834-58.286-129.12-129.12-129.12S45.6,103.886,45.6,174.72c0,70.833,58.287,129.12,129.12,129.12
		S303.84,245.553,303.84,174.72"/>
	<path clip-path="url(#SVGID_2_)" fill-rule="evenodd" clip-rule="evenodd" fill="#FFF355" d="M302.88,174.72
		c0-70.306-57.854-128.16-128.16-128.16c-70.306,0-128.16,57.854-128.16,128.16s57.854,128.16,128.16,128.16
		C245.025,302.88,302.88,245.026,302.88,174.72"/>
	<path clip-path="url(#SVGID_2_)" fill-rule="evenodd" clip-rule="evenodd" fill="#FFF356" d="M301.92,174.72
		c0-69.78-57.42-127.2-127.2-127.2c-69.78,0-127.2,57.42-127.2,127.2s57.42,127.2,127.2,127.2
		C244.5,301.92,301.92,244.5,301.92,174.72"/>
	<path clip-path="url(#SVGID_2_)" fill-rule="evenodd" clip-rule="evenodd" fill="#FFF457" d="M301.44,174.72
		C301.44,105.204,244.235,48,174.72,48C105.204,48,48,105.204,48,174.72c0,69.516,57.204,126.72,126.72,126.72
		C244.235,301.44,301.44,244.236,301.44,174.72"/>
	<path clip-path="url(#SVGID_2_)" fill-rule="evenodd" clip-rule="evenodd" fill="#FFF558" d="M300.24,174.72
		c0-68.858-56.661-125.52-125.52-125.52c-68.858,0-125.52,56.662-125.52,125.52s56.662,125.52,125.52,125.52
		C243.579,300.24,300.24,243.579,300.24,174.72"/>
	<path clip-path="url(#SVGID_2_)" fill-rule="evenodd" clip-rule="evenodd" fill="#FFF659" d="M299.28,174.84
		c0-68.398-56.23-124.68-124.56-124.68c-68.331,0-124.56,56.282-124.56,124.68c0,68.397,56.229,124.68,124.56,124.68
		C243.05,299.52,299.28,243.238,299.28,174.84"/>
	<path clip-path="url(#SVGID_2_)" fill-rule="evenodd" clip-rule="evenodd" fill="#FFF65A" d="M298.56,174.72
		c0-67.937-55.902-123.84-123.839-123.84S50.88,106.783,50.88,174.72c0,67.937,55.903,123.84,123.84,123.84
		S298.56,242.657,298.56,174.72"/>
	<path clip-path="url(#SVGID_2_)" fill-rule="evenodd" clip-rule="evenodd" fill="#FFF75B" d="M297.84,174.72
		c0-67.541-55.579-123.12-123.12-123.12c-67.541,0-123.12,55.579-123.12,123.12s55.579,123.12,123.12,123.12
		C242.261,297.84,297.84,242.261,297.84,174.72"/>
	<path clip-path="url(#SVGID_2_)" fill-rule="evenodd" clip-rule="evenodd" fill="#FFF85C" d="M296.88,174.84
		c0-66.948-55.145-122.04-122.16-122.04S52.56,107.892,52.56,174.84c0,66.947,55.145,122.04,122.16,122.04
		S296.88,241.788,296.88,174.84"/>
	<path clip-path="url(#SVGID_2_)" fill-rule="evenodd" clip-rule="evenodd" fill="#FFF85D" d="M295.92,174.72
		c0-66.487-54.713-121.2-121.2-121.2c-66.487,0-121.2,54.713-121.2,121.2s54.713,121.2,121.2,121.2
		C241.207,295.92,295.92,241.208,295.92,174.72"/>
	<path clip-path="url(#SVGID_2_)" fill-rule="evenodd" clip-rule="evenodd" fill="#FFF95D" d="M295.44,174.72
		C295.44,108.495,240.946,54,174.72,54C108.495,54,54,108.495,54,174.72s54.495,120.72,120.72,120.72
		C240.946,295.44,295.44,240.946,295.44,174.72"/>
	<path clip-path="url(#SVGID_2_)" fill-rule="evenodd" clip-rule="evenodd" fill="#FFF95E" d="M294.96,174.72
		c0-65.962-54.278-120.24-120.24-120.24c-65.962,0-120.24,54.278-120.24,120.24c0,65.961,54.278,120.24,120.24,120.24
		C240.682,294.96,294.96,240.681,294.96,174.72"/>
	<path clip-path="url(#SVGID_2_)" fill-rule="evenodd" clip-rule="evenodd" fill="#FFFA5F" d="M294.24,174.72
		c0-65.566-53.954-119.52-119.52-119.52S55.2,109.154,55.2,174.72c0,65.565,53.954,119.52,119.52,119.52
		S294.24,240.286,294.24,174.72"/>
	<path clip-path="url(#SVGID_2_)" fill-rule="evenodd" clip-rule="evenodd" fill="#FFFB60" d="M293.28,174.72
		c0-65.04-53.521-118.56-118.56-118.56c-65.04,0-118.56,53.52-118.56,118.56s53.52,118.56,118.56,118.56
		C239.76,293.28,293.28,239.76,293.28,174.72"/>
	<path clip-path="url(#SVGID_2_)" fill-rule="evenodd" clip-rule="evenodd" fill="#FFFB61" d="M292.319,174.84
		c0-64.58-53.085-117.72-117.599-117.72c-64.515,0-117.6,53.141-117.6,117.72c0,64.579,53.085,117.72,117.6,117.72
		C239.234,292.56,292.319,239.419,292.319,174.84"/>
	<path clip-path="url(#SVGID_2_)" fill-rule="evenodd" clip-rule="evenodd" fill="#FFFC62" d="M291.84,174.72
		c0-64.25-52.87-117.12-117.12-117.12c-64.25,0-117.12,52.87-117.12,117.12c0,64.25,52.87,117.12,117.12,117.12
		C238.97,291.84,291.84,238.97,291.84,174.72"/>
	<path clip-path="url(#SVGID_2_)" fill-rule="evenodd" clip-rule="evenodd" fill="#FFFD63" d="M290.64,174.72
		c0-63.593-52.326-115.92-115.919-115.92c-63.593,0-115.92,52.327-115.92,115.92s52.328,115.92,115.92,115.92
		C238.313,290.64,290.64,238.313,290.64,174.72"/>
	<path clip-path="url(#SVGID_2_)" fill-rule="evenodd" clip-rule="evenodd" fill="#FFFE64" d="M289.681,174.84
		c0-63.132-51.949-115.08-115.081-115.08c-63.132,0-115.08,51.948-115.08,115.08c0,63.132,51.948,115.08,115.08,115.08
		C237.731,289.92,289.681,237.972,289.681,174.84"/>
	<path clip-path="url(#SVGID_2_)" fill-rule="evenodd" clip-rule="evenodd" fill="#FFFE65" d="M288.96,174.72
		c0-62.671-51.568-114.24-114.24-114.24S60.48,112.049,60.48,174.72c0,62.671,51.569,114.24,114.24,114.24
		S288.96,237.391,288.96,174.72"/>
	<path clip-path="url(#SVGID_2_)" fill-rule="evenodd" clip-rule="evenodd" fill="#FFFF66" d="M288.24,174.72
		c0-62.275-51.245-113.52-113.52-113.52c-62.275,0-113.52,51.245-113.52,113.52s51.245,113.52,113.52,113.52
		C236.995,288.24,288.24,236.996,288.24,174.72"/>
	<path clip-path="url(#SVGID_2_)" fill-rule="evenodd" clip-rule="evenodd" fill="#FFFF66" d="M287.521,174.84
		c0-61.947-50.922-112.92-112.8-112.92c-61.879,0-112.8,50.974-112.8,112.92c0,61.946,50.921,112.92,112.8,112.92
		C236.599,287.76,287.521,236.787,287.521,174.84"/>
</g>
</svg>
