<?xml version="1.0" encoding="utf-8"?>
<!-- Generator: Adobe Illustrator 15.0.0, SVG Export Plug-In . SVG Version: 6.00 Build 0)  -->
<!DOCTYPE svg PUBLIC "-//W3C//DTD SVG 1.1//EN" "http://www.w3.org/Graphics/SVG/1.1/DTD/svg11.dtd">
<svg version="1.1" id="Layer_1" xmlns="http://www.w3.org/2000/svg" xmlns:xlink="http://www.w3.org/1999/xlink" x="0px" y="0px"
	 width="184.8px" height="184.8px" viewBox="0 0 184.8 184.8" enable-background="new 0 0 184.8 184.8" xml:space="preserve">
<g>
	<defs>
		<path id="SVGID_1_" d="M184.8,92.4C184.8,41.71,143.088,0,92.4,0C41.712,0,0,41.71,0,92.4c0,50.688,41.712,92.4,92.4,92.4
			C143.088,184.8,184.8,143.087,184.8,92.4"/>
	</defs>
	<clipPath id="SVGID_2_">
		<use xlink:href="#SVGID_1_"  overflow="visible"/>
	</clipPath>
	<path clip-path="url(#SVGID_2_)" fill-rule="evenodd" clip-rule="evenodd" fill="#FFC91C" d="M223.44,92.28
		c0-71.952-59.152-131.16-131.04-131.16c-71.887,0-131.04,59.208-131.04,131.16S20.513,223.44,92.4,223.44
		C164.288,223.44,223.44,164.232,223.44,92.28"/>
	<path clip-path="url(#SVGID_2_)" fill-rule="evenodd" clip-rule="evenodd" fill="#FFCA1D" d="M186.24,92.28
		c0-51.413-42.359-93.72-93.84-93.72c-51.48,0-93.84,42.307-93.84,93.72S40.92,186,92.4,186C143.88,186,186.24,143.693,186.24,92.28
		"/>
	<path clip-path="url(#SVGID_2_)" fill-rule="evenodd" clip-rule="evenodd" fill="#FFCB1E" d="M185.52,92.4
		c0-51.084-42.036-93.12-93.12-93.12S-0.72,41.315-0.72,92.4c0,51.084,42.036,93.12,93.12,93.12S185.52,143.484,185.52,92.4"/>
	<path clip-path="url(#SVGID_2_)" fill-rule="evenodd" clip-rule="evenodd" fill="#FFCB1F" d="M185.04,92.4
		c0-50.821-41.819-92.64-92.64-92.64C41.58-0.24-0.24,41.579-0.24,92.4c0,50.82,41.82,92.64,92.64,92.64
		C143.22,185.04,185.04,143.22,185.04,92.4"/>
	<path clip-path="url(#SVGID_2_)" fill-rule="evenodd" clip-rule="evenodd" fill="#FFCC20" d="M184.56,92.28
		C184.56,41.657,142.958,0,92.4,0C41.842,0,0.24,41.657,0.24,92.28s41.602,92.28,92.16,92.28
		C142.958,184.56,184.56,142.903,184.56,92.28"/>
	<path clip-path="url(#SVGID_2_)" fill-rule="evenodd" clip-rule="evenodd" fill="#FFCD21" d="M184.08,92.28
		c0-50.36-41.385-91.8-91.68-91.8c-50.294,0-91.68,41.44-91.68,91.8c0,50.359,41.385,91.8,91.68,91.8
		C142.695,184.08,184.08,142.639,184.08,92.28"/>
	<path clip-path="url(#SVGID_2_)" fill-rule="evenodd" clip-rule="evenodd" fill="#FFCE22" d="M183.6,92.28
		c0-50.097-41.17-91.32-91.2-91.32S1.2,42.183,1.2,92.28c0,50.098,41.169,91.32,91.2,91.32S183.6,142.377,183.6,92.28"/>
	<path clip-path="url(#SVGID_2_)" fill-rule="evenodd" clip-rule="evenodd" fill="#FFCE23" d="M183.12,92.28
		c0-49.833-40.953-90.84-90.72-90.84c-49.766,0-90.72,41.007-90.72,90.84s40.954,90.84,90.72,90.84
		C142.167,183.12,183.12,142.113,183.12,92.28"/>
	<path clip-path="url(#SVGID_2_)" fill-rule="evenodd" clip-rule="evenodd" fill="#FFCF25" d="M182.64,92.28
		c0-49.57-40.735-90.36-90.24-90.36S2.16,42.709,2.16,92.28c0,49.569,40.735,90.36,90.24,90.36S182.64,141.849,182.64,92.28"/>
	<path clip-path="url(#SVGID_2_)" fill-rule="evenodd" clip-rule="evenodd" fill="#FFD026" d="M182.16,92.28
		c0-49.175-40.519-89.64-89.76-89.64c-49.241,0-89.76,40.465-89.76,89.64c0,49.176,40.519,89.64,89.76,89.64
		C141.641,181.919,182.16,141.456,182.16,92.28"/>
	<path clip-path="url(#SVGID_2_)" fill-rule="evenodd" clip-rule="evenodd" fill="#FFD127" d="M181.44,92.28
		c0-48.912-40.195-89.16-89.04-89.16S3.36,43.368,3.36,92.28c0,48.912,40.195,89.16,89.04,89.16S181.44,141.192,181.44,92.28"/>
	<path clip-path="url(#SVGID_2_)" fill-rule="evenodd" clip-rule="evenodd" fill="#FFD228" d="M180.96,92.28
		c0-48.517-39.978-88.44-88.561-88.44S3.84,43.763,3.84,92.28s39.977,88.44,88.56,88.44S180.96,140.796,180.96,92.28"/>
	<path clip-path="url(#SVGID_2_)" fill-rule="evenodd" clip-rule="evenodd" fill="#FFD329" d="M180.48,92.28
		c0-48.253-39.761-87.96-88.08-87.96S4.32,44.026,4.32,92.28c0,48.255,39.761,87.96,88.08,87.96S180.48,140.535,180.48,92.28"/>
	<path clip-path="url(#SVGID_2_)" fill-rule="evenodd" clip-rule="evenodd" fill="#FFD32A" d="M180,92.4
		C180,44.344,140.456,4.8,92.4,4.8C44.345,4.8,4.8,44.344,4.8,92.4c0,48.055,39.545,87.6,87.6,87.6
		C140.456,180,180,140.455,180,92.4"/>
	<path clip-path="url(#SVGID_2_)" fill-rule="evenodd" clip-rule="evenodd" fill="#FFD42B" d="M179.52,92.28
		c0-47.858-39.326-87.24-87.12-87.24c-47.793,0-87.12,39.382-87.12,87.24s39.327,87.24,87.12,87.24
		C140.194,179.52,179.52,140.138,179.52,92.28"/>
	<path clip-path="url(#SVGID_2_)" fill-rule="evenodd" clip-rule="evenodd" fill="#FFD52C" d="M179.04,92.4
		c0-47.529-39.11-86.64-86.64-86.64S5.76,44.871,5.76,92.4s39.11,86.64,86.64,86.64S179.04,139.929,179.04,92.4"/>
	<path clip-path="url(#SVGID_2_)" fill-rule="evenodd" clip-rule="evenodd" fill="#FFD62D" d="M178.56,92.28
		C178.56,44.948,139.666,6,92.4,6S6.24,44.948,6.24,92.28c0,47.333,38.895,86.28,86.16,86.28S178.56,139.613,178.56,92.28"/>
	<path clip-path="url(#SVGID_2_)" fill-rule="evenodd" clip-rule="evenodd" fill="#FFD62E" d="M178.08,92.28
		c0-47.068-38.678-85.8-85.68-85.8c-47.001,0-85.68,38.731-85.68,85.8c0,47.069,38.678,85.8,85.68,85.8
		C139.402,178.08,178.08,139.349,178.08,92.28"/>
	<path clip-path="url(#SVGID_2_)" fill-rule="evenodd" clip-rule="evenodd" fill="#FFD72F" d="M177.6,92.28
		c0-46.805-38.46-85.32-85.2-85.32c-46.74,0-85.2,38.515-85.2,85.32c0,46.805,38.46,85.32,85.2,85.32
		C139.14,177.6,177.6,139.084,177.6,92.28"/>
	<path clip-path="url(#SVGID_2_)" fill-rule="evenodd" clip-rule="evenodd" fill="#FFD830" d="M177.12,92.28
		c0-46.542-38.244-84.84-84.72-84.84c-46.476,0-84.72,38.298-84.72,84.84c0,46.541,38.244,84.84,84.72,84.84
		C138.875,177.12,177.12,138.821,177.12,92.28"/>
	<path clip-path="url(#SVGID_2_)" fill-rule="evenodd" clip-rule="evenodd" fill="#FFD932" d="M176.64,92.28
		c0-46.278-38.081-84.36-84.36-84.36c-46.279,0-84.36,38.082-84.36,84.36c0,46.279,38.081,84.36,84.36,84.36
		C138.559,176.64,176.64,138.559,176.64,92.28"/>
	<path clip-path="url(#SVGID_2_)" fill-rule="evenodd" clip-rule="evenodd" fill="#FFDA33" d="M175.92,92.28
		c0-45.752-37.702-83.4-83.521-83.4S8.88,46.528,8.88,92.28c0,45.751,37.702,83.399,83.52,83.399S175.92,138.031,175.92,92.28"/>
	<path clip-path="url(#SVGID_2_)" fill-rule="evenodd" clip-rule="evenodd" fill="#FFDB34" d="M175.44,92.28
		c0-45.489-37.485-82.92-83.04-82.92c-45.554,0-83.04,37.431-83.04,82.92c0,45.489,37.486,82.92,83.04,82.92
		C137.955,175.2,175.44,137.769,175.44,92.28"/>
	<path clip-path="url(#SVGID_2_)" fill-rule="evenodd" clip-rule="evenodd" fill="#FFDB35" d="M174.96,92.28
		c0-45.226-37.271-82.44-82.561-82.44S9.84,47.054,9.84,92.28s37.27,82.44,82.56,82.44S174.96,137.505,174.96,92.28"/>
	<path clip-path="url(#SVGID_2_)" fill-rule="evenodd" clip-rule="evenodd" fill="#FFDC36" d="M174.48,92.28
		c0-45.094-37.051-82.2-82.08-82.2c-45.029,0-82.08,37.106-82.08,82.2s37.051,82.2,82.08,82.2
		C137.429,174.48,174.48,137.374,174.48,92.28"/>
	<path clip-path="url(#SVGID_2_)" fill-rule="evenodd" clip-rule="evenodd" fill="#FFDD37" d="M174,92.4
		c0-44.765-36.836-81.6-81.601-81.6S10.8,47.635,10.8,92.4S47.635,174,92.4,174S174,137.165,174,92.4"/>
	<path clip-path="url(#SVGID_2_)" fill-rule="evenodd" clip-rule="evenodd" fill="#FFDE38" d="M173.52,92.4
		c0-44.501-36.619-81.12-81.12-81.12c-44.5,0-81.12,36.619-81.12,81.12s36.62,81.12,81.12,81.12
		C136.901,173.52,173.52,136.901,173.52,92.4"/>
	<path clip-path="url(#SVGID_2_)" fill-rule="evenodd" clip-rule="evenodd" fill="#FFDE39" d="M173.04,92.28
		c0-44.304-36.402-80.76-80.64-80.76c-44.237,0-80.64,36.456-80.64,80.76s36.403,80.76,80.64,80.76
		C136.637,173.04,173.04,136.583,173.04,92.28"/>
	<path clip-path="url(#SVGID_2_)" fill-rule="evenodd" clip-rule="evenodd" fill="#FFDF3A" d="M172.56,92.28
		C172.56,48.24,136.375,12,92.4,12c-43.975,0-80.16,36.24-80.16,80.28s36.185,80.28,80.16,80.28
		C136.375,172.56,172.56,136.32,172.56,92.28"/>
	<path clip-path="url(#SVGID_2_)" fill-rule="evenodd" clip-rule="evenodd" fill="#FFE03B" d="M172.08,92.28
		c0-43.777-35.969-79.8-79.68-79.8s-79.68,36.023-79.68,79.8c0,43.776,35.969,79.8,79.68,79.8S172.08,136.056,172.08,92.28"/>
	<path clip-path="url(#SVGID_2_)" fill-rule="evenodd" clip-rule="evenodd" fill="#FFE13C" d="M171.6,92.28
		c0-43.514-35.753-79.32-79.2-79.32S13.2,48.766,13.2,92.28s35.752,79.32,79.2,79.32S171.6,135.793,171.6,92.28"/>
	<path clip-path="url(#SVGID_2_)" fill-rule="evenodd" clip-rule="evenodd" fill="#FFE13D" d="M171.12,92.28
		c0-43.25-35.534-78.84-78.72-78.84S13.68,49.029,13.68,92.28c0,43.251,35.534,78.84,78.72,78.84S171.12,135.531,171.12,92.28"/>
	<path clip-path="url(#SVGID_2_)" fill-rule="evenodd" clip-rule="evenodd" fill="#FFE23F" d="M170.64,92.28
		c0-42.987-35.374-78.36-78.36-78.36S13.92,49.292,13.92,92.28s35.374,78.36,78.36,78.36S170.64,135.267,170.64,92.28"/>
	<path clip-path="url(#SVGID_2_)" fill-rule="evenodd" clip-rule="evenodd" fill="#FFE340" d="M170.16,92.28
		c0-42.592-35.103-77.64-77.76-77.64S14.64,49.688,14.64,92.28s35.103,77.64,77.76,77.64S170.16,134.872,170.16,92.28"/>
	<path clip-path="url(#SVGID_2_)" fill-rule="evenodd" clip-rule="evenodd" fill="#FFE441" d="M169.44,92.4
		c0-42.263-34.776-77.04-77.04-77.04S15.36,50.137,15.36,92.4s34.776,77.04,77.04,77.04S169.44,134.663,169.44,92.4"/>
	<path clip-path="url(#SVGID_2_)" fill-rule="evenodd" clip-rule="evenodd" fill="#FFE542" d="M168.96,92.28
		c0-41.934-34.561-76.44-76.561-76.44S15.84,50.346,15.84,92.28s34.56,76.44,76.56,76.44S168.96,134.213,168.96,92.28"/>
	<path clip-path="url(#SVGID_2_)" fill-rule="evenodd" clip-rule="evenodd" fill="#FFE643" d="M168.48,92.28
		c0-41.67-34.344-75.96-76.08-75.96c-41.736,0-76.08,34.29-76.08,75.96c0,41.671,34.344,75.96,76.08,75.96
		C134.136,168.24,168.48,133.951,168.48,92.28"/>
	<path clip-path="url(#SVGID_2_)" fill-rule="evenodd" clip-rule="evenodd" fill="#FFE644" d="M168,92.4
		c0-41.473-34.129-75.6-75.601-75.6S16.8,50.927,16.8,92.4c0,41.473,34.128,75.6,75.6,75.6S168,133.873,168,92.4"/>
	<path clip-path="url(#SVGID_2_)" fill-rule="evenodd" clip-rule="evenodd" fill="#FFE745" d="M167.52,92.28
		c0-41.275-33.909-75.24-75.12-75.24c-41.21,0-75.12,33.965-75.12,75.24s33.91,75.24,75.12,75.24
		C133.611,167.52,167.52,133.555,167.52,92.28"/>
	<path clip-path="url(#SVGID_2_)" fill-rule="evenodd" clip-rule="evenodd" fill="#FFE846" d="M167.04,92.28
		c0-41.012-33.693-74.76-74.64-74.76S17.76,51.268,17.76,92.28c0,41.013,33.693,74.76,74.64,74.76S167.04,133.292,167.04,92.28"/>
	<path clip-path="url(#SVGID_2_)" fill-rule="evenodd" clip-rule="evenodd" fill="#FFE947" d="M166.56,92.28
		C166.56,51.531,133.083,18,92.4,18c-40.682,0-74.16,33.531-74.16,74.28s33.478,74.28,74.16,74.28
		C133.083,166.56,166.56,133.029,166.56,92.28"/>
	<path clip-path="url(#SVGID_2_)" fill-rule="evenodd" clip-rule="evenodd" fill="#FFE948" d="M166.08,92.28
		c0-40.485-33.259-73.8-73.68-73.8s-73.68,33.314-73.68,73.8s33.259,73.8,73.68,73.8S166.08,132.765,166.08,92.28"/>
	<path clip-path="url(#SVGID_2_)" fill-rule="evenodd" clip-rule="evenodd" fill="#FFEA49" d="M165.6,92.28
		c0-40.222-33.043-73.32-73.2-73.32c-40.157,0-73.2,33.098-73.2,73.32c0,40.222,33.043,73.32,73.2,73.32
		C132.557,165.6,165.6,132.501,165.6,92.28"/>
	<path clip-path="url(#SVGID_2_)" fill-rule="evenodd" clip-rule="evenodd" fill="#FFEB4A" d="M165.12,92.28
		c0-39.959-32.827-72.84-72.72-72.84S19.68,52.321,19.68,92.28s32.827,72.84,72.72,72.84S165.12,132.239,165.12,92.28"/>
	<path clip-path="url(#SVGID_2_)" fill-rule="evenodd" clip-rule="evenodd" fill="#FFEC4C" d="M164.64,92.28
		c0-39.695-32.664-72.36-72.36-72.36c-39.696,0-72.36,32.665-72.36,72.36s32.664,72.36,72.36,72.36
		C131.976,164.64,164.64,131.975,164.64,92.28"/>
	<path clip-path="url(#SVGID_2_)" fill-rule="evenodd" clip-rule="evenodd" fill="#FFED4D" d="M163.92,92.28
		c0-39.169-32.285-71.4-71.521-71.4s-71.52,32.231-71.52,71.4s32.285,71.399,71.52,71.399S163.92,131.449,163.92,92.28"/>
	<path clip-path="url(#SVGID_2_)" fill-rule="evenodd" clip-rule="evenodd" fill="#FFEE4E" d="M163.44,92.28
		c0-38.906-32.068-70.92-71.04-70.92c-38.971,0-71.04,32.014-71.04,70.92c0,38.905,32.069,70.92,71.04,70.92
		C131.372,163.2,163.44,131.185,163.44,92.28"/>
	<path clip-path="url(#SVGID_2_)" fill-rule="evenodd" clip-rule="evenodd" fill="#FFEE4F" d="M162.96,92.28
		c0-38.642-31.854-70.44-70.561-70.44S21.84,53.638,21.84,92.28c0,38.642,31.853,70.44,70.56,70.44S162.96,130.921,162.96,92.28"/>
	<path clip-path="url(#SVGID_2_)" fill-rule="evenodd" clip-rule="evenodd" fill="#FFEF50" d="M162.48,92.28
		c0-38.511-31.634-70.2-70.08-70.2c-38.445,0-70.08,31.689-70.08,70.2s31.635,70.2,70.08,70.2
		C130.846,162.48,162.48,130.791,162.48,92.28"/>
	<path clip-path="url(#SVGID_2_)" fill-rule="evenodd" clip-rule="evenodd" fill="#FFF051" d="M162,92.4
		c0-38.182-31.419-69.6-69.601-69.6S22.8,54.218,22.8,92.4S54.218,162,92.4,162S162,130.582,162,92.4"/>
	<path clip-path="url(#SVGID_2_)" fill-rule="evenodd" clip-rule="evenodd" fill="#FFF152" d="M161.52,92.4
		c0-37.918-31.202-69.12-69.12-69.12c-37.917,0-69.12,31.202-69.12,69.12s31.203,69.12,69.12,69.12
		C130.318,161.52,161.52,130.318,161.52,92.4"/>
	<path clip-path="url(#SVGID_2_)" fill-rule="evenodd" clip-rule="evenodd" fill="#FFF153" d="M161.04,92.28
		c0-37.721-30.986-68.76-68.64-68.76S23.76,54.559,23.76,92.28s30.986,68.76,68.64,68.76S161.04,130,161.04,92.28"/>
	<path clip-path="url(#SVGID_2_)" fill-rule="evenodd" clip-rule="evenodd" fill="#FFF254" d="M160.56,92.28
		C160.56,54.823,129.792,24,92.4,24c-37.392,0-68.16,30.823-68.16,68.28s30.768,68.28,68.16,68.28
		C129.792,160.56,160.56,129.737,160.56,92.28"/>
	<path clip-path="url(#SVGID_2_)" fill-rule="evenodd" clip-rule="evenodd" fill="#FFF355" d="M160.08,92.28
		c0-37.194-30.552-67.8-67.68-67.8s-67.68,30.606-67.68,67.8c0,37.194,30.552,67.8,67.68,67.8S160.08,129.474,160.08,92.28"/>
	<path clip-path="url(#SVGID_2_)" fill-rule="evenodd" clip-rule="evenodd" fill="#FFF456" d="M159.6,92.28
		c0-36.931-30.336-67.32-67.2-67.32c-36.864,0-67.2,30.389-67.2,67.32s30.336,67.32,67.2,67.32
		C129.264,159.6,159.6,129.21,159.6,92.28"/>
	<path clip-path="url(#SVGID_2_)" fill-rule="evenodd" clip-rule="evenodd" fill="#FFF558" d="M159.12,92.28
		c0-36.667-30.117-66.84-66.72-66.84S25.68,55.612,25.68,92.28c0,36.667,30.117,66.84,66.72,66.84S159.12,128.947,159.12,92.28"/>
	<path clip-path="url(#SVGID_2_)" fill-rule="evenodd" clip-rule="evenodd" fill="#FFF659" d="M158.4,92.28
		c0-36.141-29.794-65.88-66-65.88s-66,29.739-66,65.88s29.794,65.88,66,65.88S158.4,128.42,158.4,92.28"/>
	<path clip-path="url(#SVGID_2_)" fill-rule="evenodd" clip-rule="evenodd" fill="#FFF65A" d="M157.92,92.28
		c0-35.877-29.578-65.4-65.521-65.4s-65.52,29.522-65.52,65.4c0,35.878,29.578,65.399,65.52,65.399S157.92,128.158,157.92,92.28"/>
	<path clip-path="url(#SVGID_2_)" fill-rule="evenodd" clip-rule="evenodd" fill="#FFF75B" d="M157.44,92.4
		c0-35.68-29.359-65.04-65.04-65.04S27.36,56.72,27.36,92.4s29.359,65.04,65.04,65.04S157.44,128.08,157.44,92.4"/>
	<path clip-path="url(#SVGID_2_)" fill-rule="evenodd" clip-rule="evenodd" fill="#FFF85C" d="M156.96,92.28
		c0-35.351-29.144-64.44-64.561-64.44c-35.417,0-64.56,29.089-64.56,64.44s29.144,64.44,64.56,64.44
		C127.817,156.72,156.96,127.63,156.96,92.28"/>
	<path clip-path="url(#SVGID_2_)" fill-rule="evenodd" clip-rule="evenodd" fill="#FFF95D" d="M156.48,92.4
		c0-35.153-28.927-64.08-64.08-64.08c-35.153,0-64.08,28.927-64.08,64.08s28.927,64.08,64.08,64.08
		C127.553,156.48,156.48,127.553,156.48,92.4"/>
	<path clip-path="url(#SVGID_2_)" fill-rule="evenodd" clip-rule="evenodd" fill="#FFF95E" d="M156,92.4
		c0-34.89-28.712-63.6-63.601-63.6S28.8,57.51,28.8,92.4c0,34.89,28.711,63.6,63.6,63.6S156,127.29,156,92.4"/>
	<path clip-path="url(#SVGID_2_)" fill-rule="evenodd" clip-rule="evenodd" fill="#FFFA5F" d="M155.52,92.28
		c0-34.692-28.492-63.24-63.12-63.24c-34.627,0-63.12,28.548-63.12,63.24s28.493,63.24,63.12,63.24
		C127.028,155.52,155.52,126.972,155.52,92.28"/>
	<path clip-path="url(#SVGID_2_)" fill-rule="evenodd" clip-rule="evenodd" fill="#FFFB60" d="M155.04,92.28
		c0-34.429-28.276-62.76-62.64-62.76S29.76,57.851,29.76,92.28c0,34.429,28.276,62.76,62.64,62.76S155.04,126.708,155.04,92.28"/>
	<path clip-path="url(#SVGID_2_)" fill-rule="evenodd" clip-rule="evenodd" fill="#FFFC61" d="M154.56,92.28
		C154.56,58.114,126.499,30,92.4,30c-34.099,0-62.16,28.115-62.16,62.28c0,34.166,28.061,62.28,62.16,62.28
		C126.499,154.56,154.56,126.446,154.56,92.28"/>
	<path clip-path="url(#SVGID_2_)" fill-rule="evenodd" clip-rule="evenodd" fill="#FFFC62" d="M154.08,92.28
		c0-33.902-27.842-61.8-61.68-61.8c-33.837,0-61.68,27.897-61.68,61.8s27.842,61.8,61.68,61.8
		C126.238,154.08,154.08,126.182,154.08,92.28"/>
	<path clip-path="url(#SVGID_2_)" fill-rule="evenodd" clip-rule="evenodd" fill="#FFFD63" d="M153.6,92.28
		c0-33.639-27.627-61.32-61.2-61.32S31.2,58.641,31.2,92.28c0,33.64,27.626,61.32,61.2,61.32S153.6,125.919,153.6,92.28"/>
	<path clip-path="url(#SVGID_2_)" fill-rule="evenodd" clip-rule="evenodd" fill="#FFFE65" d="M153.12,92.28
		c0-33.376-27.41-60.84-60.72-60.84S31.68,58.904,31.68,92.28s27.41,60.84,60.72,60.84S153.12,125.656,153.12,92.28"/>
	<path clip-path="url(#SVGID_2_)" fill-rule="evenodd" clip-rule="evenodd" fill="#FFFF66" d="M152.4,92.4c0-32.915-27.084-60-60-60
		s-60,27.085-60,60s27.084,60,60,60S152.4,125.315,152.4,92.4"/>
</g>
</svg>
